<?xml version="1.0" encoding="UTF-8" standalone="no"?>
<!-- Created with Inkscape (http://www.inkscape.org/) -->

<svg
   xmlns:dc="http://purl.org/dc/elements/1.1/"
   xmlns:cc="http://creativecommons.org/ns#"
   xmlns:rdf="http://www.w3.org/1999/02/22-rdf-syntax-ns#"
   xmlns:svg="http://www.w3.org/2000/svg"
   xmlns="http://www.w3.org/2000/svg"
   xmlns:xlink="http://www.w3.org/1999/xlink"
   xmlns:sodipodi="http://sodipodi.sourceforge.net/DTD/sodipodi-0.dtd"
   xmlns:inkscape="http://www.inkscape.org/namespaces/inkscape"
   width="210mm"
   height="297mm"
   viewBox="0 0 210 297"
   version="1.1"
   id="svg123122"
   inkscape:version="0.92.3 (5aff6ba, 2018-11-25)"
   sodipodi:docname="kvantumfant0.svg">
  <defs
     id="defs123116" />
  <sodipodi:namedview
     id="base"
     pagecolor="#ffffff"
     bordercolor="#666666"
     borderopacity="1.0"
     inkscape:pageopacity="0.0"
     inkscape:pageshadow="2"
     inkscape:zoom="0.49497475"
     inkscape:cx="400"
     inkscape:cy="721.62441"
     inkscape:document-units="mm"
     inkscape:current-layer="layer1"
     showgrid="false"
     inkscape:window-width="1299"
     inkscape:window-height="713"
     inkscape:window-x="67"
     inkscape:window-y="27"
     inkscape:window-maximized="1" />
  <metadata
     id="metadata123119">
    <rdf:RDF>
      <cc:Work
         rdf:about="">
        <dc:format>image/svg+xml</dc:format>
        <dc:type
           rdf:resource="http://purl.org/dc/dcmitype/StillImage" />
        <dc:title></dc:title>
      </cc:Work>
    </rdf:RDF>
  </metadata>
  <g
     inkscape:label="Layer 1"
     inkscape:groupmode="layer"
     id="layer1">
    <use
       height="100%"
       width="100%"
       transform="matrix(5.8780618,0,0,5.8474925,-870.65447,-188.00084)"
       id="use122612"
       xlink:href="#g122323"
       y="0"
       x="0" />
    <use
       x="0"
       y="0"
       xlink:href="#g122323"
       id="use122450"
       transform="matrix(3,0,0,3,-389.26735,-88.40973)"
       width="100%"
       height="100%" />
    <use
       height="100%"
       width="100%"
       transform="translate(-55.217415,-6.49835)"
       id="use122396"
       xlink:href="#g122323"
       y="0"
       x="0" />
    <g
       id="g122323"
       transform="matrix(0.09793072,0,0,0.09793072,117.31252,24.87332)">
      <path
         sodipodi:nodetypes="cccccc"
         inkscape:connector-curvature="0"
         id="path122308"
         d="M 507.76911,241.33272 385.9372,274.54936 v 0 l 115.9896,39.59887 121.34572,-39.63112 z"
         style="fill:#c61d1e;fill-opacity:1;stroke:#810402;stroke-width:0.26458332px;stroke-linecap:butt;stroke-linejoin:miter;stroke-opacity:1" />
      <path
         sodipodi:nodetypes="ccccccc"
         inkscape:connector-curvature="0"
         id="path122310"
         d="m 501.9268,314.14823 121.34572,-39.63112 v 0 l -1.50154,125.11439 h 1.06908 L 502.0987,439.33781 Z"
         style="fill:#ad0000;fill-opacity:1;stroke:#810402;stroke-width:0.26458332px;stroke-linecap:butt;stroke-linejoin:miter;stroke-opacity:1" />
      <path
         sodipodi:nodetypes="ccccc"
         inkscape:connector-curvature="0"
         id="path122312"
         d="m 385.9372,274.54936 115.9896,39.59887 0.1719,125.18958 -116.00034,-39.11269 z"
         style="fill:#a40301;fill-opacity:1;stroke:#810402;stroke-width:0.26458332px;stroke-linecap:butt;stroke-linejoin:miter;stroke-opacity:1" />
    </g>
    <use
       x="0"
       y="0"
       xlink:href="#g122323"
       id="use122325"
       transform="translate(-54.773225,-22.34097)"
       width="100%"
       height="100%" />
    <use
       height="100%"
       width="100%"
       transform="matrix(0.5,0,0,0.5,39.971585,11.59331)"
       id="use122327"
       xlink:href="#g122323"
       y="0"
       x="0" />
    <use
       x="0"
       y="0"
       xlink:href="#g122323"
       id="use122329"
       transform="matrix(0.5,0,0,0.5,28.678955,-4.20252)"
       width="100%"
       height="100%" />
    <use
       x="0"
       y="0"
       xlink:href="#g122323"
       id="use122335"
       transform="matrix(0.5,0,0,0.5,16.851825,11.60601)"
       width="100%"
       height="100%" />
    <use
       height="100%"
       width="100%"
       transform="translate(-72.688725,1.34893)"
       id="use122380"
       xlink:href="#g122323"
       y="0"
       x="0" />
    <use
       x="0"
       y="0"
       xlink:href="#g122323"
       id="use122382"
       transform="matrix(0.5,0,0,0.5,22.056095,35.28322)"
       width="100%"
       height="100%" />
    <use
       height="100%"
       width="100%"
       transform="matrix(0.5,0,0,0.5,10.763465,19.48738)"
       id="use122384"
       xlink:href="#g122323"
       y="0"
       x="0" />
    <use
       height="100%"
       width="100%"
       transform="matrix(0.5,0,0,0.5,-1.0636652,35.29592)"
       id="use122386"
       xlink:href="#g122323"
       y="0"
       x="0" />
    <use
       x="0"
       y="0"
       xlink:href="#g122323"
       id="use122388"
       transform="translate(-38.190295,1.34893)"
       width="100%"
       height="100%" />
    <use
       height="100%"
       width="100%"
       transform="matrix(0.5,0,0,0.5,56.554515,35.28322)"
       id="use122390"
       xlink:href="#g122323"
       y="0"
       x="0" />
    <use
       x="0"
       y="0"
       xlink:href="#g122323"
       id="use122392"
       transform="matrix(0.5,0,0,0.5,45.261895,19.48738)"
       width="100%"
       height="100%" />
    <use
       x="0"
       y="0"
       xlink:href="#g122323"
       id="use122394"
       transform="matrix(0.5,0,0,0.5,33.434765,35.29592)"
       width="100%"
       height="100%" />
    <use
       x="0"
       y="0"
       xlink:href="#g122323"
       id="use122398"
       transform="translate(-21.764545,40.76803)"
       width="100%"
       height="100%" />
    <use
       height="100%"
       width="100%"
       transform="translate(-21.320355,24.9254)"
       id="use122400"
       xlink:href="#g122323"
       y="0"
       x="0" />
    <use
       x="0"
       y="0"
       xlink:href="#g122323"
       id="use122402"
       transform="matrix(0.5,0,0,0.5,73.424455,58.85969)"
       width="100%"
       height="100%" />
    <use
       height="100%"
       width="100%"
       transform="matrix(0.5,0,0,0.5,62.131835,43.06385)"
       id="use122404"
       xlink:href="#g122323"
       y="0"
       x="0" />
    <use
       height="100%"
       width="100%"
       transform="matrix(0.5,0,0,0.5,50.304695,58.87239)"
       id="use122406"
       xlink:href="#g122323"
       y="0"
       x="0" />
    <use
       x="0"
       y="0"
       xlink:href="#g122323"
       id="use122408"
       transform="translate(-39.235855,48.61532)"
       width="100%"
       height="100%" />
    <use
       height="100%"
       width="100%"
       transform="matrix(0.5,0,0,0.5,55.508975,82.54962)"
       id="use122410"
       xlink:href="#g122323"
       y="0"
       x="0" />
    <use
       x="0"
       y="0"
       xlink:href="#g122323"
       id="use122412"
       transform="matrix(0.5,0,0,0.5,44.216345,66.75376)"
       width="100%"
       height="100%" />
    <use
       x="0"
       y="0"
       xlink:href="#g122323"
       id="use122414"
       transform="matrix(0.5,0,0,0.5,32.389205,82.56232)"
       width="100%"
       height="100%" />
    <use
       height="100%"
       width="100%"
       transform="translate(-4.7374252,48.61532)"
       id="use122416"
       xlink:href="#g122323"
       y="0"
       x="0" />
    <use
       x="0"
       y="0"
       xlink:href="#g122323"
       id="use122418"
       transform="matrix(0.5,0,0,0.5,90.007385,82.54962)"
       width="100%"
       height="100%" />
    <use
       height="100%"
       width="100%"
       transform="matrix(0.5,0,0,0.5,78.714765,66.75376)"
       id="use122420"
       xlink:href="#g122323"
       y="0"
       x="0" />
    <use
       height="100%"
       width="100%"
       transform="matrix(0.5,0,0,0.5,66.887635,82.56232)"
       id="use122422"
       xlink:href="#g122323"
       y="0"
       x="0" />
    <use
       height="100%"
       width="100%"
       transform="translate(-90.946535,40.76803)"
       id="use122424"
       xlink:href="#g122323"
       y="0"
       x="0" />
    <use
       x="0"
       y="0"
       xlink:href="#g122323"
       id="use122426"
       transform="translate(-90.502335,24.9254)"
       width="100%"
       height="100%" />
    <use
       height="100%"
       width="100%"
       transform="matrix(0.5,0,0,0.5,4.2424848,58.85969)"
       id="use122428"
       xlink:href="#g122323"
       y="0"
       x="0" />
    <use
       x="0"
       y="0"
       xlink:href="#g122323"
       id="use122430"
       transform="matrix(0.5,0,0,0.5,-7.0501352,43.06385)"
       width="100%"
       height="100%" />
    <use
       x="0"
       y="0"
       xlink:href="#g122323"
       id="use122432"
       transform="matrix(0.5,0,0,0.5,-18.877285,58.87239)"
       width="100%"
       height="100%" />
    <use
       height="100%"
       width="100%"
       transform="translate(-108.4179,48.61532)"
       id="use122434"
       xlink:href="#g122323"
       y="0"
       x="0" />
    <use
       x="0"
       y="0"
       xlink:href="#g122323"
       id="use122436"
       transform="matrix(0.5,0,0,0.5,-13.673005,82.54962)"
       width="100%"
       height="100%" />
    <use
       height="100%"
       width="100%"
       transform="matrix(0.5,0,0,0.5,-24.965635,66.75376)"
       id="use122438"
       xlink:href="#g122323"
       y="0"
       x="0" />
    <use
       height="100%"
       width="100%"
       transform="matrix(0.5,0,0,0.5,-36.792785,82.56232)"
       id="use122440"
       xlink:href="#g122323"
       y="0"
       x="0" />
    <use
       x="0"
       y="0"
       xlink:href="#g122323"
       id="use122442"
       transform="translate(-73.919395,48.61532)"
       width="100%"
       height="100%" />
    <use
       height="100%"
       width="100%"
       transform="matrix(0.5,0,0,0.5,20.825425,82.54962)"
       id="use122444"
       xlink:href="#g122323"
       y="0"
       x="0" />
    <use
       x="0"
       y="0"
       xlink:href="#g122323"
       id="use122446"
       transform="matrix(0.5,0,0,0.5,9.5327948,66.75376)"
       width="100%"
       height="100%" />
    <use
       x="0"
       y="0"
       xlink:href="#g122323"
       id="use122448"
       transform="matrix(0.5,0,0,0.5,-2.2943452,82.56232)"
       width="100%"
       height="100%" />
    <use
       height="100%"
       width="100%"
       transform="matrix(3,0,0,3,-322.30635,6.15745)"
       id="use122452"
       xlink:href="#g122323"
       y="0"
       x="0" />
    <use
       x="0"
       y="0"
       xlink:href="#g122323"
       id="use122454"
       transform="translate(11.743595,88.06882)"
       width="100%"
       height="100%" />
    <use
       height="100%"
       width="100%"
       transform="translate(12.187775,72.22619)"
       id="use122456"
       xlink:href="#g122323"
       y="0"
       x="0" />
    <use
       x="0"
       y="0"
       xlink:href="#g122323"
       id="use122458"
       transform="matrix(0.5,0,0,0.5,106.93258,106.16047)"
       width="100%"
       height="100%" />
    <use
       height="100%"
       width="100%"
       transform="matrix(0.5,0,0,0.5,95.639965,90.36463)"
       id="use122460"
       xlink:href="#g122323"
       y="0"
       x="0" />
    <use
       height="100%"
       width="100%"
       transform="matrix(0.5,0,0,0.5,83.812815,106.17318)"
       id="use122462"
       xlink:href="#g122323"
       y="0"
       x="0" />
    <use
       x="0"
       y="0"
       xlink:href="#g122323"
       id="use122464"
       transform="translate(-5.7277152,95.9161)"
       width="100%"
       height="100%" />
    <use
       height="100%"
       width="100%"
       transform="matrix(0.5,0,0,0.5,89.017095,129.85039)"
       id="use122466"
       xlink:href="#g122323"
       y="0"
       x="0" />
    <use
       x="0"
       y="0"
       xlink:href="#g122323"
       id="use122468"
       transform="matrix(0.5,0,0,0.5,77.724465,114.05455)"
       width="100%"
       height="100%" />
    <use
       x="0"
       y="0"
       xlink:href="#g122323"
       id="use122470"
       transform="matrix(0.5,0,0,0.5,65.897335,129.86309)"
       width="100%"
       height="100%" />
    <use
       height="100%"
       width="100%"
       transform="translate(28.770705,95.9161)"
       id="use122472"
       xlink:href="#g122323"
       y="0"
       x="0" />
    <use
       x="0"
       y="0"
       xlink:href="#g122323"
       id="use122474"
       transform="matrix(0.5,0,0,0.5,123.51552,129.85039)"
       width="100%"
       height="100%" />
    <use
       height="100%"
       width="100%"
       transform="matrix(0.5,0,0,0.5,112.22289,114.05455)"
       id="use122476"
       xlink:href="#g122323"
       y="0"
       x="0" />
    <use
       height="100%"
       width="100%"
       transform="matrix(0.5,0,0,0.5,100.39576,129.86309)"
       id="use122478"
       xlink:href="#g122323"
       y="0"
       x="0" />
    <use
       height="100%"
       width="100%"
       transform="translate(45.196465,135.33519)"
       id="use122480"
       xlink:href="#g122323"
       y="0"
       x="0" />
    <use
       x="0"
       y="0"
       xlink:href="#g122323"
       id="use122482"
       transform="translate(45.640645,119.49257)"
       width="100%"
       height="100%" />
    <use
       height="100%"
       width="100%"
       transform="matrix(0.5,0,0,0.5,140.38545,153.42686)"
       id="use122484"
       xlink:href="#g122323"
       y="0"
       x="0" />
    <use
       x="0"
       y="0"
       xlink:href="#g122323"
       id="use122486"
       transform="matrix(0.5,0,0,0.5,129.09283,137.63101)"
       width="100%"
       height="100%" />
    <use
       x="0"
       y="0"
       xlink:href="#g122323"
       id="use122488"
       transform="matrix(0.5,0,0,0.5,117.2657,153.43955)"
       width="100%"
       height="100%" />
    <use
       height="100%"
       width="100%"
       transform="translate(27.725155,143.18247)"
       id="use122490"
       xlink:href="#g122323"
       y="0"
       x="0" />
    <use
       x="0"
       y="0"
       xlink:href="#g122323"
       id="use122492"
       transform="matrix(0.5,0,0,0.5,122.46996,177.11678)"
       width="100%"
       height="100%" />
    <use
       height="100%"
       width="100%"
       transform="matrix(0.5,0,0,0.5,111.17733,161.32093)"
       id="use122494"
       xlink:href="#g122323"
       y="0"
       x="0" />
    <use
       height="100%"
       width="100%"
       transform="matrix(0.5,0,0,0.5,99.350205,177.12948)"
       id="use122496"
       xlink:href="#g122323"
       y="0"
       x="0" />
    <use
       x="0"
       y="0"
       xlink:href="#g122323"
       id="use122498"
       transform="translate(62.223595,143.18247)"
       width="100%"
       height="100%" />
    <use
       height="100%"
       width="100%"
       transform="matrix(0.5,0,0,0.5,156.96836,177.11678)"
       id="use122500"
       xlink:href="#g122323"
       y="0"
       x="0" />
    <use
       x="0"
       y="0"
       xlink:href="#g122323"
       id="use122502"
       transform="matrix(0.5,0,0,0.5,145.67576,161.32093)"
       width="100%"
       height="100%" />
    <use
       x="0"
       y="0"
       xlink:href="#g122323"
       id="use122504"
       transform="matrix(0.5,0,0,0.5,133.84863,177.12948)"
       width="100%"
       height="100%" />
    <use
       x="0"
       y="0"
       xlink:href="#g122323"
       id="use122506"
       transform="translate(-23.985525,135.33519)"
       width="100%"
       height="100%" />
    <use
       height="100%"
       width="100%"
       transform="translate(-23.541335,119.49257)"
       id="use122508"
       xlink:href="#g122323"
       y="0"
       x="0" />
    <use
       x="0"
       y="0"
       xlink:href="#g122323"
       id="use122510"
       transform="matrix(0.5,0,0,0.5,71.203495,153.42686)"
       width="100%"
       height="100%" />
    <use
       height="100%"
       width="100%"
       transform="matrix(0.5,0,0,0.5,59.910855,137.63101)"
       id="use122512"
       xlink:href="#g122323"
       y="0"
       x="0" />
    <use
       height="100%"
       width="100%"
       transform="matrix(0.5,0,0,0.5,48.083725,153.43955)"
       id="use122514"
       xlink:href="#g122323"
       y="0"
       x="0" />
    <use
       x="0"
       y="0"
       xlink:href="#g122323"
       id="use122516"
       transform="translate(-41.456895,143.18247)"
       width="100%"
       height="100%" />
    <use
       height="100%"
       width="100%"
       transform="matrix(0.5,0,0,0.5,53.288005,177.11678)"
       id="use122518"
       xlink:href="#g122323"
       y="0"
       x="0" />
    <use
       x="0"
       y="0"
       xlink:href="#g122323"
       id="use122520"
       transform="matrix(0.5,0,0,0.5,41.995365,161.32093)"
       width="100%"
       height="100%" />
    <use
       x="0"
       y="0"
       xlink:href="#g122323"
       id="use122522"
       transform="matrix(0.5,0,0,0.5,30.168225,177.12948)"
       width="100%"
       height="100%" />
    <use
       height="100%"
       width="100%"
       transform="translate(-6.9583952,143.18247)"
       id="use122524"
       xlink:href="#g122323"
       y="0"
       x="0" />
    <use
       x="0"
       y="0"
       xlink:href="#g122323"
       id="use122526"
       transform="matrix(0.5,0,0,0.5,87.786415,177.11678)"
       width="100%"
       height="100%" />
    <use
       height="100%"
       width="100%"
       transform="matrix(0.5,0,0,0.5,76.493805,161.32093)"
       id="use122528"
       xlink:href="#g122323"
       y="0"
       x="0" />
    <use
       height="100%"
       width="100%"
       transform="matrix(0.5,0,0,0.5,64.666665,177.12948)"
       id="use122530"
       xlink:href="#g122323"
       y="0"
       x="0" />
    <use
       x="0"
       y="0"
       xlink:href="#g122323"
       id="use122532"
       transform="matrix(3,0,0,3,-460.46382,6.15745)"
       width="100%"
       height="100%" />
    <use
       height="100%"
       width="100%"
       transform="translate(-126.41325,88.06882)"
       id="use122534"
       xlink:href="#g122323"
       y="0"
       x="0" />
    <use
       x="0"
       y="0"
       xlink:href="#g122323"
       id="use122536"
       transform="translate(-125.96906,72.22619)"
       width="100%"
       height="100%" />
    <use
       height="100%"
       width="100%"
       transform="matrix(0.5,0,0,0.5,-31.224065,106.16047)"
       id="use122538"
       xlink:href="#g122323"
       y="0"
       x="0" />
    <use
       x="0"
       y="0"
       xlink:href="#g122323"
       id="use122540"
       transform="matrix(0.5,0,0,0.5,-42.516685,90.36463)"
       width="100%"
       height="100%" />
    <use
       x="0"
       y="0"
       xlink:href="#g122323"
       id="use122542"
       transform="matrix(0.5,0,0,0.5,-54.343925,106.17318)"
       width="100%"
       height="100%" />
    <use
       height="100%"
       width="100%"
       transform="translate(-143.88465,95.9161)"
       id="use122544"
       xlink:href="#g122323"
       y="0"
       x="0" />
    <use
       x="0"
       y="0"
       xlink:href="#g122323"
       id="use122546"
       transform="matrix(0.5,0,0,0.5,-49.139575,129.85039)"
       width="100%"
       height="100%" />
    <use
       height="100%"
       width="100%"
       transform="matrix(0.5,0,0,0.5,-60.432315,114.05455)"
       id="use122548"
       xlink:href="#g122323"
       y="0"
       x="0" />
    <use
       height="100%"
       width="100%"
       transform="matrix(0.5,0,0,0.5,-72.259535,129.86309)"
       id="use122550"
       xlink:href="#g122323"
       y="0"
       x="0" />
    <use
       x="0"
       y="0"
       xlink:href="#g122323"
       id="use122552"
       transform="translate(-109.38603,95.9161)"
       width="100%"
       height="100%" />
    <use
       height="100%"
       width="100%"
       transform="matrix(0.5,0,0,0.5,-14.641135,129.85039)"
       id="use122554"
       xlink:href="#g122323"
       y="0"
       x="0" />
    <use
       x="0"
       y="0"
       xlink:href="#g122323"
       id="use122556"
       transform="matrix(0.5,0,0,0.5,-25.933765,114.05455)"
       width="100%"
       height="100%" />
    <use
       x="0"
       y="0"
       xlink:href="#g122323"
       id="use122558"
       transform="matrix(0.5,0,0,0.5,-37.760895,129.86309)"
       width="100%"
       height="100%" />
    <use
       x="0"
       y="0"
       xlink:href="#g122323"
       id="use122560"
       transform="translate(-92.960195,135.33519)"
       width="100%"
       height="100%" />
    <use
       height="100%"
       width="100%"
       transform="translate(-92.516005,119.49257)"
       id="use122562"
       xlink:href="#g122323"
       y="0"
       x="0" />
    <use
       x="0"
       y="0"
       xlink:href="#g122323"
       id="use122564"
       transform="matrix(0.5,0,0,0.5,2.2288048,153.42686)"
       width="100%"
       height="100%" />
    <use
       height="100%"
       width="100%"
       transform="matrix(0.5,0,0,0.5,-9.0638252,137.63101)"
       id="use122566"
       xlink:href="#g122323"
       y="0"
       x="0" />
    <use
       height="100%"
       width="100%"
       transform="matrix(0.5,0,0,0.5,-20.890955,153.43955)"
       id="use122568"
       xlink:href="#g122323"
       y="0"
       x="0" />
    <use
       x="0"
       y="0"
       xlink:href="#g122323"
       id="use122570"
       transform="translate(-110.43162,143.18247)"
       width="100%"
       height="100%" />
    <use
       height="100%"
       width="100%"
       transform="matrix(0.5,0,0,0.5,-15.686685,177.11678)"
       id="use122572"
       xlink:href="#g122323"
       y="0"
       x="0" />
    <use
       x="0"
       y="0"
       xlink:href="#g122323"
       id="use122574"
       transform="matrix(0.5,0,0,0.5,-26.979305,161.32093)"
       width="100%"
       height="100%" />
    <use
       x="0"
       y="0"
       xlink:href="#g122323"
       id="use122576"
       transform="matrix(0.5,0,0,0.5,-38.806455,177.12948)"
       width="100%"
       height="100%" />
    <use
       height="100%"
       width="100%"
       transform="translate(-75.933085,143.18247)"
       id="use122578"
       xlink:href="#g122323"
       y="0"
       x="0" />
    <use
       x="0"
       y="0"
       xlink:href="#g122323"
       id="use122580"
       transform="matrix(0.5,0,0,0.5,18.811675,177.11678)"
       width="100%"
       height="100%" />
    <use
       height="100%"
       width="100%"
       transform="matrix(0.5,0,0,0.5,7.5191148,161.32093)"
       id="use122582"
       xlink:href="#g122323"
       y="0"
       x="0" />
    <use
       height="100%"
       width="100%"
       transform="matrix(0.5,0,0,0.5,-4.3080252,177.12948)"
       id="use122584"
       xlink:href="#g122323"
       y="0"
       x="0" />
    <use
       height="100%"
       width="100%"
       transform="translate(-162.14259,135.33519)"
       id="use122586"
       xlink:href="#g122323"
       y="0"
       x="0" />
    <use
       x="0"
       y="0"
       xlink:href="#g122323"
       id="use122588"
       transform="translate(-161.69839,119.49257)"
       width="100%"
       height="100%" />
    <use
       height="100%"
       width="100%"
       transform="matrix(0.5,0,0,0.5,-66.953335,153.42686)"
       id="use122590"
       xlink:href="#g122323"
       y="0"
       x="0" />
    <use
       x="0"
       y="0"
       xlink:href="#g122323"
       id="use122592"
       transform="matrix(0.5,0,0,0.5,-78.246015,137.63101)"
       width="100%"
       height="100%" />
    <use
       x="0"
       y="0"
       xlink:href="#g122323"
       id="use122594"
       transform="matrix(0.5,0,0,0.5,-90.073235,153.43955)"
       width="100%"
       height="100%" />
    <use
       height="100%"
       width="100%"
       transform="translate(-179.61404,143.18247)"
       id="use122596"
       xlink:href="#g122323"
       y="0"
       x="0" />
    <use
       x="0"
       y="0"
       xlink:href="#g122323"
       id="use122598"
       transform="matrix(0.5,0,0,0.5,-84.868925,177.11678)"
       width="100%"
       height="100%" />
    <use
       height="100%"
       width="100%"
       transform="matrix(0.5,0,0,0.5,-96.161625,161.32093)"
       id="use122600"
       xlink:href="#g122323"
       y="0"
       x="0" />
    <use
       height="100%"
       width="100%"
       transform="matrix(0.5,0,0,0.5,-107.98883,177.12948)"
       id="use122602"
       xlink:href="#g122323"
       y="0"
       x="0" />
    <use
       x="0"
       y="0"
       xlink:href="#g122323"
       id="use122604"
       transform="translate(-145.11534,143.18247)"
       width="100%"
       height="100%" />
    <use
       height="100%"
       width="100%"
       transform="matrix(0.5,0,0,0.5,-50.370285,177.11678)"
       id="use122606"
       xlink:href="#g122323"
       y="0"
       x="0" />
    <use
       x="0"
       y="0"
       xlink:href="#g122323"
       id="use122608"
       transform="matrix(0.5,0,0,0.5,-61.662995,161.32093)"
       width="100%"
       height="100%" />
    <use
       x="0"
       y="0"
       xlink:href="#g122323"
       id="use122610"
       transform="matrix(0.5,0,0,0.5,-73.490205,177.12948)"
       width="100%"
       height="100%" />
  </g>
</svg>
