<?xml version="1.0" encoding="UTF-8" standalone="no"?>
<!-- Created with Inkscape (http://www.inkscape.org/) -->

<svg
   xmlns:dc="http://purl.org/dc/elements/1.1/"
   xmlns:cc="http://creativecommons.org/ns#"
   xmlns:rdf="http://www.w3.org/1999/02/22-rdf-syntax-ns#"
   xmlns:svg="http://www.w3.org/2000/svg"
   xmlns="http://www.w3.org/2000/svg"
   xmlns:sodipodi="http://sodipodi.sourceforge.net/DTD/sodipodi-0.dtd"
   xmlns:inkscape="http://www.inkscape.org/namespaces/inkscape"
   width="32"
   height="32"
   viewBox="0 0 8.4666665 8.4666669"
   version="1.1"
   id="svg1021"
   inkscape:version="0.92.3 (2405546, 2018-03-11)"
   sodipodi:docname="nrg.svg">
  <defs
     id="defs1015">
    <inkscape:path-effect
       effect="spiro"
       id="path-effect1025"
       is_visible="true" />
  </defs>
  <sodipodi:namedview
     id="base"
     pagecolor="#ffffff"
     bordercolor="#666666"
     borderopacity="1.0"
     inkscape:pageopacity="0.0"
     inkscape:pageshadow="2"
     inkscape:zoom="16.625"
     inkscape:cx="16"
     inkscape:cy="16"
     inkscape:document-units="px"
     inkscape:current-layer="layer1"
     showgrid="false"
     units="px"
     inkscape:pagecheckerboard="true"
     inkscape:snap-global="false"
     inkscape:window-width="1323"
     inkscape:window-height="713"
     inkscape:window-x="0"
     inkscape:window-y="27"
     inkscape:window-maximized="1" />
  <metadata
     id="metadata1018">
    <rdf:RDF>
      <cc:Work
         rdf:about="">
        <dc:format>image/svg+xml</dc:format>
        <dc:type
           rdf:resource="http://purl.org/dc/dcmitype/StillImage" />
        <dc:title></dc:title>
      </cc:Work>
    </rdf:RDF>
  </metadata>
  <g
     inkscape:label="Layer 1"
     inkscape:groupmode="layer"
     id="layer1"
     transform="translate(0,-288.53332)">
    <path
       style="fill:#ffffff;fill-rule:evenodd;stroke:none;stroke-width:0.26458332px;stroke-linecap:butt;stroke-linejoin:miter;stroke-opacity:1"
       d="m 3.9946114,288.89936 c -0.070286,0.001 -0.1395649,0.0227 -0.2005912,0.0576 -0.061026,0.0349 -0.1139774,0.083 -0.1580196,0.1378 -0.088084,0.10958 -0.1398684,0.24355 -0.1824918,0.37753 -0.093201,0.29297 -0.1500456,0.5998 -0.2864664,0.87531 -0.1392227,0.28117 -0.3547816,0.51639 -0.5251879,0.77983 -0.4605748,0.71202 -0.56958,1.62795 -0.3427387,2.44504 0.2268413,0.8171 0.7738597,1.53075 1.4726886,2.0111 0.050602,0.0348 0.1021989,0.0685 0.157683,0.0948 0.055484,0.0263 0.1152157,0.0451 0.1765276,0.0484 0.062039,0.003 0.1242104,-0.009 0.1826984,-0.0301 0.058488,-0.021 0.1136235,-0.0503 0.1674268,-0.0813 0.7113945,-0.41085 1.2075037,-1.1546 1.3703796,-1.9598 0.162876,-0.80521 0.00476,-1.66106 -0.3836627,-2.38494 -0.155029,-0.28892 -0.3456313,-0.55918 -0.4774439,-0.8594 -0.1784496,-0.40645 -0.2487698,-0.86601 -0.5092732,-1.22543 -0.055285,-0.0763 -0.1192296,-0.1475 -0.1969849,-0.20069 -0.077755,-0.0532 -0.1703553,-0.0876 -0.2645437,-0.0858 z"
       id="path1023"
       inkscape:connector-curvature="0"
       inkscape:path-effect="#path-effect1025"
       inkscape:original-d="m 3.9946114,288.89936 c -0.090448,-0.0634 -0.3339458,0.3923 -0.5411026,0.57293 -0.2071569,0.18064 -0.2808964,0.79548 -0.2864664,0.87531 -0.00557,0.0798 -0.4400445,0.73711 -0.5251879,0.77983 -0.085143,0.0427 0.8649681,2.50367 1.1299499,4.45614 0.2649818,1.95248 0.265511,0.12177 0.3342106,0.14327 0.0687,0.0215 0.265511,-0.0586 0.3501252,-0.1114 0.084614,-0.0528 0.7800892,-2.45645 0.9867169,-4.34474 0.2066274,-1.88829 -0.3127265,-0.796 -0.4774439,-0.8594 -0.1647174,-0.0634 -0.4347395,-1.0188 -0.5092732,-1.22543 -0.074534,-0.20663 -0.3710803,-0.22312 -0.4615286,-0.28651 z"
       sodipodi:nodetypes="ccccsccsscc" />
  </g>
</svg>
