<?xml version="1.0" encoding="UTF-8" standalone="no"?>
<!-- Created with Inkscape (http://www.inkscape.org/) -->

<svg
   xmlns:dc="http://purl.org/dc/elements/1.1/"
   xmlns:cc="http://creativecommons.org/ns#"
   xmlns:rdf="http://www.w3.org/1999/02/22-rdf-syntax-ns#"
   xmlns:svg="http://www.w3.org/2000/svg"
   xmlns="http://www.w3.org/2000/svg"
   xmlns:xlink="http://www.w3.org/1999/xlink"
   xmlns:sodipodi="http://sodipodi.sourceforge.net/DTD/sodipodi-0.dtd"
   xmlns:inkscape="http://www.inkscape.org/namespaces/inkscape"
   width="512px"
   height="128px"
   viewBox="0 0 512 128"
   version="1.1"
   id="SVGRoot"
   inkscape:version="0.92.3 (2405546, 2018-03-11)"
   sodipodi:docname="player.svg">
  <sodipodi:namedview
     id="base"
     pagecolor="#ffffff"
     bordercolor="#666666"
     borderopacity="1.0"
     inkscape:pageopacity="0.0"
     inkscape:pageshadow="2"
     inkscape:zoom="64"
     inkscape:cx="227.75161"
     inkscape:cy="99.945539"
     inkscape:document-units="px"
     inkscape:current-layer="g180"
     showgrid="true"
     inkscape:window-width="1323"
     inkscape:window-height="713"
     inkscape:window-x="0"
     inkscape:window-y="27"
     inkscape:window-maximized="1"
     inkscape:pagecheckerboard="true"
     inkscape:snap-global="false"
     showguides="true"
     inkscape:guide-bbox="true">
    <inkscape:grid
       type="xygrid"
       id="grid170"
       empspacing="4" />
    <sodipodi:guide
       position="63.828292,109.11188"
       orientation="1,0"
       id="guide1058"
       inkscape:locked="false" />
    <sodipodi:guide
       position="67.278469,64.259564"
       orientation="0,1"
       id="guide1060"
       inkscape:locked="false" />
    <sodipodi:guide
       position="32.02033,109.47903"
       orientation="1,0"
       id="guide1080"
       inkscape:locked="false" />
    <sodipodi:guide
       position="86.302414,96.060991"
       orientation="0,1"
       id="guide1082"
       inkscape:locked="false" />
    <sodipodi:guide
       position="127.77637,126.25159"
       orientation="1,0"
       id="guide2234"
       inkscape:locked="false" />
    <sodipodi:guide
       position="160.10165,122.89708"
       orientation="1,0"
       id="guide2236"
       inkscape:locked="false" />
    <sodipodi:guide
       position="95.958074,129.43558"
       orientation="1,0"
       id="guide2238"
       inkscape:locked="false" />
  </sodipodi:namedview>
  <defs
     id="defs112">
    <linearGradient
       inkscape:collect="always"
       id="linearGradient2480">
      <stop
         style="stop-color:#9e0000;stop-opacity:1"
         offset="0"
         id="stop2476" />
      <stop
         style="stop-color:#380000;stop-opacity:1"
         offset="1"
         id="stop2478" />
    </linearGradient>
    <inkscape:path-effect
       is_visible="true"
       id="path-effect2320"
       effect="spiro" />
    <inkscape:path-effect
       is_visible="true"
       id="path-effect2316"
       effect="spiro" />
    <inkscape:path-effect
       is_visible="true"
       id="path-effect2287"
       effect="spiro" />
    <inkscape:path-effect
       effect="spiro"
       id="path-effect2246"
       is_visible="true" />
    <inkscape:path-effect
       is_visible="true"
       id="path-effect2242"
       effect="spiro" />
    <inkscape:path-effect
       effect="spiro"
       id="path-effect2232"
       is_visible="true" />
    <inkscape:path-effect
       is_visible="true"
       id="path-effect2228"
       effect="spiro" />
    <inkscape:path-effect
       effect="spiro"
       id="path-effect2676"
       is_visible="true" />
    <inkscape:path-effect
       effect="spiro"
       id="path-effect2672"
       is_visible="true" />
    <linearGradient
       inkscape:collect="always"
       xlink:href="#linearGradient2480"
       id="linearGradient2482"
       x1="32.185997"
       y1="28.190691"
       x2="32.019039"
       y2="45.922256"
       gradientUnits="userSpaceOnUse" />
    <linearGradient
       inkscape:collect="always"
       xlink:href="#linearGradient2480"
       id="linearGradient140"
       gradientUnits="userSpaceOnUse"
       x1="32.185997"
       y1="28.190691"
       x2="32.019039"
       y2="45.922256" />
    <linearGradient
       inkscape:collect="always"
       xlink:href="#linearGradient2480"
       id="linearGradient190"
       gradientUnits="userSpaceOnUse"
       x1="32.185997"
       y1="28.190691"
       x2="32.019039"
       y2="45.922256" />
    <linearGradient
       inkscape:collect="always"
       xlink:href="#linearGradient2480"
       id="linearGradient192"
       gradientUnits="userSpaceOnUse"
       x1="32.185997"
       y1="28.190691"
       x2="32.019039"
       y2="45.922256" />
  </defs>
  <metadata
     id="metadata115">
    <rdf:RDF>
      <cc:Work
         rdf:about="">
        <dc:format>image/svg+xml</dc:format>
        <dc:type
           rdf:resource="http://purl.org/dc/dcmitype/StillImage" />
        <dc:title />
      </cc:Work>
    </rdf:RDF>
  </metadata>
  <g
     id="layer1"
     inkscape:groupmode="layer"
     inkscape:label="Layer 1">
    <path
       inkscape:connector-curvature="0"
       id="path2549"
       d="m 31.882075,13.032237 a 16.353773,18.090987 0 0 0 -16.353912,18.091103 16.353773,18.090987 0 0 0 0.02344,0.74342 16.653295,4.9121231 0 0 0 16.390214,4.04916 16.653295,4.9121231 0 0 0 16.251814,-3.8563 16.353773,18.090987 0 0 0 0.04235,-0.93628 A 16.353773,18.090987 0 0 0 31.88207,13.032237 Z"
       style="opacity:1;vector-effect:none;fill:#89cfd4;fill-opacity:0.54022983;stroke:#18686c;stroke-width:0.55000001;stroke-linecap:butt;stroke-linejoin:miter;stroke-miterlimit:4;stroke-dasharray:none;stroke-dashoffset:0;stroke-opacity:1;paint-order:normal" />
    <path
       style="opacity:1;vector-effect:none;fill:#550000;fill-opacity:0.9885057;stroke:#380000;stroke-width:1.75;stroke-linecap:butt;stroke-linejoin:miter;stroke-miterlimit:4;stroke-dasharray:none;stroke-dashoffset:0;stroke-opacity:1;paint-order:normal"
       d="m 14.830867,42.94105 a 17.252335,5.7507778 0 0 0 17.110955,5.07543 17.252335,5.7507778 0 0 0 17.10793,-5.0482 29.65245,7.3082807 0 0 1 -17.048184,1.33408 29.65245,7.3082807 0 0 1 -17.170701,-1.36131 z"
       id="path2443"
       inkscape:connector-curvature="0" />
    <path
       style="opacity:1;vector-effect:none;fill:#086d1a;fill-opacity:1;stroke:none;stroke-width:1.75;stroke-linecap:butt;stroke-linejoin:miter;stroke-miterlimit:4;stroke-dasharray:none;stroke-dashoffset:0;stroke-opacity:1;paint-order:normal"
       d="m 31.88872,27.680638 a 20.906473,7.5134316 0 0 0 -16.345703,2.842051 16.353773,18.447611 0 0 0 -0.01563,0.505873 16.353773,18.447611 0 0 0 0.02344,0.758811 16.653295,5.0089548 0 0 0 16.390625,4.128641 16.653295,5.0089548 0 0 0 16.251953,-3.931471 16.353773,18.447611 0 0 0 0.04297,-0.955981 16.353773,18.447611 0 0 0 -0.02344,-0.523797 20.906473,7.5134316 0 0 0 -16.324219,-2.824127 z"
       id="path2484"
       inkscape:connector-curvature="0" />
    <g
       id="g2547"
       transform="matrix(0.84794438,0,0,0.84794438,42.001712,-21.696474)"
       style="stroke-width:1.1793226">
      <path
         inkscape:connector-curvature="0"
         id="path7"
         d="m -15.970703,49.072266 c -0.328412,0.04316 -0.627862,0.185572 -0.818359,0.49414 -0.252016,0.515935 -0.189874,1.054003 -0.03906,1.59375 0.05159,0.138906 0.10466,0.277111 0.15625,0.416016 0.402825,0.849308 0.981644,1.571989 1.527344,2.333984 0.327419,0.502044 0.639534,0.99044 0.708984,1.597656 0,0.867168 -0.560441,1.419519 -1.1875,1.941407 -0.228202,0.170654 -0.227775,0.170598 -1.763672,1.24414 -1.069573,0.698495 -2.212929,1.104689 -3.451172,1.402344 -0.170656,0.03373 -0.339172,0.06975 -0.505859,0.105469 -1.744258,0.309563 -3.513303,0.452266 -5.273438,0.630859 -1.678776,0.196454 -3.388786,0.401564 -4.99414,0.947266 -0.410765,0.152794 -0.790721,0.336686 -1.181641,0.537109 -0.49578,0.289325 -0.974568,0.607558 -1.464843,0.90625 v 4.960938 c 0.06203,0.04007 0.125199,0.07984 0.185546,0.121094 1.019964,0.835412 1.49461,2.042414 1.712891,3.318359 0.04366,0.390918 0.03914,0.746015 -0.08984,1.123047 -0.0079,0.03969 -0.01754,0.0775 -0.02344,0.117187 -0.742154,0.02182 -1.336094,0.479364 -1.574219,1.169922 -0.07343,0.369094 -0.08104,0.740287 -0.01953,1.109375 0.0893,0.29567 0.215626,0.490485 0.414062,0.722656 0.462359,0.432587 0.994253,0.552419 1.607422,0.574219 4.867657,0.03969 4.868144,0.04082 5.675781,0.05273 0.271859,-0.0025 0.542595,-0.0039 0.814453,-0.0039 0.607217,-0.09128 0.851453,-0.545975 0.982422,-1.099609 0.09128,-0.750089 -0.146223,-1.52227 -0.783203,-1.96875 -0.277813,-0.152794 -0.581282,-0.265766 -0.876953,-0.38086 -0.05556,-0.02779 -0.112435,-0.05803 -0.166016,-0.09375 -0.0119,-0.128985 -0.02325,-0.25578 -0.03516,-0.384765 0,-0.38497 0.03246,-0.74592 0.08008,-1.128906 0.226218,-1.141006 0.702066,-2.433679 1.761719,-3.048829 0.424655,-0.206379 0.820971,-0.230321 1.275391,-0.115234 1.30373,0.450455 1.90511,1.938475 2.349609,3.117188 0.180577,0.539749 0.320766,1.09278 0.416016,1.65039 -0.02182,-0.05358 -0.0446,-0.108556 -0.06445,-0.160156 -0.04564,0.01588 -0.04489,0.01753 -0.294922,0.144531 -0.152796,0.02183 -0.292768,0.07508 -0.429688,0.144531 -0.736199,0.502048 -0.78906,1.481768 -0.541015,2.267579 0.03771,0.07342 0.07558,0.149209 0.113281,0.224609 0.253999,0.379017 0.553457,0.575293 1.003906,0.632812 1.869272,0.0079 3.742026,0.01549 5.613281,0.02539 0.321468,-0.01786 0.637797,-0.08229 0.941407,-0.189453 0.38298,-0.156763 0.68936,-0.367951 0.943359,-0.691406 0.257968,-0.386949 0.303734,-0.822952 0.240234,-1.275391 -0.01786,-0.06349 -0.0349,-0.127916 -0.05078,-0.191406 -0.192484,-0.494109 -0.567095,-0.777406 -1.019531,-1.021485 -0.289718,-0.123031 -0.571392,-0.200292 -0.875,-0.257812 0.04366,-0.307572 0.185936,-0.618423 0.285156,-0.912109 0.56356,-1.547801 1.145893,-3.092635 1.679688,-4.652344 0.0079,0.01985 0.0096,0.02007 0.265625,4.080078 0.595308,1.230306 1.191769,2.463053 1.789062,3.693359 0.660795,-1.141013 1.3235492,-2.282853 1.9863282,-3.421875 -0.9366199,-2.641191 -1.8808982,-5.304137 -3.1191402,-7.820312 0,-0.03969 1.08e-4,-0.03963 0.117187,-0.748047 0.517916,1.204507 1.015488,2.47452 1.892578,3.472656 0.3929024,0.371102 0.780504,0.620717 1.324219,0.396485 0.557604,-0.317495 1.0058771,-0.870943 1.3769531,-1.376953 1.395008,-2.09152 1.8844558,-4.60778 2.1523438,-7.066407 0.063499,-0.752073 0.092314,-1.507723 0.1835937,-2.257812 0.263921,-1.474383 0.8027064,-2.884962 1.0527344,-4.361328 0.097234,-0.803668 0.2661214,-1.911582 -0.5097656,-2.441407 -0.789776,-0.39489 -1.4839714,0.131535 -2.0058594,0.708985 -0.527841,0.636981 -0.9576904,1.362144 -1.4121094,2.054687 -0.327422,0.464341 -0.6407512,0.999003 -1.1289062,1.310547 -0.367106,0.128983 -0.7871102,-0.29372 -1.0351564,-0.494141 -1.527959,-1.347383 -2.933886,-2.9673 -4.90039,-3.679687 -0.307578,-0.0883 -0.665729,-0.142769 -0.994141,-0.09961 z"
         style="clip-rule:evenodd;fill:#1c1b17;fill-rule:evenodd;stroke-width:0.17814669;image-rendering:optimizeQuality;shape-rendering:geometricPrecision;text-rendering:geometricPrecision" />
      <path
         style="clip-rule:evenodd;fill:#c5c6c6;fill-rule:evenodd;stroke-width:0.17814669;image-rendering:optimizeQuality;shape-rendering:geometricPrecision;text-rendering:geometricPrecision"
         inkscape:connector-curvature="0"
         id="path9"
         d="m -10.91158,73.494971 c -0.154779,-0.323454 -0.305591,-0.644918 -0.458386,-0.966389 1.4743821,-1.559708 1.4743821,-1.559708 1.4882721,-1.565662 0.05556,0.154778 0.111124,0.311547 0.166687,0.46831 -0.004,0.01191 -0.0079,0.02583 -0.01191,0.03969 -1.1211651,1.926817 -1.1211651,1.926817 -1.1707751,2.024055 -0.0059,0 -0.0099,0 -0.01389,0 z m -1.281897,-3.82982 c -0.0893,-1.466446 -0.0893,-1.466446 -0.09327,-1.639086 0.01191,0.0099 0.01191,0.0099 0.02778,0.0099 0.321468,-0.349255 0.642933,-0.696512 0.964401,-1.041797 0.156763,0.436563 0.317498,0.875105 0.476247,1.311668 -0.002,0.0079 -0.004,0.01783 -0.004,0.02778 -1.125133,1.099337 -1.125133,1.099337 -1.371194,1.331513 z"
         class="fil1" />
      <path
         inkscape:connector-curvature="0"
         id="path11"
         d="m -15.794922,50.029297 c -0.04837,7.45e-4 -0.09384,0.01497 -0.15039,0.05664 -0.121046,0.321466 0.06658,0.723736 0.179687,1.027343 0.551654,1.067588 1.405316,1.942178 1.960937,3.009766 0.180577,0.40481 0.298174,0.786001 0.339844,1.228515 0,0.206374 -0.0095,0.410814 -0.02734,0.617188 -0.08334,0.486169 -0.240204,0.858612 -0.490234,1.279297 -0.08731,0.111124 -0.172482,0.222828 -0.257812,0.335937 -0.583405,0.633011 -1.301381,1.103739 -2.007813,1.585938 -0.01588,0.08334 0.104996,0.297556 0.134766,0.378906 0.547683,1.121167 1.456599,2.026114 2.476562,2.72461 0.273841,0.168671 0.273533,0.167739 0.515625,0.30664 0.0099,0.002 0.02325,0.0074 0.03516,0.01172 0.02183,-0.06927 0.114272,-0.09217 0.175782,-0.06836 0.05953,-0.384964 0.08954,-0.77903 0.109375,-1.167969 0,-0.303609 -0.0373,-0.627583 0.222656,-0.835938 0.553637,-0.275832 0.816814,0.282565 1.039063,0.695313 0.208358,0.48815 0.208816,0.489585 0.839843,2.019531 0.351233,0.791759 0.693112,1.588582 1.2050784,2.289063 0.093264,0.109139 0.1951411,0.266551 0.3300781,0.332031 0.474263,-0.331387 0.832798,-0.82069 1.15625,-1.292969 0.51395,-0.827481 0.8489549,-1.729552 1.1386719,-2.65625 0.392904,-1.410884 0.6093301,-2.8384 0.7363281,-4.294922 0.0516,-0.887012 0.050345,-0.886768 0.078125,-1.255859 0.07739,-0.6727 0.2064545,-1.325567 0.3671875,-1.984375 0.174624,-0.636981 0.3507368,-1.273207 0.5273438,-1.908203 0.156766,-0.644918 0.3289706,-1.317599 0.2753906,-1.986329 -0.015875,-0.07144 -0.043486,-0.316151 -0.1347656,-0.332031 -0.482201,0.208358 -0.7277068,0.520659 -1.0273438,0.945313 -0.702465,1.079494 -0.7013151,1.079301 -1.0644531,1.625 -0.460373,0.633013 -0.9621772,1.36158 -1.7519531,1.59375 -0.4901361,0.107156 -0.8975488,-0.05094 -1.3261718,-0.289063 -0.736198,-0.496091 -1.360911,-1.123254 -2.007813,-1.730469 -0.837402,-0.765964 -1.698631,-1.478549 -2.728515,-1.972656 -0.228201,-0.09723 -0.463017,-0.198192 -0.703125,-0.263672 -0.06747,-0.0129 -0.117647,-0.02418 -0.166016,-0.02344 z m -1.3125,9.724609 c -1.244197,0.754058 -2.645633,1.156005 -4.064453,1.419922 -1.78196,0.295671 -3.586959,0.448328 -5.382813,0.628906 -1.514072,0.186525 -3.059067,0.37544 -4.517578,0.84375 -0.321468,0.125016 -0.641672,0.26505 -0.947265,0.425782 -0.698497,0.410764 -1.371722,0.878393 -2.076172,1.283203 -0.05399,0.02606 -0.10816,0.04262 -0.162109,0.06641 v 2.589844 c 0.250312,0.115067 0.476998,0.238202 0.71289,0.390625 1.514073,1.166806 2.264917,3.193039 2.185547,5.074218 -0.0635,0.615156 -0.205221,1.099579 -0.816406,1.34961 -0.101203,0.004 -0.201533,0.008 -0.302735,0.01172 -0.41275,0.101201 -0.53511,0.345567 -0.662109,0.726562 0,0.115093 0.04436,0.21709 0.08008,0.322266 0.08533,0.200417 0.188563,0.322281 0.369141,0.445312 0.156765,0.07937 0.301937,0.112906 0.476562,0.134766 5.425262,0.04561 5.424753,0.04668 6.234375,0.05859 0.101202,-0.0024 0.203453,-0.0041 0.306641,-0.0059 0.05159,-0.07144 0.08745,-0.139289 0.115234,-0.224609 0.07342,-0.458387 -0.02519,-0.759514 -0.410156,-1.023438 -0.289718,-0.123025 -0.589407,-0.232002 -0.865234,-0.382812 -0.259952,-0.182562 -0.387017,-0.35869 -0.492188,-0.650391 -0.202406,-0.896929 -0.03478,-1.886677 0.189453,-2.757812 0.289717,-0.912806 0.67694,-1.713707 1.347657,-2.40625 0.06747,-0.06151 0.133675,-0.124037 0.203124,-0.185547 0.474264,-0.369094 0.912597,-0.556996 1.501954,-0.658203 0.184547,-0.01191 0.185704,-0.01172 0.423828,-0.01172 0.507998,0.02579 0.928578,0.181735 1.371094,0.423828 0.519903,0.345279 0.92205,0.773349 1.283203,1.275391 0.408781,0.619125 0.736642,1.285784 0.964843,1.990234 0.206375,0.676666 0.375453,1.360067 0.470704,2.060547 0,0.23614 8.27e-4,0.438594 -0.175782,0.617188 -0.277809,0.218277 -0.654721,0.339091 -1,0.388671 -0.206373,0.07342 -0.243459,0.374047 -0.287109,0.558594 -0.01191,0.271856 0.05775,0.697756 0.359375,0.791016 1.801803,0.0079 3.602462,0.01549 5.40625,0.02539 0.525854,-0.04168 1.153876,-0.248785 1.304687,-0.822265 0,-0.621104 -0.850268,-0.82886 -1.304687,-0.90625 -0.184552,-0.01185 -0.184302,-0.01147 -0.263672,-0.02539 -0.781839,-0.23614 -0.334377,-1.488249 -0.185547,-1.986328 0.529824,-1.565662 1.133989,-3.110207 1.679688,-4.669922 0.315515,-0.952491 0.599703,-1.914415 0.841797,-2.884765 -0.0079,-0.121048 -0.01548,-0.240344 -0.02149,-0.357422 -0.126998,-0.06549 -0.255846,-0.127944 -0.380859,-0.189454 -0.418702,-0.240103 -0.822065,-0.499376 -1.207032,-0.787109 -0.144858,-0.117077 -0.286813,-0.236407 -0.429687,-0.355469 -0.492122,-0.456402 -0.929736,-0.94038 -1.298828,-1.501953 -0.194468,-0.367109 -0.393641,-0.734334 -0.574219,-1.109375 z m 4.853516,4.705078 c -0.0099,0.01786 -0.0086,0.01671 -0.205078,0.816407 0.006,0.206371 0.0062,0.206586 0.109375,1.847656 0.261937,-0.281779 0.523188,-0.563924 0.787109,-0.845703 0,-0.0079 0.0019,-0.01538 0.0039,-0.02148 -0.228204,-0.599279 -0.455204,-1.201564 -0.695312,-1.796875 z m 1.685547,4.558594 c -0.519905,0.504027 -1.040642,1.011562 -1.560547,1.517578 -0.002,0.06945 -4e-4,0.06769 0.02539,0.482422 0.134937,0.283763 0.273236,0.569721 0.410157,0.855469 0.498076,-0.525857 0.996064,-1.052269 1.49414,-1.578125 0.04167,0 0.08348,0.05431 0.115235,0.08008 -0.162719,-0.454418 -0.323642,-0.906973 -0.484375,-1.357422 z"
         style="clip-rule:evenodd;fill:#fefefe;fill-rule:evenodd;stroke-width:0.17814669;image-rendering:optimizeQuality;shape-rendering:geometricPrecision;text-rendering:geometricPrecision" />
      <path
         style="clip-rule:evenodd;display:inline;fill:#e31e24;fill-opacity:1;fill-rule:evenodd;stroke-width:0.17814669;image-rendering:optimizeQuality;shape-rendering:geometricPrecision;text-rendering:geometricPrecision"
         inkscape:connector-curvature="0"
         id="path13"
         d="m -10.70719,60.614465 c -0.252014,-0.04165 -0.386951,-0.125016 -0.583404,-0.283763 -0.750087,-0.867167 -0.761996,-2.355441 -0.103185,-3.274202 0.371076,-0.446481 0.85526,-0.525856 1.299759,-0.130967 0.5357781,0.581418 0.6369801,1.395008 0.5576051,2.157003 -0.101204,0.611185 -0.353216,1.321589 -1.0080571,1.514068 -0.05556,0.0061 -0.109139,0.01191 -0.162718,0.01789 z m 3.2960291,-0.252016 c -0.17264,-0.04366 -0.279795,-0.09723 -0.416717,-0.210341 -0.66873,-0.706434 -0.646903,-1.940708 -0.142874,-2.7285 0.327419,-0.398857 0.71437,-0.492123 1.121165,-0.142875 0.402828,0.484186 0.492122,1.017979 0.480217,1.637101 -0.05953,0.553639 -0.277812,1.331506 -0.916778,1.440645 -0.04167,0 -0.08334,0.0018 -0.125013,0.0043 z"
         class="fil3" />
    </g>
    <path
       style="opacity:1;vector-effect:none;fill:#7e0000;fill-opacity:1;stroke:url(#linearGradient2482);stroke-width:1.75;stroke-linecap:butt;stroke-linejoin:miter;stroke-miterlimit:4;stroke-dasharray:none;stroke-dashoffset:0;stroke-opacity:1;paint-order:normal"
       d="m 48.587661,30.9388 a 16.653295,4.9121231 0 0 1 0.0076,0.065 16.653295,4.9121231 0 0 1 -16.653402,4.91208 16.653295,4.9121231 0 0 1 -16.653402,-4.91208 16.653295,4.9121231 0 0 1 0.0068,-0.0386 A 29.65245,7.3082807 0 0 0 2.3491668,36.99355 29.65245,7.3082807 0 0 0 32.001598,44.30229 29.65245,7.3082807 0 0 0 61.654031,36.99355 29.65245,7.3082807 0 0 0 48.58769,30.93873 Z"
       id="path2417"
       inkscape:connector-curvature="0" />
    <path
       style="opacity:1;vector-effect:none;fill:#89cfd4;fill-opacity:0.31609198;stroke:#18686c;stroke-width:0.55000001;stroke-linecap:butt;stroke-linejoin:miter;stroke-miterlimit:4;stroke-dasharray:none;stroke-dashoffset:0;stroke-opacity:1;paint-order:normal"
       d="m 31.882075,13.032237 a 16.353773,18.090987 0 0 0 -16.353912,18.091103 16.353773,18.090987 0 0 0 0.02344,0.74342 16.653295,4.9121231 0 0 0 16.390214,4.04916 16.653295,4.9121231 0 0 0 16.251814,-3.8563 16.353773,18.090987 0 0 0 0.04235,-0.93628 A 16.353773,18.090987 0 0 0 31.88207,13.032237 Z"
       id="path2427"
       inkscape:connector-curvature="0" />
    <path
       id="path996"
       style="fill:#ffffff;fill-rule:evenodd;stroke:none;stroke-width:0.99999988px;stroke-linecap:butt;stroke-linejoin:miter;stroke-opacity:1"
       d="m 27.010686,17.837408 1.32748,2.011543 c 0.506777,-0.225878 0.9193,-0.29149 1.467751,-0.419208 l -0.668145,-2.253195 c -0.613438,0.05984 -1.456527,0.360599 -2.127086,0.66086 z m -4.437907,4.256017 2.294345,0.982235 c 0.828171,-1.49366 1.54839,-2.178389 3.006933,-3.006422 l -1.379798,-1.970657 c -1.740267,1.004713 -3.087739,2.136039 -3.92148,3.994844 z"
       inkscape:connector-curvature="0" />
    <path
       inkscape:connector-curvature="0"
       d="m 22.944046,40.531602 -0.189744,-0.822396 c 0.680905,0.07705 1.145533,0.09324 1.793945,0.130691 l 1.036049,0.902092 c -0.662319,-0.0092 -1.738229,-0.107898 -2.64025,-0.210387 z m -7.689621,-1.570955 1.56293,-0.439973 c 1.96518,0.568334 3.208588,0.820937 5.303184,1.112695 l 0.106137,0.807524 c -2.51187,-0.354701 -4.724667,-0.768374 -6.972251,-1.480246 z"
       style="fill:#ffffff;fill-rule:evenodd;stroke:none;stroke-width:0.99999994px;stroke-linecap:butt;stroke-linejoin:miter;stroke-opacity:1"
       id="path2474" />
    <path
       style="opacity:1;vector-effect:none;fill:#89cfd4;fill-opacity:0.54022983;stroke:#18686c;stroke-width:0.55000001;stroke-linecap:butt;stroke-linejoin:miter;stroke-miterlimit:4;stroke-dasharray:none;stroke-dashoffset:0;stroke-opacity:1;paint-order:normal"
       d="m 95.802473,13.032237 a 16.353773,18.090987 0 0 0 -16.353912,18.091103 16.353773,18.090987 0 0 0 0.02344,0.74342 16.653295,4.9121231 0 0 0 16.390214,4.04916 16.653295,4.9121231 0 0 0 16.251805,-3.8563 16.353773,18.090987 0 0 0 0.0423,-0.93628 16.353773,18.090987 0 0 0 -16.353902,-18.091103 z"
       id="path116"
       inkscape:connector-curvature="0" />
    <path
       inkscape:connector-curvature="0"
       id="path118"
       d="m 78.751265,42.94105 a 17.252335,5.7507778 0 0 0 17.110955,5.07543 17.252335,5.7507778 0 0 0 17.10792,-5.0482 29.65245,7.3082807 0 0 1 -17.048174,1.33408 29.65245,7.3082807 0 0 1 -17.170701,-1.36131 z"
       style="opacity:1;vector-effect:none;fill:#550000;fill-opacity:0.9885057;stroke:#380000;stroke-width:1.75;stroke-linecap:butt;stroke-linejoin:miter;stroke-miterlimit:4;stroke-dasharray:none;stroke-dashoffset:0;stroke-opacity:1;paint-order:normal" />
    <path
       inkscape:connector-curvature="0"
       id="path120"
       d="m 95.809118,27.680638 a 20.906473,7.5134316 0 0 0 -16.345703,2.842051 16.353773,18.447611 0 0 0 -0.01563,0.505873 16.353773,18.447611 0 0 0 0.02344,0.758811 16.653295,5.0089548 0 0 0 16.390625,4.128641 16.653295,5.0089548 0 0 0 16.25195,-3.931471 16.353773,18.447611 0 0 0 0.043,-0.955981 16.353773,18.447611 0 0 0 -0.0234,-0.523797 20.906473,7.5134316 0 0 0 -16.324216,-2.824127 z"
       style="opacity:1;vector-effect:none;fill:#086d1a;fill-opacity:1;stroke:none;stroke-width:1.75;stroke-linecap:butt;stroke-linejoin:miter;stroke-miterlimit:4;stroke-dasharray:none;stroke-dashoffset:0;stroke-opacity:1;paint-order:normal" />
    <g
       style="stroke-width:1.1793226"
       transform="matrix(0.84794438,0,0,0.84794438,105.9221,-21.696474)"
       id="g130">
      <path
         style="clip-rule:evenodd;fill:#1c1b17;fill-rule:evenodd;stroke-width:0.17814669;image-rendering:optimizeQuality;shape-rendering:geometricPrecision;text-rendering:geometricPrecision"
         d="m -15.970703,49.072266 c -0.328412,0.04316 -0.627862,0.185572 -0.818359,0.49414 -0.252016,0.515935 -0.189874,1.054003 -0.03906,1.59375 0.05159,0.138906 0.10466,0.277111 0.15625,0.416016 0.402825,0.849308 0.981644,1.571989 1.527344,2.333984 0.327419,0.502044 0.639534,0.99044 0.708984,1.597656 0,0.867168 -0.560441,1.419519 -1.1875,1.941407 -0.228202,0.170654 -0.227775,0.170598 -1.763672,1.24414 -1.069573,0.698495 -2.212929,1.104689 -3.451172,1.402344 -0.170656,0.03373 -0.339172,0.06975 -0.505859,0.105469 -1.744258,0.309563 -3.513303,0.452266 -5.273438,0.630859 -1.678776,0.196454 -3.388786,0.401564 -4.99414,0.947266 -0.410765,0.152794 -0.790721,0.336686 -1.181641,0.537109 -0.49578,0.289325 -0.974568,0.607558 -1.464843,0.90625 v 4.960938 c 0.06203,0.04007 0.125199,0.07984 0.185546,0.121094 1.019964,0.835412 1.49461,2.042414 1.712891,3.318359 0.04366,0.390918 0.03914,0.746015 -0.08984,1.123047 -0.0079,0.03969 -0.01754,0.0775 -0.02344,0.117187 -0.742154,0.02182 -1.336094,0.479364 -1.574219,1.169922 -0.07343,0.369094 -0.08104,0.740287 -0.01953,1.109375 0.0893,0.29567 0.215626,0.490485 0.414062,0.722656 0.462359,0.432587 0.994253,0.552419 1.607422,0.574219 4.867657,0.03969 4.868144,0.04082 5.675781,0.05273 0.271859,-0.0025 0.542595,-0.0039 0.814453,-0.0039 0.607217,-0.09128 0.851453,-0.545975 0.982422,-1.099609 0.09128,-0.750089 -0.146223,-1.52227 -0.783203,-1.96875 -0.277813,-0.152794 -0.581282,-0.265766 -0.876953,-0.38086 -0.05556,-0.02779 -0.112435,-0.05803 -0.166016,-0.09375 -0.0119,-0.128985 -0.02325,-0.25578 -0.03516,-0.384765 0,-0.38497 0.03246,-0.74592 0.08008,-1.128906 0.226218,-1.141006 0.702066,-2.433679 1.761719,-3.048829 0.424655,-0.206379 0.820971,-0.230321 1.275391,-0.115234 1.30373,0.450455 1.90511,1.938475 2.349609,3.117188 0.180577,0.539749 0.320766,1.09278 0.416016,1.65039 -0.02182,-0.05358 -0.0446,-0.108556 -0.06445,-0.160156 -0.04564,0.01588 -0.04489,0.01753 -0.294922,0.144531 -0.152796,0.02183 -0.292768,0.07508 -0.429688,0.144531 -0.736199,0.502048 -0.78906,1.481768 -0.541015,2.267579 0.03771,0.07342 0.07558,0.149209 0.113281,0.224609 0.253999,0.379017 0.553457,0.575293 1.003906,0.632812 1.869272,0.0079 3.742026,0.01549 5.613281,0.02539 0.321468,-0.01786 0.637797,-0.08229 0.941407,-0.189453 0.38298,-0.156763 0.68936,-0.367951 0.943359,-0.691406 0.257968,-0.386949 0.303734,-0.822952 0.240234,-1.275391 -0.01786,-0.06349 -0.0349,-0.127916 -0.05078,-0.191406 -0.192484,-0.494109 -0.567095,-0.777406 -1.019531,-1.021485 -0.289718,-0.123031 -0.571392,-0.200292 -0.875,-0.257812 0.04366,-0.307572 0.185936,-0.618423 0.285156,-0.912109 0.56356,-1.547801 1.145893,-3.092635 1.679688,-4.652344 0.0079,0.01985 0.0096,0.02007 0.265625,4.080078 0.595308,1.230306 1.191769,2.463053 1.789062,3.693359 0.660795,-1.141013 1.3235492,-2.282853 1.9863282,-3.421875 -0.9366199,-2.641191 -1.8808982,-5.304137 -3.1191402,-7.820312 0,-0.03969 1.08e-4,-0.03963 0.117187,-0.748047 0.517916,1.204507 1.015488,2.47452 1.892578,3.472656 0.3929024,0.371102 0.780504,0.620717 1.324219,0.396485 0.557604,-0.317495 1.0058771,-0.870943 1.3769531,-1.376953 1.395008,-2.09152 1.8844558,-4.60778 2.1523438,-7.066407 0.063499,-0.752073 0.092314,-1.507723 0.1835937,-2.257812 0.263921,-1.474383 0.8027064,-2.884962 1.0527344,-4.361328 0.097234,-0.803668 0.2661214,-1.911582 -0.5097656,-2.441407 -0.789776,-0.39489 -1.4839714,0.131535 -2.0058594,0.708985 -0.527841,0.636981 -0.9576904,1.362144 -1.4121094,2.054687 -0.327422,0.464341 -0.6407512,0.999003 -1.1289062,1.310547 -0.367106,0.128983 -0.7871102,-0.29372 -1.0351564,-0.494141 -1.527959,-1.347383 -2.933886,-2.9673 -4.90039,-3.679687 -0.307578,-0.0883 -0.665729,-0.142769 -0.994141,-0.09961 z"
         id="path122"
         inkscape:connector-curvature="0" />
      <path
         class="fil1"
         d="m -10.91158,73.494971 c -0.154779,-0.323454 -0.305591,-0.644918 -0.458386,-0.966389 1.4743821,-1.559708 1.4743821,-1.559708 1.4882721,-1.565662 0.05556,0.154778 0.111124,0.311547 0.166687,0.46831 -0.004,0.01191 -0.0079,0.02583 -0.01191,0.03969 -1.1211651,1.926817 -1.1211651,1.926817 -1.1707751,2.024055 -0.0059,0 -0.0099,0 -0.01389,0 z m -1.281897,-3.82982 c -0.0893,-1.466446 -0.0893,-1.466446 -0.09327,-1.639086 0.01191,0.0099 0.01191,0.0099 0.02778,0.0099 0.321468,-0.349255 0.642933,-0.696512 0.964401,-1.041797 0.156763,0.436563 0.317498,0.875105 0.476247,1.311668 -0.002,0.0079 -0.004,0.01783 -0.004,0.02778 -1.125133,1.099337 -1.125133,1.099337 -1.371194,1.331513 z"
         id="path124"
         inkscape:connector-curvature="0"
         style="clip-rule:evenodd;fill:#c5c6c6;fill-rule:evenodd;stroke-width:0.17814669;image-rendering:optimizeQuality;shape-rendering:geometricPrecision;text-rendering:geometricPrecision" />
      <path
         style="clip-rule:evenodd;fill:#fefefe;fill-rule:evenodd;stroke-width:0.17814669;image-rendering:optimizeQuality;shape-rendering:geometricPrecision;text-rendering:geometricPrecision"
         d="m -15.794922,50.029297 c -0.04837,7.45e-4 -0.09384,0.01497 -0.15039,0.05664 -0.121046,0.321466 0.06658,0.723736 0.179687,1.027343 0.551654,1.067588 1.405316,1.942178 1.960937,3.009766 0.180577,0.40481 0.298174,0.786001 0.339844,1.228515 0,0.206374 -0.0095,0.410814 -0.02734,0.617188 -0.08334,0.486169 -0.240204,0.858612 -0.490234,1.279297 -0.08731,0.111124 -0.172482,0.222828 -0.257812,0.335937 -0.583405,0.633011 -1.301381,1.103739 -2.007813,1.585938 -0.01588,0.08334 0.104996,0.297556 0.134766,0.378906 0.547683,1.121167 1.456599,2.026114 2.476562,2.72461 0.273841,0.168671 0.273533,0.167739 0.515625,0.30664 0.0099,0.002 0.02325,0.0074 0.03516,0.01172 0.02183,-0.06927 0.114272,-0.09217 0.175782,-0.06836 0.05953,-0.384964 0.08954,-0.77903 0.109375,-1.167969 0,-0.303609 -0.0373,-0.627583 0.222656,-0.835938 0.553637,-0.275832 0.816814,0.282565 1.039063,0.695313 0.208358,0.48815 0.208816,0.489585 0.839843,2.019531 0.351233,0.791759 0.693112,1.588582 1.2050784,2.289063 0.093264,0.109139 0.1951411,0.266551 0.3300781,0.332031 0.474263,-0.331387 0.832798,-0.82069 1.15625,-1.292969 0.51395,-0.827481 0.8489549,-1.729552 1.1386719,-2.65625 0.392904,-1.410884 0.6093301,-2.8384 0.7363281,-4.294922 0.0516,-0.887012 0.050345,-0.886768 0.078125,-1.255859 0.07739,-0.6727 0.2064545,-1.325567 0.3671875,-1.984375 0.174624,-0.636981 0.3507368,-1.273207 0.5273438,-1.908203 0.156766,-0.644918 0.3289706,-1.317599 0.2753906,-1.986329 -0.015875,-0.07144 -0.043486,-0.316151 -0.1347656,-0.332031 -0.482201,0.208358 -0.7277068,0.520659 -1.0273438,0.945313 -0.702465,1.079494 -0.7013151,1.079301 -1.0644531,1.625 -0.460373,0.633013 -0.9621772,1.36158 -1.7519531,1.59375 -0.4901361,0.107156 -0.8975488,-0.05094 -1.3261718,-0.289063 -0.736198,-0.496091 -1.360911,-1.123254 -2.007813,-1.730469 -0.837402,-0.765964 -1.698631,-1.478549 -2.728515,-1.972656 -0.228201,-0.09723 -0.463017,-0.198192 -0.703125,-0.263672 -0.06747,-0.0129 -0.117647,-0.02418 -0.166016,-0.02344 z m -1.3125,9.724609 c -1.244197,0.754058 -2.645633,1.156005 -4.064453,1.419922 -1.78196,0.295671 -3.586959,0.448328 -5.382813,0.628906 -1.514072,0.186525 -3.059067,0.37544 -4.517578,0.84375 -0.321468,0.125016 -0.641672,0.26505 -0.947265,0.425782 -0.698497,0.410764 -1.371722,0.878393 -2.076172,1.283203 -0.05399,0.02606 -0.10816,0.04262 -0.162109,0.06641 v 2.589844 c 0.250312,0.115067 0.476998,0.238202 0.71289,0.390625 1.514073,1.166806 2.264917,3.193039 2.185547,5.074218 -0.0635,0.615156 -0.205221,1.099579 -0.816406,1.34961 -0.101203,0.004 -0.201533,0.008 -0.302735,0.01172 -0.41275,0.101201 -0.53511,0.345567 -0.662109,0.726562 0,0.115093 0.04436,0.21709 0.08008,0.322266 0.08533,0.200417 0.188563,0.322281 0.369141,0.445312 0.156765,0.07937 0.301937,0.112906 0.476562,0.134766 5.425262,0.04561 5.424753,0.04668 6.234375,0.05859 0.101202,-0.0024 0.203453,-0.0041 0.306641,-0.0059 0.05159,-0.07144 0.08745,-0.139289 0.115234,-0.224609 0.07342,-0.458387 -0.02519,-0.759514 -0.410156,-1.023438 -0.289718,-0.123025 -0.589407,-0.232002 -0.865234,-0.382812 -0.259952,-0.182562 -0.387017,-0.35869 -0.492188,-0.650391 -0.202406,-0.896929 -0.03478,-1.886677 0.189453,-2.757812 0.289717,-0.912806 0.67694,-1.713707 1.347657,-2.40625 0.06747,-0.06151 0.133675,-0.124037 0.203124,-0.185547 0.474264,-0.369094 0.912597,-0.556996 1.501954,-0.658203 0.184547,-0.01191 0.185704,-0.01172 0.423828,-0.01172 0.507998,0.02579 0.928578,0.181735 1.371094,0.423828 0.519903,0.345279 0.92205,0.773349 1.283203,1.275391 0.408781,0.619125 0.736642,1.285784 0.964843,1.990234 0.206375,0.676666 0.375453,1.360067 0.470704,2.060547 0,0.23614 8.27e-4,0.438594 -0.175782,0.617188 -0.277809,0.218277 -0.654721,0.339091 -1,0.388671 -0.206373,0.07342 -0.243459,0.374047 -0.287109,0.558594 -0.01191,0.271856 0.05775,0.697756 0.359375,0.791016 1.801803,0.0079 3.602462,0.01549 5.40625,0.02539 0.525854,-0.04168 1.153876,-0.248785 1.304687,-0.822265 0,-0.621104 -0.850268,-0.82886 -1.304687,-0.90625 -0.184552,-0.01185 -0.184302,-0.01147 -0.263672,-0.02539 -0.781839,-0.23614 -0.334377,-1.488249 -0.185547,-1.986328 0.529824,-1.565662 1.133989,-3.110207 1.679688,-4.669922 0.315515,-0.952491 0.599703,-1.914415 0.841797,-2.884765 -0.0079,-0.121048 -0.01548,-0.240344 -0.02149,-0.357422 -0.126998,-0.06549 -0.255846,-0.127944 -0.380859,-0.189454 -0.418702,-0.240103 -0.822065,-0.499376 -1.207032,-0.787109 -0.144858,-0.117077 -0.286813,-0.236407 -0.429687,-0.355469 -0.492122,-0.456402 -0.929736,-0.94038 -1.298828,-1.501953 -0.194468,-0.367109 -0.393641,-0.734334 -0.574219,-1.109375 z m 4.853516,4.705078 c -0.0099,0.01786 -0.0086,0.01671 -0.205078,0.816407 0.006,0.206371 0.0062,0.206586 0.109375,1.847656 0.261937,-0.281779 0.523188,-0.563924 0.787109,-0.845703 0,-0.0079 0.0019,-0.01538 0.0039,-0.02148 -0.228204,-0.599279 -0.455204,-1.201564 -0.695312,-1.796875 z m 1.685547,4.558594 c -0.519905,0.504027 -1.040642,1.011562 -1.560547,1.517578 -0.002,0.06945 -4e-4,0.06769 0.02539,0.482422 0.134937,0.283763 0.273236,0.569721 0.410157,0.855469 0.498076,-0.525857 0.996064,-1.052269 1.49414,-1.578125 0.04167,0 0.08348,0.05431 0.115235,0.08008 -0.162719,-0.454418 -0.323642,-0.906973 -0.484375,-1.357422 z"
         id="path126"
         inkscape:connector-curvature="0" />
      <path
         class="fil3"
         d="m -10.70719,60.614465 c -0.252014,-0.04165 -0.386951,-0.125016 -0.583404,-0.283763 -0.750087,-0.867167 -0.761996,-2.355441 -0.103185,-3.274202 0.371076,-0.446481 0.85526,-0.525856 1.299759,-0.130967 0.5357781,0.581418 0.6369801,1.395008 0.5576051,2.157003 -0.101204,0.611185 -0.353216,1.321589 -1.0080571,1.514068 -0.05556,0.0061 -0.109139,0.01191 -0.162718,0.01789 z m 3.2960291,-0.252016 c -0.17264,-0.04366 -0.279795,-0.09723 -0.416717,-0.210341 -0.66873,-0.706434 -0.646903,-1.940708 -0.142874,-2.7285 0.327419,-0.398857 0.71437,-0.492123 1.121165,-0.142875 0.402828,0.484186 0.492122,1.017979 0.480217,1.637101 -0.05953,0.553639 -0.277812,1.331506 -0.916778,1.440645 -0.04167,0 -0.08334,0.0018 -0.125013,0.0043 z"
         id="path128"
         inkscape:connector-curvature="0"
         style="clip-rule:evenodd;display:inline;fill:#e31e24;fill-opacity:1;fill-rule:evenodd;stroke-width:0.17814669;image-rendering:optimizeQuality;shape-rendering:geometricPrecision;text-rendering:geometricPrecision" />
    </g>
    <path
       inkscape:connector-curvature="0"
       id="path132"
       d="m 112.50805,30.9388 a 16.653295,4.9121231 0 0 1 0.008,0.065 16.653295,4.9121231 0 0 1 -16.653393,4.91208 16.653295,4.9121231 0 0 1 -16.653402,-4.91208 16.653295,4.9121231 0 0 1 0.0068,-0.0386 29.65245,7.3082807 0 0 0 -12.946091,6.02835 29.65245,7.3082807 0 0 0 29.652432,7.30874 29.65245,7.3082807 0 0 0 29.652424,-7.30874 29.65245,7.3082807 0 0 0 -13.06634,-6.05482 z"
       style="opacity:1;vector-effect:none;fill:#7e0000;fill-opacity:1;stroke:url(#linearGradient140);stroke-width:1.75;stroke-linecap:butt;stroke-linejoin:miter;stroke-miterlimit:4;stroke-dasharray:none;stroke-dashoffset:0;stroke-opacity:1;paint-order:normal" />
    <path
       inkscape:connector-curvature="0"
       id="path134"
       d="m 95.802473,13.032237 a 16.353773,18.090987 0 0 0 -16.353912,18.091103 16.353773,18.090987 0 0 0 0.02344,0.74342 16.653295,4.9121231 0 0 0 16.390214,4.04916 16.653295,4.9121231 0 0 0 16.251805,-3.8563 16.353773,18.090987 0 0 0 0.0423,-0.93628 16.353773,18.090987 0 0 0 -16.353902,-18.091103 z"
       style="opacity:1;vector-effect:none;fill:#89cfd4;fill-opacity:0.31609198;stroke:#18686c;stroke-width:0.55000001;stroke-linecap:butt;stroke-linejoin:miter;stroke-miterlimit:4;stroke-dasharray:none;stroke-dashoffset:0;stroke-opacity:1;paint-order:normal" />
    <path
       inkscape:connector-curvature="0"
       d="m 90.931084,17.837408 1.32748,2.011543 c 0.506777,-0.225878 0.9193,-0.29149 1.467751,-0.419208 L 93.05817,17.176548 c -0.613438,0.05984 -1.456527,0.360599 -2.127086,0.66086 z m -4.437907,4.256017 2.294345,0.982235 c 0.828171,-1.49366 1.54839,-2.178389 3.006933,-3.006422 l -1.379798,-1.970657 c -1.740267,1.004713 -3.087739,2.136039 -3.92148,3.994844 z"
       style="fill:#ffffff;fill-rule:evenodd;stroke:none;stroke-width:0.99999988px;stroke-linecap:butt;stroke-linejoin:miter;stroke-opacity:1"
       id="path136" />
    <path
       id="path138"
       style="fill:#ffffff;fill-rule:evenodd;stroke:none;stroke-width:0.99999994px;stroke-linecap:butt;stroke-linejoin:miter;stroke-opacity:1"
       d="M 86.864444,40.531602 86.6747,39.709206 c 0.680905,0.07705 1.145533,0.09324 1.793945,0.130691 l 1.036049,0.902092 c -0.662319,-0.0092 -1.738229,-0.107898 -2.64025,-0.210387 z m -7.689621,-1.570955 1.56293,-0.439973 c 1.96518,0.568334 3.208588,0.820937 5.303184,1.112695 l 0.106137,0.807524 c -2.51187,-0.354701 -4.724667,-0.768374 -6.972251,-1.480246 z"
       inkscape:connector-curvature="0" />
    <path
       style="opacity:1;vector-effect:none;fill:#89cfd4;fill-opacity:0.54022983;stroke:#18686c;stroke-width:0.55000001;stroke-linecap:butt;stroke-linejoin:miter;stroke-miterlimit:4;stroke-dasharray:none;stroke-dashoffset:0;stroke-opacity:1;paint-order:normal"
       d="m 159.96583,13.032237 a 16.353773,18.090987 0 0 0 -16.35391,18.091103 16.353773,18.090987 0 0 0 0.0234,0.74342 16.653295,4.9121231 0 0 0 16.39022,4.04916 16.653295,4.9121231 0 0 0 16.25181,-3.8563 16.353773,18.090987 0 0 0 0.0423,-0.93628 16.353773,18.090987 0 0 0 -16.35391,-18.091103 z"
       id="path142"
       inkscape:connector-curvature="0" />
    <path
       inkscape:connector-curvature="0"
       id="path144"
       d="m 142.91462,42.94105 a 17.252335,5.7507778 0 0 0 17.11095,5.07543 17.252335,5.7507778 0 0 0 17.10793,-5.0482 29.65245,7.3082807 0 0 1 -17.04818,1.33408 29.65245,7.3082807 0 0 1 -17.1707,-1.36131 z"
       style="opacity:1;vector-effect:none;fill:#550000;fill-opacity:0.9885057;stroke:#380000;stroke-width:1.75;stroke-linecap:butt;stroke-linejoin:miter;stroke-miterlimit:4;stroke-dasharray:none;stroke-dashoffset:0;stroke-opacity:1;paint-order:normal" />
    <path
       inkscape:connector-curvature="0"
       id="path146"
       d="m 159.97247,27.680638 a 20.906473,7.5134316 0 0 0 -16.3457,2.842051 16.353773,18.447611 0 0 0 -0.0156,0.505873 16.353773,18.447611 0 0 0 0.0234,0.758811 16.653295,5.0089548 0 0 0 16.39062,4.128641 16.653295,5.0089548 0 0 0 16.25196,-3.931471 16.353773,18.447611 0 0 0 0.043,-0.955981 16.353773,18.447611 0 0 0 -0.0234,-0.523797 20.906473,7.5134316 0 0 0 -16.32422,-2.824127 z"
       style="opacity:1;vector-effect:none;fill:#086d1a;fill-opacity:1;stroke:none;stroke-width:1.75;stroke-linecap:butt;stroke-linejoin:miter;stroke-miterlimit:4;stroke-dasharray:none;stroke-dashoffset:0;stroke-opacity:1;paint-order:normal" />
    <g
       style="stroke-width:1.1793226"
       transform="matrix(0.84794438,0,0,0.84794438,170.08546,-21.696474)"
       id="g156">
      <path
         style="clip-rule:evenodd;fill:#1c1b17;fill-rule:evenodd;stroke-width:0.17814669;image-rendering:optimizeQuality;shape-rendering:geometricPrecision;text-rendering:geometricPrecision"
         d="m -15.970703,49.072266 c -0.328412,0.04316 -0.627862,0.185572 -0.818359,0.49414 -0.252016,0.515935 -0.189874,1.054003 -0.03906,1.59375 0.05159,0.138906 0.10466,0.277111 0.15625,0.416016 0.402825,0.849308 0.981644,1.571989 1.527344,2.333984 0.327419,0.502044 0.639534,0.99044 0.708984,1.597656 0,0.867168 -0.560441,1.419519 -1.1875,1.941407 -0.228202,0.170654 -0.227775,0.170598 -1.763672,1.24414 -1.069573,0.698495 -2.212929,1.104689 -3.451172,1.402344 -0.170656,0.03373 -0.339172,0.06975 -0.505859,0.105469 -1.744258,0.309563 -3.513303,0.452266 -5.273438,0.630859 -1.678776,0.196454 -3.388786,0.401564 -4.99414,0.947266 -0.410765,0.152794 -0.790721,0.336686 -1.181641,0.537109 -0.49578,0.289325 -0.974568,0.607558 -1.464843,0.90625 v 4.960938 c 0.06203,0.04007 0.125199,0.07984 0.185546,0.121094 1.019964,0.835412 1.49461,2.042414 1.712891,3.318359 0.04366,0.390918 0.03914,0.746015 -0.08984,1.123047 -0.0079,0.03969 -0.01754,0.0775 -0.02344,0.117187 -0.742154,0.02182 -1.336094,0.479364 -1.574219,1.169922 -0.07343,0.369094 -0.08104,0.740287 -0.01953,1.109375 0.0893,0.29567 0.215626,0.490485 0.414062,0.722656 0.462359,0.432587 0.994253,0.552419 1.607422,0.574219 4.867657,0.03969 4.868144,0.04082 5.675781,0.05273 0.271859,-0.0025 0.542595,-0.0039 0.814453,-0.0039 0.607217,-0.09128 0.851453,-0.545975 0.982422,-1.099609 0.09128,-0.750089 -0.146223,-1.52227 -0.783203,-1.96875 -0.277813,-0.152794 -0.581282,-0.265766 -0.876953,-0.38086 -0.05556,-0.02779 -0.112435,-0.05803 -0.166016,-0.09375 -0.0119,-0.128985 -0.02325,-0.25578 -0.03516,-0.384765 0,-0.38497 0.03246,-0.74592 0.08008,-1.128906 0.226218,-1.141006 0.702066,-2.433679 1.761719,-3.048829 0.424655,-0.206379 0.820971,-0.230321 1.275391,-0.115234 1.30373,0.450455 1.90511,1.938475 2.349609,3.117188 0.180577,0.539749 0.320766,1.09278 0.416016,1.65039 -0.02182,-0.05358 -0.0446,-0.108556 -0.06445,-0.160156 -0.04564,0.01588 -0.04489,0.01753 -0.294922,0.144531 -0.152796,0.02183 -0.292768,0.07508 -0.429688,0.144531 -0.736199,0.502048 -0.78906,1.481768 -0.541015,2.267579 0.03771,0.07342 0.07558,0.149209 0.113281,0.224609 0.253999,0.379017 0.553457,0.575293 1.003906,0.632812 1.869272,0.0079 3.742026,0.01549 5.613281,0.02539 0.321468,-0.01786 0.637797,-0.08229 0.941407,-0.189453 0.38298,-0.156763 0.68936,-0.367951 0.943359,-0.691406 0.257968,-0.386949 0.303734,-0.822952 0.240234,-1.275391 -0.01786,-0.06349 -0.0349,-0.127916 -0.05078,-0.191406 -0.192484,-0.494109 -0.567095,-0.777406 -1.019531,-1.021485 -0.289718,-0.123031 -0.571392,-0.200292 -0.875,-0.257812 0.04366,-0.307572 0.185936,-0.618423 0.285156,-0.912109 0.56356,-1.547801 1.145893,-3.092635 1.679688,-4.652344 0.0079,0.01985 0.0096,0.02007 0.265625,4.080078 0.595308,1.230306 1.191769,2.463053 1.789062,3.693359 0.660795,-1.141013 1.3235492,-2.282853 1.9863282,-3.421875 -0.9366199,-2.641191 -1.8808982,-5.304137 -3.1191402,-7.820312 0,-0.03969 1.08e-4,-0.03963 0.117187,-0.748047 0.517916,1.204507 1.015488,2.47452 1.892578,3.472656 0.3929024,0.371102 0.780504,0.620717 1.324219,0.396485 0.557604,-0.317495 1.0058771,-0.870943 1.3769531,-1.376953 1.395008,-2.09152 1.8844558,-4.60778 2.1523438,-7.066407 0.063499,-0.752073 0.092314,-1.507723 0.1835937,-2.257812 0.263921,-1.474383 0.8027064,-2.884962 1.0527344,-4.361328 0.097234,-0.803668 0.2661214,-1.911582 -0.5097656,-2.441407 -0.789776,-0.39489 -1.4839714,0.131535 -2.0058594,0.708985 -0.527841,0.636981 -0.9576904,1.362144 -1.4121094,2.054687 -0.327422,0.464341 -0.6407512,0.999003 -1.1289062,1.310547 -0.367106,0.128983 -0.7871102,-0.29372 -1.0351564,-0.494141 -1.527959,-1.347383 -2.933886,-2.9673 -4.90039,-3.679687 -0.307578,-0.0883 -0.665729,-0.142769 -0.994141,-0.09961 z"
         id="path148"
         inkscape:connector-curvature="0" />
      <path
         class="fil1"
         d="m -10.91158,73.494971 c -0.154779,-0.323454 -0.305591,-0.644918 -0.458386,-0.966389 1.4743821,-1.559708 1.4743821,-1.559708 1.4882721,-1.565662 0.05556,0.154778 0.111124,0.311547 0.166687,0.46831 -0.004,0.01191 -0.0079,0.02583 -0.01191,0.03969 -1.1211651,1.926817 -1.1211651,1.926817 -1.1707751,2.024055 -0.0059,0 -0.0099,0 -0.01389,0 z m -1.281897,-3.82982 c -0.0893,-1.466446 -0.0893,-1.466446 -0.09327,-1.639086 0.01191,0.0099 0.01191,0.0099 0.02778,0.0099 0.321468,-0.349255 0.642933,-0.696512 0.964401,-1.041797 0.156763,0.436563 0.317498,0.875105 0.476247,1.311668 -0.002,0.0079 -0.004,0.01783 -0.004,0.02778 -1.125133,1.099337 -1.125133,1.099337 -1.371194,1.331513 z"
         id="path150"
         inkscape:connector-curvature="0"
         style="clip-rule:evenodd;fill:#c5c6c6;fill-rule:evenodd;stroke-width:0.17814669;image-rendering:optimizeQuality;shape-rendering:geometricPrecision;text-rendering:geometricPrecision" />
      <path
         style="clip-rule:evenodd;fill:#fefefe;fill-rule:evenodd;stroke-width:0.17814669;image-rendering:optimizeQuality;shape-rendering:geometricPrecision;text-rendering:geometricPrecision"
         d="m -15.794922,50.029297 c -0.04837,7.45e-4 -0.09384,0.01497 -0.15039,0.05664 -0.121046,0.321466 0.06658,0.723736 0.179687,1.027343 0.551654,1.067588 1.405316,1.942178 1.960937,3.009766 0.180577,0.40481 0.298174,0.786001 0.339844,1.228515 0,0.206374 -0.0095,0.410814 -0.02734,0.617188 -0.08334,0.486169 -0.240204,0.858612 -0.490234,1.279297 -0.08731,0.111124 -0.172482,0.222828 -0.257812,0.335937 -0.583405,0.633011 -1.301381,1.103739 -2.007813,1.585938 -0.01588,0.08334 0.104996,0.297556 0.134766,0.378906 0.547683,1.121167 1.456599,2.026114 2.476562,2.72461 0.273841,0.168671 0.273533,0.167739 0.515625,0.30664 0.0099,0.002 0.02325,0.0074 0.03516,0.01172 0.02183,-0.06927 0.114272,-0.09217 0.175782,-0.06836 0.05953,-0.384964 0.08954,-0.77903 0.109375,-1.167969 0,-0.303609 -0.0373,-0.627583 0.222656,-0.835938 0.553637,-0.275832 0.816814,0.282565 1.039063,0.695313 0.208358,0.48815 0.208816,0.489585 0.839843,2.019531 0.351233,0.791759 0.693112,1.588582 1.2050784,2.289063 0.093264,0.109139 0.1951411,0.266551 0.3300781,0.332031 0.474263,-0.331387 0.832798,-0.82069 1.15625,-1.292969 0.51395,-0.827481 0.8489549,-1.729552 1.1386719,-2.65625 0.392904,-1.410884 0.6093301,-2.8384 0.7363281,-4.294922 0.0516,-0.887012 0.050345,-0.886768 0.078125,-1.255859 0.07739,-0.6727 0.2064545,-1.325567 0.3671875,-1.984375 0.174624,-0.636981 0.3507368,-1.273207 0.5273438,-1.908203 0.156766,-0.644918 0.3289706,-1.317599 0.2753906,-1.986329 -0.015875,-0.07144 -0.043486,-0.316151 -0.1347656,-0.332031 -0.482201,0.208358 -0.7277068,0.520659 -1.0273438,0.945313 -0.702465,1.079494 -0.7013151,1.079301 -1.0644531,1.625 -0.460373,0.633013 -0.9621772,1.36158 -1.7519531,1.59375 -0.4901361,0.107156 -0.8975488,-0.05094 -1.3261718,-0.289063 -0.736198,-0.496091 -1.360911,-1.123254 -2.007813,-1.730469 -0.837402,-0.765964 -1.698631,-1.478549 -2.728515,-1.972656 -0.228201,-0.09723 -0.463017,-0.198192 -0.703125,-0.263672 -0.06747,-0.0129 -0.117647,-0.02418 -0.166016,-0.02344 z m -1.3125,9.724609 c -1.244197,0.754058 -2.645633,1.156005 -4.064453,1.419922 -1.78196,0.295671 -3.586959,0.448328 -5.382813,0.628906 -1.514072,0.186525 -3.059067,0.37544 -4.517578,0.84375 -0.321468,0.125016 -0.641672,0.26505 -0.947265,0.425782 -0.698497,0.410764 -1.371722,0.878393 -2.076172,1.283203 -0.05399,0.02606 -0.10816,0.04262 -0.162109,0.06641 v 2.589844 c 0.250312,0.115067 0.476998,0.238202 0.71289,0.390625 1.514073,1.166806 2.264917,3.193039 2.185547,5.074218 -0.0635,0.615156 -0.205221,1.099579 -0.816406,1.34961 -0.101203,0.004 -0.201533,0.008 -0.302735,0.01172 -0.41275,0.101201 -0.53511,0.345567 -0.662109,0.726562 0,0.115093 0.04436,0.21709 0.08008,0.322266 0.08533,0.200417 0.188563,0.322281 0.369141,0.445312 0.156765,0.07937 0.301937,0.112906 0.476562,0.134766 5.425262,0.04561 5.424753,0.04668 6.234375,0.05859 0.101202,-0.0024 0.203453,-0.0041 0.306641,-0.0059 0.05159,-0.07144 0.08745,-0.139289 0.115234,-0.224609 0.07342,-0.458387 -0.02519,-0.759514 -0.410156,-1.023438 -0.289718,-0.123025 -0.589407,-0.232002 -0.865234,-0.382812 -0.259952,-0.182562 -0.387017,-0.35869 -0.492188,-0.650391 -0.202406,-0.896929 -0.03478,-1.886677 0.189453,-2.757812 0.289717,-0.912806 0.67694,-1.713707 1.347657,-2.40625 0.06747,-0.06151 0.133675,-0.124037 0.203124,-0.185547 0.474264,-0.369094 0.912597,-0.556996 1.501954,-0.658203 0.184547,-0.01191 0.185704,-0.01172 0.423828,-0.01172 0.507998,0.02579 0.928578,0.181735 1.371094,0.423828 0.519903,0.345279 0.92205,0.773349 1.283203,1.275391 0.408781,0.619125 0.736642,1.285784 0.964843,1.990234 0.206375,0.676666 0.375453,1.360067 0.470704,2.060547 0,0.23614 8.27e-4,0.438594 -0.175782,0.617188 -0.277809,0.218277 -0.654721,0.339091 -1,0.388671 -0.206373,0.07342 -0.243459,0.374047 -0.287109,0.558594 -0.01191,0.271856 0.05775,0.697756 0.359375,0.791016 1.801803,0.0079 3.602462,0.01549 5.40625,0.02539 0.525854,-0.04168 1.153876,-0.248785 1.304687,-0.822265 0,-0.621104 -0.850268,-0.82886 -1.304687,-0.90625 -0.184552,-0.01185 -0.184302,-0.01147 -0.263672,-0.02539 -0.781839,-0.23614 -0.334377,-1.488249 -0.185547,-1.986328 0.529824,-1.565662 1.133989,-3.110207 1.679688,-4.669922 0.315515,-0.952491 0.599703,-1.914415 0.841797,-2.884765 -0.0079,-0.121048 -0.01548,-0.240344 -0.02149,-0.357422 -0.126998,-0.06549 -0.255846,-0.127944 -0.380859,-0.189454 -0.418702,-0.240103 -0.822065,-0.499376 -1.207032,-0.787109 -0.144858,-0.117077 -0.286813,-0.236407 -0.429687,-0.355469 -0.492122,-0.456402 -0.929736,-0.94038 -1.298828,-1.501953 -0.194468,-0.367109 -0.393641,-0.734334 -0.574219,-1.109375 z m 4.853516,4.705078 c -0.0099,0.01786 -0.0086,0.01671 -0.205078,0.816407 0.006,0.206371 0.0062,0.206586 0.109375,1.847656 0.261937,-0.281779 0.523188,-0.563924 0.787109,-0.845703 0,-0.0079 0.0019,-0.01538 0.0039,-0.02148 -0.228204,-0.599279 -0.455204,-1.201564 -0.695312,-1.796875 z m 1.685547,4.558594 c -0.519905,0.504027 -1.040642,1.011562 -1.560547,1.517578 -0.002,0.06945 -4e-4,0.06769 0.02539,0.482422 0.134937,0.283763 0.273236,0.569721 0.410157,0.855469 0.498076,-0.525857 0.996064,-1.052269 1.49414,-1.578125 0.04167,0 0.08348,0.05431 0.115235,0.08008 -0.162719,-0.454418 -0.323642,-0.906973 -0.484375,-1.357422 z"
         id="path152"
         inkscape:connector-curvature="0" />
      <path
         class="fil3"
         d="m -10.70719,60.614465 c -0.252014,-0.04165 -0.386951,-0.125016 -0.583404,-0.283763 -0.750087,-0.867167 -0.761996,-2.355441 -0.103185,-3.274202 0.371076,-0.446481 0.85526,-0.525856 1.299759,-0.130967 0.5357781,0.581418 0.6369801,1.395008 0.5576051,2.157003 -0.101204,0.611185 -0.353216,1.321589 -1.0080571,1.514068 -0.05556,0.0061 -0.109139,0.01191 -0.162718,0.01789 z m 3.2960291,-0.252016 c -0.17264,-0.04366 -0.279795,-0.09723 -0.416717,-0.210341 -0.66873,-0.706434 -0.646903,-1.940708 -0.142874,-2.7285 0.327419,-0.398857 0.71437,-0.492123 1.121165,-0.142875 0.402828,0.484186 0.492122,1.017979 0.480217,1.637101 -0.05953,0.553639 -0.277812,1.331506 -0.916778,1.440645 -0.04167,0 -0.08334,0.0018 -0.125013,0.0043 z"
         id="path154"
         inkscape:connector-curvature="0"
         style="clip-rule:evenodd;display:inline;fill:#e31e24;fill-opacity:1;fill-rule:evenodd;stroke-width:0.17814669;image-rendering:optimizeQuality;shape-rendering:geometricPrecision;text-rendering:geometricPrecision" />
    </g>
    <path
       inkscape:connector-curvature="0"
       id="path158"
       d="m 176.67141,30.9388 a 16.653295,4.9121231 0 0 1 0.008,0.065 16.653295,4.9121231 0 0 1 -16.6534,4.91208 16.653295,4.9121231 0 0 1 -16.6534,-4.91208 16.653295,4.9121231 0 0 1 0.007,-0.0386 29.65245,7.3082807 0 0 0 -12.94609,6.02835 29.65245,7.3082807 0 0 0 29.65243,7.30874 29.65245,7.3082807 0 0 0 29.65243,-7.30874 29.65245,7.3082807 0 0 0 -13.06634,-6.05482 z"
       style="opacity:1;vector-effect:none;fill:#7e0000;fill-opacity:1;stroke:url(#linearGradient190);stroke-width:1.75;stroke-linecap:butt;stroke-linejoin:miter;stroke-miterlimit:4;stroke-dasharray:none;stroke-dashoffset:0;stroke-opacity:1;paint-order:normal" />
    <path
       inkscape:connector-curvature="0"
       id="path160"
       d="m 159.96583,13.032237 a 16.353773,18.090987 0 0 0 -16.35391,18.091103 16.353773,18.090987 0 0 0 0.0234,0.74342 16.653295,4.9121231 0 0 0 16.39022,4.04916 16.653295,4.9121231 0 0 0 16.25181,-3.8563 16.353773,18.090987 0 0 0 0.0423,-0.93628 16.353773,18.090987 0 0 0 -16.35391,-18.091103 z"
       style="opacity:1;vector-effect:none;fill:#89cfd4;fill-opacity:0.31609198;stroke:#18686c;stroke-width:0.55000001;stroke-linecap:butt;stroke-linejoin:miter;stroke-miterlimit:4;stroke-dasharray:none;stroke-dashoffset:0;stroke-opacity:1;paint-order:normal" />
    <path
       inkscape:connector-curvature="0"
       d="m 155.09444,17.837408 1.32748,2.011543 c 0.50677,-0.225878 0.9193,-0.29149 1.46775,-0.419208 l -0.66815,-2.253195 c -0.61343,0.05984 -1.45652,0.360599 -2.12708,0.66086 z m -4.43791,4.256017 2.29435,0.982235 c 0.82817,-1.49366 1.54839,-2.178389 3.00693,-3.006422 l -1.3798,-1.970657 c -1.74027,1.004713 -3.08774,2.136039 -3.92148,3.994844 z"
       style="fill:#ffffff;fill-rule:evenodd;stroke:none;stroke-width:0.99999988px;stroke-linecap:butt;stroke-linejoin:miter;stroke-opacity:1"
       id="path162" />
    <path
       id="path164"
       style="fill:#ffffff;fill-rule:evenodd;stroke:none;stroke-width:0.99999994px;stroke-linecap:butt;stroke-linejoin:miter;stroke-opacity:1"
       d="m 151.0278,40.531602 -0.18975,-0.822396 c 0.68091,0.07705 1.14554,0.09324 1.79395,0.130691 l 1.03605,0.902092 c -0.66232,-0.0092 -1.73823,-0.107898 -2.64025,-0.210387 z m -7.68962,-1.570955 1.56293,-0.439973 c 1.96518,0.568334 3.20859,0.820937 5.30318,1.112695 l 0.10614,0.807524 c -2.51187,-0.354701 -4.72467,-0.768374 -6.97225,-1.480246 z"
       inkscape:connector-curvature="0" />
    <path
       inkscape:connector-curvature="0"
       id="path166"
       d="m 223.88623,13.032237 a 16.353773,18.090987 0 0 0 -16.35391,18.091103 16.353773,18.090987 0 0 0 0.0234,0.74342 16.653295,4.9121231 0 0 0 16.39022,4.04916 16.653295,4.9121231 0 0 0 16.2518,-3.8563 16.353773,18.090987 0 0 0 0.0423,-0.93628 16.353773,18.090987 0 0 0 -16.3539,-18.091103 z"
       style="opacity:1;vector-effect:none;fill:#89cfd4;fill-opacity:0.54022983;stroke:#18686c;stroke-width:0.55000001;stroke-linecap:butt;stroke-linejoin:miter;stroke-miterlimit:4;stroke-dasharray:none;stroke-dashoffset:0;stroke-opacity:1;paint-order:normal" />
    <path
       style="opacity:1;vector-effect:none;fill:#550000;fill-opacity:0.9885057;stroke:#380000;stroke-width:1.75;stroke-linecap:butt;stroke-linejoin:miter;stroke-miterlimit:4;stroke-dasharray:none;stroke-dashoffset:0;stroke-opacity:1;paint-order:normal"
       d="m 206.83503,42.94105 a 17.252335,5.7507778 0 0 0 17.11095,5.07543 17.252335,5.7507778 0 0 0 17.10792,-5.0482 29.65245,7.3082807 0 0 1 -17.04817,1.33408 29.65245,7.3082807 0 0 1 -17.1707,-1.36131 z"
       id="path168"
       inkscape:connector-curvature="0" />
    <path
       style="opacity:1;vector-effect:none;fill:#086d1a;fill-opacity:1;stroke:none;stroke-width:1.75;stroke-linecap:butt;stroke-linejoin:miter;stroke-miterlimit:4;stroke-dasharray:none;stroke-dashoffset:0;stroke-opacity:1;paint-order:normal"
       d="m 223.89288,27.680638 a 20.906473,7.5134316 0 0 0 -16.34571,2.842051 16.353773,18.447611 0 0 0 -0.0156,0.505873 16.353773,18.447611 0 0 0 0.0234,0.758811 16.653295,5.0089548 0 0 0 16.39063,4.128641 16.653295,5.0089548 0 0 0 16.25195,-3.931471 16.353773,18.447611 0 0 0 0.043,-0.955981 16.353773,18.447611 0 0 0 -0.0234,-0.523797 20.906473,7.5134316 0 0 0 -16.32422,-2.824127 z"
       id="path170"
       inkscape:connector-curvature="0" />
    <g
       id="g180"
       transform="matrix(0.84794438,0,0,0.84794438,234.00586,-21.696474)"
       style="stroke-width:1.1793226">
      <path
         inkscape:connector-curvature="0"
         id="path172"
         d="m -15.970703,49.072266 c -0.328412,0.04316 -0.627862,0.185572 -0.818359,0.49414 -0.252016,0.515935 -0.189874,1.054003 -0.03906,1.59375 0.05159,0.138906 0.10466,0.277111 0.15625,0.416016 0.402825,0.849308 0.981644,1.571989 1.527344,2.333984 0.327419,0.502044 0.639534,0.99044 0.708984,1.597656 0,0.867168 -0.560441,1.419519 -1.1875,1.941407 -0.228202,0.170654 -0.227775,0.170598 -1.763672,1.24414 -1.069573,0.698495 -2.212929,1.104689 -3.451172,1.402344 -0.170656,0.03373 -0.339172,0.06975 -0.505859,0.105469 -1.744258,0.309563 -3.513303,0.452266 -5.273438,0.630859 -1.678776,0.196454 -3.388786,0.401564 -4.99414,0.947266 -0.410765,0.152794 -0.790721,0.336686 -1.181641,0.537109 -0.49578,0.289325 -0.974568,0.607558 -1.464843,0.90625 v 4.960938 c 0.06203,0.04007 0.125199,0.07984 0.185546,0.121094 1.019964,0.835412 1.49461,2.042414 1.712891,3.318359 0.04366,0.390918 0.03914,0.746015 -0.08984,1.123047 -0.0079,0.03969 -0.01754,0.0775 -0.02344,0.117187 -0.742154,0.02182 -1.336094,0.479364 -1.574219,1.169922 -0.07343,0.369094 -0.08104,0.740287 -0.01953,1.109375 0.0893,0.29567 0.215626,0.490485 0.414062,0.722656 0.462359,0.432587 0.994253,0.552419 1.607422,0.574219 4.867657,0.03969 4.868144,0.04082 5.675781,0.05273 0.271859,-0.0025 0.542595,-0.0039 0.814453,-0.0039 0.607217,-0.09128 0.851453,-0.545975 0.982422,-1.099609 0.09128,-0.750089 -0.146223,-1.52227 -0.783203,-1.96875 -0.277813,-0.152794 -0.581282,-0.265766 -0.876953,-0.38086 -0.05556,-0.02779 -0.112435,-0.05803 -0.166016,-0.09375 -0.0119,-0.128985 -0.02325,-0.25578 -0.03516,-0.384765 0,-0.38497 0.03246,-0.74592 0.08008,-1.128906 0.226218,-1.141006 0.702066,-2.433679 1.761719,-3.048829 0.424655,-0.206379 0.820971,-0.230321 1.275391,-0.115234 1.30373,0.450455 1.90511,1.938475 2.349609,3.117188 0.180577,0.539749 0.320766,1.09278 0.416016,1.65039 -0.02182,-0.05358 -0.0446,-0.108556 -0.06445,-0.160156 -0.04564,0.01588 -0.04489,0.01753 -0.294922,0.144531 -0.152796,0.02183 -0.292768,0.07508 -0.429688,0.144531 -0.736199,0.502048 -0.78906,1.481768 -0.541015,2.267579 0.03771,0.07342 0.07558,0.149209 0.113281,0.224609 0.253999,0.379017 0.553457,0.575293 1.003906,0.632812 1.869272,0.0079 3.742026,0.01549 5.613281,0.02539 0.321468,-0.01786 0.637797,-0.08229 0.941407,-0.189453 0.38298,-0.156763 0.68936,-0.367951 0.943359,-0.691406 0.257968,-0.386949 0.303734,-0.822952 0.240234,-1.275391 -0.01786,-0.06349 -0.0349,-0.127916 -0.05078,-0.191406 -0.192484,-0.494109 -0.567095,-0.777406 -1.019531,-1.021485 -0.289718,-0.123031 -0.571392,-0.200292 -0.875,-0.257812 0.04366,-0.307572 0.185936,-0.618423 0.285156,-0.912109 0.56356,-1.547801 1.145893,-3.092635 1.679688,-4.652344 0.0079,0.01985 0.0096,0.02007 0.265625,4.080078 0.595308,1.230306 1.191769,2.463053 1.789062,3.693359 0.660795,-1.141013 1.3235492,-2.282853 1.9863282,-3.421875 -0.9366199,-2.641191 -1.8808982,-5.304137 -3.1191402,-7.820312 0,-0.03969 1.08e-4,-0.03963 0.117187,-0.748047 0.517916,1.204507 1.015488,2.47452 1.892578,3.472656 0.3929024,0.371102 0.780504,0.620717 1.324219,0.396485 0.557604,-0.317495 1.0058771,-0.870943 1.3769531,-1.376953 1.395008,-2.09152 1.8844558,-4.60778 2.1523438,-7.066407 0.063499,-0.752073 0.092314,-1.507723 0.1835937,-2.257812 0.263921,-1.474383 0.8027064,-2.884962 1.0527344,-4.361328 0.097234,-0.803668 0.2661214,-1.911582 -0.5097656,-2.441407 -0.789776,-0.39489 -1.4839714,0.131535 -2.0058594,0.708985 -0.527841,0.636981 -0.9576904,1.362144 -1.4121094,2.054687 -0.327422,0.464341 -0.6407512,0.999003 -1.1289062,1.310547 -0.367106,0.128983 -0.7871102,-0.29372 -1.0351564,-0.494141 -1.527959,-1.347383 -2.933886,-2.9673 -4.90039,-3.679687 -0.307578,-0.0883 -0.665729,-0.142769 -0.994141,-0.09961 z"
         style="clip-rule:evenodd;fill:#1c1b17;fill-rule:evenodd;stroke-width:0.17814669;image-rendering:optimizeQuality;shape-rendering:geometricPrecision;text-rendering:geometricPrecision" />
      <path
         style="clip-rule:evenodd;fill:#c5c6c6;fill-rule:evenodd;stroke-width:0.17814669;image-rendering:optimizeQuality;shape-rendering:geometricPrecision;text-rendering:geometricPrecision"
         inkscape:connector-curvature="0"
         id="path174"
         d="m -10.91158,73.494971 c -0.154779,-0.323454 -0.305591,-0.644918 -0.458386,-0.966389 1.4743821,-1.559708 1.4743821,-1.559708 1.4882721,-1.565662 0.05556,0.154778 0.111124,0.311547 0.166687,0.46831 -0.004,0.01191 -0.0079,0.02583 -0.01191,0.03969 -1.1211651,1.926817 -1.1211651,1.926817 -1.1707751,2.024055 -0.0059,0 -0.0099,0 -0.01389,0 z m -1.281897,-3.82982 c -0.0893,-1.466446 -0.0893,-1.466446 -0.09327,-1.639086 0.01191,0.0099 0.01191,0.0099 0.02778,0.0099 0.321468,-0.349255 0.642933,-0.696512 0.964401,-1.041797 0.156763,0.436563 0.317498,0.875105 0.476247,1.311668 -0.002,0.0079 -0.004,0.01783 -0.004,0.02778 -1.125133,1.099337 -1.125133,1.099337 -1.371194,1.331513 z"
         class="fil1" />
      <path
         inkscape:connector-curvature="0"
         id="path176"
         d="m -15.794922,50.029297 c -0.04837,7.45e-4 -0.09384,0.01497 -0.15039,0.05664 -0.121046,0.321466 0.06658,0.723736 0.179687,1.027343 0.551654,1.067588 1.405316,1.942178 1.960937,3.009766 0.180577,0.40481 0.298174,0.786001 0.339844,1.228515 0,0.206374 -0.0095,0.410814 -0.02734,0.617188 -0.08334,0.486169 -0.240204,0.858612 -0.490234,1.279297 -0.08731,0.111124 -0.172482,0.222828 -0.257812,0.335937 -0.583405,0.633011 -1.301381,1.103739 -2.007813,1.585938 -0.01588,0.08334 0.104996,0.297556 0.134766,0.378906 0.547683,1.121167 1.456599,2.026114 2.476562,2.72461 0.273841,0.168671 0.273533,0.167739 0.515625,0.30664 0.0099,0.002 0.02325,0.0074 0.03516,0.01172 0.02183,-0.06927 0.114272,-0.09217 0.175782,-0.06836 0.05953,-0.384964 0.08954,-0.77903 0.109375,-1.167969 0,-0.303609 -0.0373,-0.627583 0.222656,-0.835938 0.553637,-0.275832 0.816814,0.282565 1.039063,0.695313 0.208358,0.48815 0.208816,0.489585 0.839843,2.019531 0.351233,0.791759 0.693112,1.588582 1.2050784,2.289063 0.093264,0.109139 0.1951411,0.266551 0.3300781,0.332031 0.474263,-0.331387 0.832798,-0.82069 1.15625,-1.292969 0.51395,-0.827481 0.8489549,-1.729552 1.1386719,-2.65625 0.392904,-1.410884 0.6093301,-2.8384 0.7363281,-4.294922 0.0516,-0.887012 0.050345,-0.886768 0.078125,-1.255859 0.07739,-0.6727 0.2064545,-1.325567 0.3671875,-1.984375 0.174624,-0.636981 0.3507368,-1.273207 0.5273438,-1.908203 0.156766,-0.644918 0.3289706,-1.317599 0.2753906,-1.986329 -0.015875,-0.07144 -0.043486,-0.316151 -0.1347656,-0.332031 -0.482201,0.208358 -0.7277068,0.520659 -1.0273438,0.945313 -0.702465,1.079494 -0.7013151,1.079301 -1.0644531,1.625 -0.460373,0.633013 -0.9621772,1.36158 -1.7519531,1.59375 -0.4901361,0.107156 -0.8975488,-0.05094 -1.3261718,-0.289063 -0.736198,-0.496091 -1.360911,-1.123254 -2.007813,-1.730469 -0.837402,-0.765964 -1.698631,-1.478549 -2.728515,-1.972656 -0.228201,-0.09723 -0.463017,-0.198192 -0.703125,-0.263672 -0.06747,-0.0129 -0.117647,-0.02418 -0.166016,-0.02344 z m -1.3125,9.724609 c -1.244197,0.754058 -2.645633,1.156005 -4.064453,1.419922 -1.78196,0.295671 -3.586959,0.448328 -5.382813,0.628906 -1.514072,0.186525 -3.059067,0.37544 -4.517578,0.84375 -0.321468,0.125016 -0.641672,0.26505 -0.947265,0.425782 -0.698497,0.410764 -1.371722,0.878393 -2.076172,1.283203 -0.05399,0.02606 -0.10816,0.04262 -0.162109,0.06641 v 2.589844 c 0.250312,0.115067 0.476998,0.238202 0.71289,0.390625 1.514073,1.166806 2.264917,3.193039 2.185547,5.074218 -0.0635,0.615156 -0.205221,1.099579 -0.816406,1.34961 -0.101203,0.004 -0.201533,0.008 -0.302735,0.01172 -0.41275,0.101201 -0.53511,0.345567 -0.662109,0.726562 0,0.115093 0.04436,0.21709 0.08008,0.322266 0.08533,0.200417 0.188563,0.322281 0.369141,0.445312 0.156765,0.07937 0.301937,0.112906 0.476562,0.134766 5.425262,0.04561 5.424753,0.04668 6.234375,0.05859 0.101202,-0.0024 0.203453,-0.0041 0.306641,-0.0059 0.05159,-0.07144 0.08745,-0.139289 0.115234,-0.224609 0.07342,-0.458387 -0.02519,-0.759514 -0.410156,-1.023438 -0.289718,-0.123025 -0.589407,-0.232002 -0.865234,-0.382812 -0.259952,-0.182562 -0.387017,-0.35869 -0.492188,-0.650391 -0.202406,-0.896929 -0.03478,-1.886677 0.189453,-2.757812 0.289717,-0.912806 0.67694,-1.713707 1.347657,-2.40625 0.06747,-0.06151 0.133675,-0.124037 0.203124,-0.185547 0.474264,-0.369094 0.912597,-0.556996 1.501954,-0.658203 0.184547,-0.01191 0.185704,-0.01172 0.423828,-0.01172 0.507998,0.02579 0.928578,0.181735 1.371094,0.423828 0.519903,0.345279 0.92205,0.773349 1.283203,1.275391 0.408781,0.619125 0.736642,1.285784 0.964843,1.990234 0.206375,0.676666 0.375453,1.360067 0.470704,2.060547 0,0.23614 8.27e-4,0.438594 -0.175782,0.617188 -0.277809,0.218277 -0.654721,0.339091 -1,0.388671 -0.206373,0.07342 -0.243459,0.374047 -0.287109,0.558594 -0.01191,0.271856 0.05775,0.697756 0.359375,0.791016 1.801803,0.0079 3.602462,0.01549 5.40625,0.02539 0.525854,-0.04168 1.153876,-0.248785 1.304687,-0.822265 0,-0.621104 -0.850268,-0.82886 -1.304687,-0.90625 -0.184552,-0.01185 -0.184302,-0.01147 -0.263672,-0.02539 -0.781839,-0.23614 -0.334377,-1.488249 -0.185547,-1.986328 0.529824,-1.565662 1.133989,-3.110207 1.679688,-4.669922 0.315515,-0.952491 0.599703,-1.914415 0.841797,-2.884765 -0.0079,-0.121048 -0.01548,-0.240344 -0.02149,-0.357422 -0.126998,-0.06549 -0.255846,-0.127944 -0.380859,-0.189454 -0.418702,-0.240103 -0.822065,-0.499376 -1.207032,-0.787109 -0.144858,-0.117077 -0.286813,-0.236407 -0.429687,-0.355469 -0.492122,-0.456402 -0.929736,-0.94038 -1.298828,-1.501953 -0.194468,-0.367109 -0.393641,-0.734334 -0.574219,-1.109375 z m 4.853516,4.705078 c -0.0099,0.01786 -0.0086,0.01671 -0.205078,0.816407 0.006,0.206371 0.0062,0.206586 0.109375,1.847656 0.261937,-0.281779 0.523188,-0.563924 0.787109,-0.845703 0,-0.0079 0.0019,-0.01538 0.0039,-0.02148 -0.228204,-0.599279 -0.455204,-1.201564 -0.695312,-1.796875 z m 1.685547,4.558594 c -0.519905,0.504027 -1.040642,1.011562 -1.560547,1.517578 -0.002,0.06945 -4e-4,0.06769 0.02539,0.482422 0.134937,0.283763 0.273236,0.569721 0.410157,0.855469 0.498076,-0.525857 0.996064,-1.052269 1.49414,-1.578125 0.04167,0 0.08348,0.05431 0.115235,0.08008 -0.162719,-0.454418 -0.323642,-0.906973 -0.484375,-1.357422 z"
         style="clip-rule:evenodd;fill:#fefefe;fill-rule:evenodd;stroke-width:0.17814669;image-rendering:optimizeQuality;shape-rendering:geometricPrecision;text-rendering:geometricPrecision" />
      <path
         style="clip-rule:evenodd;display:inline;fill:#e31e24;fill-opacity:1;fill-rule:evenodd;stroke-width:0.17814669;image-rendering:optimizeQuality;shape-rendering:geometricPrecision;text-rendering:geometricPrecision"
         inkscape:connector-curvature="0"
         id="path178"
         d="m -7.4111609,60.362449 c -0.17264,-0.04366 -0.279795,-0.09723 -0.416717,-0.210341 -0.66873,-0.706434 -0.646903,-1.940708 -0.142874,-2.7285 0.327419,-0.398857 0.71437,-0.492123 1.121165,-0.142875 0.402828,0.484186 0.492122,1.017979 0.480217,1.637101 -0.05953,0.553639 -0.277812,1.331506 -0.916778,1.440645 -0.04167,0 -0.08334,0.0018 -0.125013,0.0043 z"
         class="fil3"
         sodipodi:nodetypes="cccccccc" />
      <rect
         style="opacity:1;vector-effect:none;fill:#ff2a2a;fill-opacity:1;stroke:none;stroke-width:2.06381464;stroke-linecap:butt;stroke-linejoin:miter;stroke-miterlimit:4;stroke-dasharray:none;stroke-dashoffset:0;stroke-opacity:1;paint-order:normal"
         id="rect204"
         width="2.3895681"
         height="0.6753127"
         x="-11.921165"
         y="58.360718" />
      <rect
         style="display:none;opacity:1;vector-effect:none;fill:#ff2a2a;fill-opacity:1;stroke:none;stroke-width:2.06381464;stroke-linecap:butt;stroke-linejoin:miter;stroke-miterlimit:4;stroke-dasharray:none;stroke-dashoffset:0;stroke-opacity:1;paint-order:normal"
         id="rect206"
         width="1.922051"
         height="0.62336445"
         x="-8.3368092"
         y="58.360722" />
    </g>
    <path
       style="opacity:1;vector-effect:none;fill:#7e0000;fill-opacity:1;stroke:url(#linearGradient192);stroke-width:1.75;stroke-linecap:butt;stroke-linejoin:miter;stroke-miterlimit:4;stroke-dasharray:none;stroke-dashoffset:0;stroke-opacity:1;paint-order:normal"
       d="m 240.59181,30.9388 a 16.653295,4.9121231 0 0 1 0.008,0.065 16.653295,4.9121231 0 0 1 -16.65339,4.91208 16.653295,4.9121231 0 0 1 -16.6534,-4.91208 16.653295,4.9121231 0 0 1 0.007,-0.0386 29.65245,7.3082807 0 0 0 -12.9461,6.02835 29.65245,7.3082807 0 0 0 29.65244,7.30874 29.65245,7.3082807 0 0 0 29.65242,-7.30874 29.65245,7.3082807 0 0 0 -13.06634,-6.05482 z"
       id="path182"
       inkscape:connector-curvature="0" />
    <path
       style="opacity:1;vector-effect:none;fill:#89cfd4;fill-opacity:0.31609198;stroke:#18686c;stroke-width:0.55000001;stroke-linecap:butt;stroke-linejoin:miter;stroke-miterlimit:4;stroke-dasharray:none;stroke-dashoffset:0;stroke-opacity:1;paint-order:normal"
       d="m 223.88623,13.032237 a 16.353773,18.090987 0 0 0 -16.35391,18.091103 16.353773,18.090987 0 0 0 0.0234,0.74342 16.653295,4.9121231 0 0 0 16.39022,4.04916 16.653295,4.9121231 0 0 0 16.2518,-3.8563 16.353773,18.090987 0 0 0 0.0423,-0.93628 16.353773,18.090987 0 0 0 -16.3539,-18.091103 z"
       id="path184"
       inkscape:connector-curvature="0" />
    <path
       id="path186"
       style="fill:#ffffff;fill-rule:evenodd;stroke:none;stroke-width:0.99999988px;stroke-linecap:butt;stroke-linejoin:miter;stroke-opacity:1"
       d="m 219.01484,17.837408 1.32748,2.011543 c 0.50678,-0.225878 0.9193,-0.29149 1.46776,-0.419208 l -0.66815,-2.253195 c -0.61344,0.05984 -1.45653,0.360599 -2.12709,0.66086 z m -4.4379,4.256017 2.29434,0.982235 c 0.82817,-1.49366 1.54839,-2.178389 3.00694,-3.006422 l -1.3798,-1.970657 c -1.74027,1.004713 -3.08774,2.136039 -3.92148,3.994844 z"
       inkscape:connector-curvature="0" />
    <path
       inkscape:connector-curvature="0"
       d="m 214.9482,40.531602 -0.18974,-0.822396 c 0.6809,0.07705 1.14553,0.09324 1.79394,0.130691 l 1.03605,0.902092 c -0.66231,-0.0092 -1.73823,-0.107898 -2.64025,-0.210387 z m -7.68962,-1.570955 1.56293,-0.439973 c 1.96518,0.568334 3.20859,0.820937 5.30319,1.112695 l 0.10613,0.807524 c -2.51187,-0.354701 -4.72466,-0.768374 -6.97225,-1.480246 z"
       style="fill:#ffffff;fill-rule:evenodd;stroke:none;stroke-width:0.99999994px;stroke-linecap:butt;stroke-linejoin:miter;stroke-opacity:1"
       id="path188" />
    <ellipse
       style="opacity:1;vector-effect:none;fill:#ffffff;fill-opacity:1;stroke:none;stroke-width:1.75;stroke-linecap:butt;stroke-linejoin:miter;stroke-miterlimit:4;stroke-dasharray:none;stroke-dashoffset:0;stroke-opacity:1;paint-order:normal"
       id="path194"
       cx="32.064602"
       cy="41.605232"
       rx="1.3508935"
       ry="1.463468" />
    <ellipse
       ry="1.463468"
       rx="1.3508935"
       cy="40.055527"
       cx="74.488548"
       id="ellipse196"
       style="opacity:1;vector-effect:none;fill:#ffffff;fill-opacity:1;stroke:none;stroke-width:1.75;stroke-linecap:butt;stroke-linejoin:miter;stroke-miterlimit:4;stroke-dasharray:none;stroke-dashoffset:0;stroke-opacity:1;paint-order:normal" />
    <ellipse
       style="opacity:1;vector-effect:none;fill:#ffffff;fill-opacity:1;stroke:none;stroke-width:1.75;stroke-linecap:butt;stroke-linejoin:miter;stroke-miterlimit:4;stroke-dasharray:none;stroke-dashoffset:0;stroke-opacity:1;paint-order:normal"
       id="ellipse198"
       cx="245.50969"
       cy="40.055527"
       rx="1.3508935"
       ry="1.463468" />
    <ellipse
       ry="1.463468"
       rx="1.3508935"
       cy="36.055527"
       cx="130.91255"
       id="ellipse200"
       style="display:inline;opacity:1;vector-effect:none;fill:#ffffff;fill-opacity:1;stroke:none;stroke-width:1.75;stroke-linecap:butt;stroke-linejoin:miter;stroke-miterlimit:4;stroke-dasharray:none;stroke-dashoffset:0;stroke-opacity:1;paint-order:normal" />
    <ellipse
       style="display:inline;opacity:1;vector-effect:none;fill:#ffffff;fill-opacity:1;stroke:none;stroke-width:1.75;stroke-linecap:butt;stroke-linejoin:miter;stroke-miterlimit:4;stroke-dasharray:none;stroke-dashoffset:0;stroke-opacity:1;paint-order:normal"
       id="ellipse202"
       cx="189.36284"
       cy="36.055527"
       rx="1.3508935"
       ry="1.463468" />
  </g>
</svg>
