<?xml version="1.0" encoding="UTF-8" standalone="no"?>
<!-- Created with Inkscape (http://www.inkscape.org/) -->

<svg
   xmlns:dc="http://purl.org/dc/elements/1.1/"
   xmlns:cc="http://creativecommons.org/ns#"
   xmlns:rdf="http://www.w3.org/1999/02/22-rdf-syntax-ns#"
   xmlns:svg="http://www.w3.org/2000/svg"
   xmlns="http://www.w3.org/2000/svg"
   xmlns:xlink="http://www.w3.org/1999/xlink"
   xmlns:sodipodi="http://sodipodi.sourceforge.net/DTD/sodipodi-0.dtd"
   xmlns:inkscape="http://www.inkscape.org/namespaces/inkscape"
   width="512px"
   height="128px"
   viewBox="0 0 512 128"
   version="1.1"
   id="SVGRoot"
   inkscape:version="0.92.3 (2405546, 2018-03-11)"
   sodipodi:docname="player.svg">
  <sodipodi:namedview
     id="base"
     pagecolor="#ffffff"
     bordercolor="#666666"
     borderopacity="1.0"
     inkscape:pageopacity="0.0"
     inkscape:pageshadow="2"
     inkscape:zoom="32"
     inkscape:cx="439.31503"
     inkscape:cy="49.945539"
     inkscape:document-units="px"
     inkscape:current-layer="g180"
     showgrid="true"
     inkscape:window-width="1323"
     inkscape:window-height="713"
     inkscape:window-x="0"
     inkscape:window-y="27"
     inkscape:window-maximized="1"
     inkscape:pagecheckerboard="true"
     inkscape:snap-global="false"
     showguides="true"
     inkscape:guide-bbox="true">
    <inkscape:grid
       type="xygrid"
       id="grid170"
       empspacing="4" />
    <sodipodi:guide
       position="63.993164,108.89444"
       orientation="1,0"
       id="guide1058"
       inkscape:locked="false" />
    <sodipodi:guide
       position="67.278469,64.259564"
       orientation="0,1"
       id="guide1060"
       inkscape:locked="false" />
    <sodipodi:guide
       position="448,103.25"
       orientation="1,0"
       id="guide1080"
       inkscape:locked="false" />
    <sodipodi:guide
       position="86.302414,96.060991"
       orientation="0,1"
       id="guide1082"
       inkscape:locked="false" />
    <sodipodi:guide
       position="127.77637,126.25159"
       orientation="1,0"
       id="guide2234"
       inkscape:locked="false" />
    <sodipodi:guide
       position="319.9375,103.25"
       orientation="1,0"
       id="guide2236"
       inkscape:locked="false" />
    <sodipodi:guide
       position="192.0625,102.5"
       orientation="1,0"
       id="guide2238"
       inkscape:locked="false" />
  </sodipodi:namedview>
  <defs
     id="defs112">
    <linearGradient
       inkscape:collect="always"
       id="linearGradient2480">
      <stop
         style="stop-color:#9e0000;stop-opacity:1"
         offset="0"
         id="stop2476" />
      <stop
         style="stop-color:#380000;stop-opacity:1"
         offset="1"
         id="stop2478" />
    </linearGradient>
    <inkscape:path-effect
       is_visible="true"
       id="path-effect2320"
       effect="spiro" />
    <inkscape:path-effect
       is_visible="true"
       id="path-effect2316"
       effect="spiro" />
    <inkscape:path-effect
       is_visible="true"
       id="path-effect2287"
       effect="spiro" />
    <inkscape:path-effect
       effect="spiro"
       id="path-effect2246"
       is_visible="true" />
    <inkscape:path-effect
       is_visible="true"
       id="path-effect2242"
       effect="spiro" />
    <inkscape:path-effect
       effect="spiro"
       id="path-effect2232"
       is_visible="true" />
    <inkscape:path-effect
       is_visible="true"
       id="path-effect2228"
       effect="spiro" />
    <inkscape:path-effect
       effect="spiro"
       id="path-effect2676"
       is_visible="true" />
    <inkscape:path-effect
       effect="spiro"
       id="path-effect2672"
       is_visible="true" />
    <linearGradient
       inkscape:collect="always"
       xlink:href="#linearGradient2480"
       id="linearGradient2482"
       x1="32.185997"
       y1="28.190691"
       x2="32.019039"
       y2="45.922256"
       gradientUnits="userSpaceOnUse" />
    <linearGradient
       inkscape:collect="always"
       xlink:href="#linearGradient2480"
       id="linearGradient140"
       gradientUnits="userSpaceOnUse"
       x1="32.185997"
       y1="28.190691"
       x2="32.019039"
       y2="45.922256" />
    <linearGradient
       inkscape:collect="always"
       xlink:href="#linearGradient2480"
       id="linearGradient190"
       gradientUnits="userSpaceOnUse"
       x1="32.185997"
       y1="28.190691"
       x2="32.019039"
       y2="45.922256" />
    <linearGradient
       inkscape:collect="always"
       xlink:href="#linearGradient2480"
       id="linearGradient192"
       gradientUnits="userSpaceOnUse"
       x1="32.185997"
       y1="28.190691"
       x2="32.019039"
       y2="45.922256" />
  </defs>
  <metadata
     id="metadata115">
    <rdf:RDF>
      <cc:Work
         rdf:about="">
        <dc:format>image/svg+xml</dc:format>
        <dc:type
           rdf:resource="http://purl.org/dc/dcmitype/StillImage" />
        <dc:title />
      </cc:Work>
    </rdf:RDF>
  </metadata>
  <g
     id="layer1"
     inkscape:groupmode="layer"
     inkscape:label="Layer 1">
    <path
       inkscape:connector-curvature="0"
       id="path2549"
       d="m 63.797938,28.258008 a 32.821425,36.776659 0 0 0 -32.821705,36.776895 32.821425,36.776659 0 0 0 0.04704,1.511278 33.422555,9.985717 0 0 0 32.894561,8.231424 33.422555,9.985717 0 0 0 32.616793,-7.839364 32.821425,36.776659 0 0 0 0.085,-1.903338 32.821425,36.776659 0 0 0 -32.821698,-36.776895 z"
       style="opacity:1;vector-effect:none;fill:#89cfd4;fill-opacity:0.54022983;stroke:#18686c;stroke-width:0.55000001;stroke-linecap:butt;stroke-linejoin:miter;stroke-miterlimit:4;stroke-dasharray:none;stroke-dashoffset:0;stroke-opacity:1;paint-order:normal" />
    <path
       style="opacity:1;vector-effect:none;fill:#550000;fill-opacity:0.9885057;stroke:#380000;stroke-width:1.75;stroke-linecap:butt;stroke-linejoin:miter;stroke-miterlimit:4;stroke-dasharray:none;stroke-dashoffset:0;stroke-opacity:1;paint-order:normal"
       d="M 29.576786,89.058794 A 34.624807,11.690595 0 0 0 63.917848,99.376493 34.624807,11.690595 0 0 0 98.252837,89.114149 59.511385,14.856798 0 0 1 64.037756,91.826163 59.511385,14.856798 0 0 1 29.576786,89.058794 Z"
       id="path2443"
       inkscape:connector-curvature="0" />
    <path
       style="opacity:1;vector-effect:none;fill:#086d1a;fill-opacity:1;stroke:none;stroke-width:1.75;stroke-linecap:butt;stroke-linejoin:miter;stroke-miterlimit:4;stroke-dasharray:none;stroke-dashoffset:0;stroke-opacity:1;paint-order:normal"
       d="m 63.811274,58.036331 a 41.958528,15.273844 0 0 0 -32.805229,5.777526 32.821425,37.50163 0 0 0 -0.03137,1.028375 32.821425,37.50163 0 0 0 0.04704,1.542565 33.422555,10.182563 0 0 0 32.895386,8.392999 33.422555,10.182563 0 0 0 32.617076,-7.992177 32.821425,37.50163 0 0 0 0.0862,-1.943387 32.821425,37.50163 0 0 0 -0.047,-1.064812 41.958528,15.273844 0 0 0 -32.762111,-5.741089 z"
       id="path2484"
       inkscape:connector-curvature="0" />
    <g
       id="g2547"
       transform="matrix(1.7017934,0,0,1.7237623,84.107679,-42.341014)"
       style="stroke-width:0.58385885">
      <path
         inkscape:connector-curvature="0"
         id="path7"
         d="m -15.970703,49.072266 c -0.328412,0.04316 -0.627862,0.185572 -0.818359,0.49414 -0.252016,0.515935 -0.189874,1.054003 -0.03906,1.59375 0.05159,0.138906 0.10466,0.277111 0.15625,0.416016 0.402825,0.849308 0.981644,1.571989 1.527344,2.333984 0.327419,0.502044 0.639534,0.99044 0.708984,1.597656 0,0.867168 -0.560441,1.419519 -1.1875,1.941407 -0.228202,0.170654 -0.227775,0.170598 -1.763672,1.24414 -1.069573,0.698495 -2.212929,1.104689 -3.451172,1.402344 -0.170656,0.03373 -0.339172,0.06975 -0.505859,0.105469 -1.744258,0.309563 -3.513303,0.452266 -5.273438,0.630859 -1.678776,0.196454 -3.388786,0.401564 -4.99414,0.947266 -0.410765,0.152794 -0.790721,0.336686 -1.181641,0.537109 -0.49578,0.289325 -0.974568,0.607558 -1.464843,0.90625 v 4.960938 c 0.06203,0.04007 0.125199,0.07984 0.185546,0.121094 1.019964,0.835412 1.49461,2.042414 1.712891,3.318359 0.04366,0.390918 0.03914,0.746015 -0.08984,1.123047 -0.0079,0.03969 -0.01754,0.0775 -0.02344,0.117187 -0.742154,0.02182 -1.336094,0.479364 -1.574219,1.169922 -0.07343,0.369094 -0.08104,0.740287 -0.01953,1.109375 0.0893,0.29567 0.215626,0.490485 0.414062,0.722656 0.462359,0.432587 0.994253,0.552419 1.607422,0.574219 4.867657,0.03969 4.868144,0.04082 5.675781,0.05273 0.271859,-0.0025 0.542595,-0.0039 0.814453,-0.0039 0.607217,-0.09128 0.851453,-0.545975 0.982422,-1.099609 0.09128,-0.750089 -0.146223,-1.52227 -0.783203,-1.96875 -0.277813,-0.152794 -0.581282,-0.265766 -0.876953,-0.38086 -0.05556,-0.02779 -0.112435,-0.05803 -0.166016,-0.09375 -0.0119,-0.128985 -0.02325,-0.25578 -0.03516,-0.384765 0,-0.38497 0.03246,-0.74592 0.08008,-1.128906 0.226218,-1.141006 0.702066,-2.433679 1.761719,-3.048829 0.424655,-0.206379 0.820971,-0.230321 1.275391,-0.115234 1.30373,0.450455 1.90511,1.938475 2.349609,3.117188 0.180577,0.539749 0.320766,1.09278 0.416016,1.65039 -0.02182,-0.05358 -0.0446,-0.108556 -0.06445,-0.160156 -0.04564,0.01588 -0.04489,0.01753 -0.294922,0.144531 -0.152796,0.02183 -0.292768,0.07508 -0.429688,0.144531 -0.736199,0.502048 -0.78906,1.481768 -0.541015,2.267579 0.03771,0.07342 0.07558,0.149209 0.113281,0.224609 0.253999,0.379017 0.553457,0.575293 1.003906,0.632812 1.869272,0.0079 3.742026,0.01549 5.613281,0.02539 0.321468,-0.01786 0.637797,-0.08229 0.941407,-0.189453 0.38298,-0.156763 0.68936,-0.367951 0.943359,-0.691406 0.257968,-0.386949 0.303734,-0.822952 0.240234,-1.275391 -0.01786,-0.06349 -0.0349,-0.127916 -0.05078,-0.191406 -0.192484,-0.494109 -0.567095,-0.777406 -1.019531,-1.021485 -0.289718,-0.123031 -0.571392,-0.200292 -0.875,-0.257812 0.04366,-0.307572 0.185936,-0.618423 0.285156,-0.912109 0.56356,-1.547801 1.145893,-3.092635 1.679688,-4.652344 0.0079,0.01985 0.0096,0.02007 0.265625,4.080078 0.595308,1.230306 1.191769,2.463053 1.789062,3.693359 0.660795,-1.141013 1.3235492,-2.282853 1.9863282,-3.421875 -0.9366199,-2.641191 -1.8808982,-5.304137 -3.1191402,-7.820312 0,-0.03969 1.08e-4,-0.03963 0.117187,-0.748047 0.517916,1.204507 1.015488,2.47452 1.892578,3.472656 0.3929024,0.371102 0.780504,0.620717 1.324219,0.396485 0.557604,-0.317495 1.0058771,-0.870943 1.3769531,-1.376953 1.395008,-2.09152 1.8844558,-4.60778 2.1523438,-7.066407 0.063499,-0.752073 0.092314,-1.507723 0.1835937,-2.257812 0.263921,-1.474383 0.8027064,-2.884962 1.0527344,-4.361328 0.097234,-0.803668 0.2661214,-1.911582 -0.5097656,-2.441407 -0.789776,-0.39489 -1.4839714,0.131535 -2.0058594,0.708985 -0.527841,0.636981 -0.9576904,1.362144 -1.4121094,2.054687 -0.327422,0.464341 -0.6407512,0.999003 -1.1289062,1.310547 -0.367106,0.128983 -0.7871102,-0.29372 -1.0351564,-0.494141 -1.527959,-1.347383 -2.933886,-2.9673 -4.90039,-3.679687 -0.307578,-0.0883 -0.665729,-0.142769 -0.994141,-0.09961 z"
         style="clip-rule:evenodd;fill:#1c1b17;fill-rule:evenodd;stroke-width:0.08819684;image-rendering:optimizeQuality;shape-rendering:geometricPrecision;text-rendering:geometricPrecision" />
      <path
         style="clip-rule:evenodd;fill:#c5c6c6;fill-rule:evenodd;stroke-width:0.08819684;image-rendering:optimizeQuality;shape-rendering:geometricPrecision;text-rendering:geometricPrecision"
         inkscape:connector-curvature="0"
         id="path9"
         d="m -10.91158,73.494971 c -0.154779,-0.323454 -0.305591,-0.644918 -0.458386,-0.966389 1.4743821,-1.559708 1.4743821,-1.559708 1.4882721,-1.565662 0.05556,0.154778 0.111124,0.311547 0.166687,0.46831 -0.004,0.01191 -0.0079,0.02583 -0.01191,0.03969 -1.1211651,1.926817 -1.1211651,1.926817 -1.1707751,2.024055 -0.0059,0 -0.0099,0 -0.01389,0 z m -1.281897,-3.82982 c -0.0893,-1.466446 -0.0893,-1.466446 -0.09327,-1.639086 0.01191,0.0099 0.01191,0.0099 0.02778,0.0099 0.321468,-0.349255 0.642933,-0.696512 0.964401,-1.041797 0.156763,0.436563 0.317498,0.875105 0.476247,1.311668 -0.002,0.0079 -0.004,0.01783 -0.004,0.02778 -1.125133,1.099337 -1.125133,1.099337 -1.371194,1.331513 z"
         class="fil1" />
      <path
         inkscape:connector-curvature="0"
         id="path11"
         d="m -15.794922,50.029297 c -0.04837,7.45e-4 -0.09384,0.01497 -0.15039,0.05664 -0.121046,0.321466 0.06658,0.723736 0.179687,1.027343 0.551654,1.067588 1.405316,1.942178 1.960937,3.009766 0.180577,0.40481 0.298174,0.786001 0.339844,1.228515 0,0.206374 -0.0095,0.410814 -0.02734,0.617188 -0.08334,0.486169 -0.240204,0.858612 -0.490234,1.279297 -0.08731,0.111124 -0.172482,0.222828 -0.257812,0.335937 -0.583405,0.633011 -1.301381,1.103739 -2.007813,1.585938 -0.01588,0.08334 0.104996,0.297556 0.134766,0.378906 0.547683,1.121167 1.456599,2.026114 2.476562,2.72461 0.273841,0.168671 0.273533,0.167739 0.515625,0.30664 0.0099,0.002 0.02325,0.0074 0.03516,0.01172 0.02183,-0.06927 0.114272,-0.09217 0.175782,-0.06836 0.05953,-0.384964 0.08954,-0.77903 0.109375,-1.167969 0,-0.303609 -0.0373,-0.627583 0.222656,-0.835938 0.553637,-0.275832 0.816814,0.282565 1.039063,0.695313 0.208358,0.48815 0.208816,0.489585 0.839843,2.019531 0.351233,0.791759 0.693112,1.588582 1.2050784,2.289063 0.093264,0.109139 0.1951411,0.266551 0.3300781,0.332031 0.474263,-0.331387 0.832798,-0.82069 1.15625,-1.292969 0.51395,-0.827481 0.8489549,-1.729552 1.1386719,-2.65625 0.392904,-1.410884 0.6093301,-2.8384 0.7363281,-4.294922 0.0516,-0.887012 0.050345,-0.886768 0.078125,-1.255859 0.07739,-0.6727 0.2064545,-1.325567 0.3671875,-1.984375 0.174624,-0.636981 0.3507368,-1.273207 0.5273438,-1.908203 0.156766,-0.644918 0.3289706,-1.317599 0.2753906,-1.986329 -0.015875,-0.07144 -0.043486,-0.316151 -0.1347656,-0.332031 -0.482201,0.208358 -0.7277068,0.520659 -1.0273438,0.945313 -0.702465,1.079494 -0.7013151,1.079301 -1.0644531,1.625 -0.460373,0.633013 -0.9621772,1.36158 -1.7519531,1.59375 -0.4901361,0.107156 -0.8975488,-0.05094 -1.3261718,-0.289063 -0.736198,-0.496091 -1.360911,-1.123254 -2.007813,-1.730469 -0.837402,-0.765964 -1.698631,-1.478549 -2.728515,-1.972656 -0.228201,-0.09723 -0.463017,-0.198192 -0.703125,-0.263672 -0.06747,-0.0129 -0.117647,-0.02418 -0.166016,-0.02344 z m -1.3125,9.724609 c -1.244197,0.754058 -2.645633,1.156005 -4.064453,1.419922 -1.78196,0.295671 -3.586959,0.448328 -5.382813,0.628906 -1.514072,0.186525 -3.059067,0.37544 -4.517578,0.84375 -0.321468,0.125016 -0.641672,0.26505 -0.947265,0.425782 -0.698497,0.410764 -1.371722,0.878393 -2.076172,1.283203 -0.05399,0.02606 -0.10816,0.04262 -0.162109,0.06641 v 2.589844 c 0.250312,0.115067 0.476998,0.238202 0.71289,0.390625 1.514073,1.166806 2.264917,3.193039 2.185547,5.074218 -0.0635,0.615156 -0.205221,1.099579 -0.816406,1.34961 -0.101203,0.004 -0.201533,0.008 -0.302735,0.01172 -0.41275,0.101201 -0.53511,0.345567 -0.662109,0.726562 0,0.115093 0.04436,0.21709 0.08008,0.322266 0.08533,0.200417 0.188563,0.322281 0.369141,0.445312 0.156765,0.07937 0.301937,0.112906 0.476562,0.134766 5.425262,0.04561 5.424753,0.04668 6.234375,0.05859 0.101202,-0.0024 0.203453,-0.0041 0.306641,-0.0059 0.05159,-0.07144 0.08745,-0.139289 0.115234,-0.224609 0.07342,-0.458387 -0.02519,-0.759514 -0.410156,-1.023438 -0.289718,-0.123025 -0.589407,-0.232002 -0.865234,-0.382812 -0.259952,-0.182562 -0.387017,-0.35869 -0.492188,-0.650391 -0.202406,-0.896929 -0.03478,-1.886677 0.189453,-2.757812 0.289717,-0.912806 0.67694,-1.713707 1.347657,-2.40625 0.06747,-0.06151 0.133675,-0.124037 0.203124,-0.185547 0.474264,-0.369094 0.912597,-0.556996 1.501954,-0.658203 0.184547,-0.01191 0.185704,-0.01172 0.423828,-0.01172 0.507998,0.02579 0.928578,0.181735 1.371094,0.423828 0.519903,0.345279 0.92205,0.773349 1.283203,1.275391 0.408781,0.619125 0.736642,1.285784 0.964843,1.990234 0.206375,0.676666 0.375453,1.360067 0.470704,2.060547 0,0.23614 8.27e-4,0.438594 -0.175782,0.617188 -0.277809,0.218277 -0.654721,0.339091 -1,0.388671 -0.206373,0.07342 -0.243459,0.374047 -0.287109,0.558594 -0.01191,0.271856 0.05775,0.697756 0.359375,0.791016 1.801803,0.0079 3.602462,0.01549 5.40625,0.02539 0.525854,-0.04168 1.153876,-0.248785 1.304687,-0.822265 0,-0.621104 -0.850268,-0.82886 -1.304687,-0.90625 -0.184552,-0.01185 -0.184302,-0.01147 -0.263672,-0.02539 -0.781839,-0.23614 -0.334377,-1.488249 -0.185547,-1.986328 0.529824,-1.565662 1.133989,-3.110207 1.679688,-4.669922 0.315515,-0.952491 0.599703,-1.914415 0.841797,-2.884765 -0.0079,-0.121048 -0.01548,-0.240344 -0.02149,-0.357422 -0.126998,-0.06549 -0.255846,-0.127944 -0.380859,-0.189454 -0.418702,-0.240103 -0.822065,-0.499376 -1.207032,-0.787109 -0.144858,-0.117077 -0.286813,-0.236407 -0.429687,-0.355469 -0.492122,-0.456402 -0.929736,-0.94038 -1.298828,-1.501953 -0.194468,-0.367109 -0.393641,-0.734334 -0.574219,-1.109375 z m 4.853516,4.705078 c -0.0099,0.01786 -0.0086,0.01671 -0.205078,0.816407 0.006,0.206371 0.0062,0.206586 0.109375,1.847656 0.261937,-0.281779 0.523188,-0.563924 0.787109,-0.845703 0,-0.0079 0.0019,-0.01538 0.0039,-0.02148 -0.228204,-0.599279 -0.455204,-1.201564 -0.695312,-1.796875 z m 1.685547,4.558594 c -0.519905,0.504027 -1.040642,1.011562 -1.560547,1.517578 -0.002,0.06945 -4e-4,0.06769 0.02539,0.482422 0.134937,0.283763 0.273236,0.569721 0.410157,0.855469 0.498076,-0.525857 0.996064,-1.052269 1.49414,-1.578125 0.04167,0 0.08348,0.05431 0.115235,0.08008 -0.162719,-0.454418 -0.323642,-0.906973 -0.484375,-1.357422 z"
         style="clip-rule:evenodd;fill:#fefefe;fill-rule:evenodd;stroke-width:0.08819684;image-rendering:optimizeQuality;shape-rendering:geometricPrecision;text-rendering:geometricPrecision" />
      <path
         style="clip-rule:evenodd;display:inline;fill:#e31e24;fill-opacity:1;fill-rule:evenodd;stroke-width:0.08819684;image-rendering:optimizeQuality;shape-rendering:geometricPrecision;text-rendering:geometricPrecision"
         inkscape:connector-curvature="0"
         id="path13"
         d="m -10.70719,60.614465 c -0.252014,-0.04165 -0.386951,-0.125016 -0.583404,-0.283763 -0.750087,-0.867167 -0.761996,-2.355441 -0.103185,-3.274202 0.371076,-0.446481 0.85526,-0.525856 1.299759,-0.130967 0.5357781,0.581418 0.6369801,1.395008 0.5576051,2.157003 -0.101204,0.611185 -0.353216,1.321589 -1.0080571,1.514068 -0.05556,0.0061 -0.109139,0.01191 -0.162718,0.01789 z m 3.2960291,-0.252016 c -0.17264,-0.04366 -0.279795,-0.09723 -0.416717,-0.210341 -0.66873,-0.706434 -0.646903,-1.940708 -0.142874,-2.7285 0.327419,-0.398857 0.71437,-0.492123 1.121165,-0.142875 0.402828,0.484186 0.492122,1.017979 0.480217,1.637101 -0.05953,0.553639 -0.277812,1.331506 -0.916778,1.440645 -0.04167,0 -0.08334,0.0018 -0.125013,0.0043 z"
         class="fil3" />
    </g>
    <path
       style="opacity:1;vector-effect:none;fill:#7e0000;fill-opacity:1;stroke:url(#linearGradient2482);stroke-width:1.75;stroke-linecap:butt;stroke-linejoin:miter;stroke-miterlimit:4;stroke-dasharray:none;stroke-dashoffset:0;stroke-opacity:1;paint-order:normal"
       d="m 97.325437,64.659757 a 33.422555,9.985717 0 0 1 0.0152,0.132137 33.422555,9.985717 0 0 1 -33.422768,9.985629 33.422555,9.985717 0 0 1 -33.42277,-9.985629 33.422555,9.985717 0 0 1 0.01365,-0.07847 A 59.511385,14.856798 0 0 0 4.5264668,76.968287 59.511385,14.856798 0 0 0 64.037815,91.826019 59.511385,14.856798 0 0 0 123.54917,76.968288 59.511385,14.856798 0 0 0 97.325497,64.659615 Z"
       id="path2417"
       inkscape:connector-curvature="0" />
    <path
       style="opacity:1;vector-effect:none;fill:#89cfd4;fill-opacity:0.31609198;stroke:#18686c;stroke-width:0.55000001;stroke-linecap:butt;stroke-linejoin:miter;stroke-miterlimit:4;stroke-dasharray:none;stroke-dashoffset:0;stroke-opacity:1;paint-order:normal"
       d="m 63.797938,28.258008 a 32.821425,36.776659 0 0 0 -32.821705,36.776895 32.821425,36.776659 0 0 0 0.04704,1.511278 33.422555,9.985717 0 0 0 32.894561,8.231424 33.422555,9.985717 0 0 0 32.616793,-7.839364 32.821425,36.776659 0 0 0 0.085,-1.903338 32.821425,36.776659 0 0 0 -32.821698,-36.776895 z"
       id="path2427"
       inkscape:connector-curvature="0" />
    <path
       id="path996"
       style="fill:#ffffff;fill-rule:evenodd;stroke:none;stroke-width:0.99999988px;stroke-linecap:butt;stroke-linejoin:miter;stroke-opacity:1"
       d="m 54.021238,38.026305 2.664204,4.08921 c 1.017083,-0.459181 1.845001,-0.592562 2.945723,-0.852196 l -1.340943,-4.580457 c -1.231148,0.121647 -2.923197,0.733051 -4.268984,1.343443 z m -8.906717,8.651938 4.604666,1.996758 c 1.662109,-3.03642 3.107562,-4.428386 6.034805,-6.111671 l -2.769204,-4.006093 c -3.492653,2.042453 -6.19698,4.342293 -7.870267,8.121006 z"
       inkscape:connector-curvature="0" />
    <path
       inkscape:connector-curvature="0"
       d="m 45.85964,84.160695 -0.380809,-1.671826 c 1.366551,0.156633 2.299043,0.189545 3.600382,0.265678 l 2.079312,1.833838 c -1.32925,-0.0187 -3.488562,-0.219343 -5.298885,-0.42769 z m -15.432789,-3.193551 3.136744,-0.894408 c 3.944044,1.15535 6.439519,1.66886 10.643296,2.261966 l 0.213013,1.641593 C 39.378673,83.255233 34.93767,82.414289 30.426851,80.967144 Z"
       style="fill:#ffffff;fill-rule:evenodd;stroke:none;stroke-width:0.99999994px;stroke-linecap:butt;stroke-linejoin:miter;stroke-opacity:1"
       id="path2474" />
    <path
       style="opacity:1;vector-effect:none;fill:#89cfd4;fill-opacity:0.54022983;stroke:#18686c;stroke-width:0.55000001;stroke-linecap:butt;stroke-linejoin:miter;stroke-miterlimit:4;stroke-dasharray:none;stroke-dashoffset:0;stroke-opacity:1;paint-order:normal"
       d="m 191.90707,28.258008 a 32.821425,36.776659 0 0 0 -32.82171,36.776895 32.821425,36.776659 0 0 0 0.047,1.511278 33.422555,9.985717 0 0 0 32.89456,8.231424 33.422555,9.985717 0 0 0 32.61678,-7.839364 32.821425,36.776659 0 0 0 0.0849,-1.903338 32.821425,36.776659 0 0 0 -32.82168,-36.776895 z"
       id="path116"
       inkscape:connector-curvature="0" />
    <path
       inkscape:connector-curvature="0"
       id="path118"
       d="m 157.68591,89.058794 a 34.624807,11.690595 0 0 0 34.34107,10.317699 34.624807,11.690595 0 0 0 34.33497,-10.262344 59.511385,14.856798 0 0 1 -34.21506,2.712014 59.511385,14.856798 0 0 1 -34.46098,-2.767369 z"
       style="opacity:1;vector-effect:none;fill:#550000;fill-opacity:0.9885057;stroke:#380000;stroke-width:1.75;stroke-linecap:butt;stroke-linejoin:miter;stroke-miterlimit:4;stroke-dasharray:none;stroke-dashoffset:0;stroke-opacity:1;paint-order:normal" />
    <path
       inkscape:connector-curvature="0"
       id="path120"
       d="m 191.9204,58.036331 a 41.958528,15.273844 0 0 0 -32.80523,5.777526 32.821425,37.50163 0 0 0 -0.0314,1.028375 32.821425,37.50163 0 0 0 0.047,1.542565 33.422555,10.182563 0 0 0 32.89539,8.392999 33.422555,10.182563 0 0 0 32.61707,-7.992177 32.821425,37.50163 0 0 0 0.0863,-1.943387 32.821425,37.50163 0 0 0 -0.047,-1.064812 41.958528,15.273844 0 0 0 -32.76211,-5.741089 z"
       style="opacity:1;vector-effect:none;fill:#086d1a;fill-opacity:1;stroke:none;stroke-width:1.75;stroke-linecap:butt;stroke-linejoin:miter;stroke-miterlimit:4;stroke-dasharray:none;stroke-dashoffset:0;stroke-opacity:1;paint-order:normal" />
    <g
       style="stroke-width:0.58385885"
       transform="matrix(1.7017934,0,0,1.7237623,212.21679,-42.341014)"
       id="g130">
      <path
         style="clip-rule:evenodd;fill:#1c1b17;fill-rule:evenodd;stroke-width:0.08819684;image-rendering:optimizeQuality;shape-rendering:geometricPrecision;text-rendering:geometricPrecision"
         d="m -15.970703,49.072266 c -0.328412,0.04316 -0.627862,0.185572 -0.818359,0.49414 -0.252016,0.515935 -0.189874,1.054003 -0.03906,1.59375 0.05159,0.138906 0.10466,0.277111 0.15625,0.416016 0.402825,0.849308 0.981644,1.571989 1.527344,2.333984 0.327419,0.502044 0.639534,0.99044 0.708984,1.597656 0,0.867168 -0.560441,1.419519 -1.1875,1.941407 -0.228202,0.170654 -0.227775,0.170598 -1.763672,1.24414 -1.069573,0.698495 -2.212929,1.104689 -3.451172,1.402344 -0.170656,0.03373 -0.339172,0.06975 -0.505859,0.105469 -1.744258,0.309563 -3.513303,0.452266 -5.273438,0.630859 -1.678776,0.196454 -3.388786,0.401564 -4.99414,0.947266 -0.410765,0.152794 -0.790721,0.336686 -1.181641,0.537109 -0.49578,0.289325 -0.974568,0.607558 -1.464843,0.90625 v 4.960938 c 0.06203,0.04007 0.125199,0.07984 0.185546,0.121094 1.019964,0.835412 1.49461,2.042414 1.712891,3.318359 0.04366,0.390918 0.03914,0.746015 -0.08984,1.123047 -0.0079,0.03969 -0.01754,0.0775 -0.02344,0.117187 -0.742154,0.02182 -1.336094,0.479364 -1.574219,1.169922 -0.07343,0.369094 -0.08104,0.740287 -0.01953,1.109375 0.0893,0.29567 0.215626,0.490485 0.414062,0.722656 0.462359,0.432587 0.994253,0.552419 1.607422,0.574219 4.867657,0.03969 4.868144,0.04082 5.675781,0.05273 0.271859,-0.0025 0.542595,-0.0039 0.814453,-0.0039 0.607217,-0.09128 0.851453,-0.545975 0.982422,-1.099609 0.09128,-0.750089 -0.146223,-1.52227 -0.783203,-1.96875 -0.277813,-0.152794 -0.581282,-0.265766 -0.876953,-0.38086 -0.05556,-0.02779 -0.112435,-0.05803 -0.166016,-0.09375 -0.0119,-0.128985 -0.02325,-0.25578 -0.03516,-0.384765 0,-0.38497 0.03246,-0.74592 0.08008,-1.128906 0.226218,-1.141006 0.702066,-2.433679 1.761719,-3.048829 0.424655,-0.206379 0.820971,-0.230321 1.275391,-0.115234 1.30373,0.450455 1.90511,1.938475 2.349609,3.117188 0.180577,0.539749 0.320766,1.09278 0.416016,1.65039 -0.02182,-0.05358 -0.0446,-0.108556 -0.06445,-0.160156 -0.04564,0.01588 -0.04489,0.01753 -0.294922,0.144531 -0.152796,0.02183 -0.292768,0.07508 -0.429688,0.144531 -0.736199,0.502048 -0.78906,1.481768 -0.541015,2.267579 0.03771,0.07342 0.07558,0.149209 0.113281,0.224609 0.253999,0.379017 0.553457,0.575293 1.003906,0.632812 1.869272,0.0079 3.742026,0.01549 5.613281,0.02539 0.321468,-0.01786 0.637797,-0.08229 0.941407,-0.189453 0.38298,-0.156763 0.68936,-0.367951 0.943359,-0.691406 0.257968,-0.386949 0.303734,-0.822952 0.240234,-1.275391 -0.01786,-0.06349 -0.0349,-0.127916 -0.05078,-0.191406 -0.192484,-0.494109 -0.567095,-0.777406 -1.019531,-1.021485 -0.289718,-0.123031 -0.571392,-0.200292 -0.875,-0.257812 0.04366,-0.307572 0.185936,-0.618423 0.285156,-0.912109 0.56356,-1.547801 1.145893,-3.092635 1.679688,-4.652344 0.0079,0.01985 0.0096,0.02007 0.265625,4.080078 0.595308,1.230306 1.191769,2.463053 1.789062,3.693359 0.660795,-1.141013 1.3235492,-2.282853 1.9863282,-3.421875 -0.9366199,-2.641191 -1.8808982,-5.304137 -3.1191402,-7.820312 0,-0.03969 1.08e-4,-0.03963 0.117187,-0.748047 0.517916,1.204507 1.015488,2.47452 1.892578,3.472656 0.3929024,0.371102 0.780504,0.620717 1.324219,0.396485 0.557604,-0.317495 1.0058771,-0.870943 1.3769531,-1.376953 1.395008,-2.09152 1.8844558,-4.60778 2.1523438,-7.066407 0.063499,-0.752073 0.092314,-1.507723 0.1835937,-2.257812 0.263921,-1.474383 0.8027064,-2.884962 1.0527344,-4.361328 0.097234,-0.803668 0.2661214,-1.911582 -0.5097656,-2.441407 -0.789776,-0.39489 -1.4839714,0.131535 -2.0058594,0.708985 -0.527841,0.636981 -0.9576904,1.362144 -1.4121094,2.054687 -0.327422,0.464341 -0.6407512,0.999003 -1.1289062,1.310547 -0.367106,0.128983 -0.7871102,-0.29372 -1.0351564,-0.494141 -1.527959,-1.347383 -2.933886,-2.9673 -4.90039,-3.679687 -0.307578,-0.0883 -0.665729,-0.142769 -0.994141,-0.09961 z"
         id="path122"
         inkscape:connector-curvature="0" />
      <path
         class="fil1"
         d="m -10.91158,73.494971 c -0.154779,-0.323454 -0.305591,-0.644918 -0.458386,-0.966389 1.4743821,-1.559708 1.4743821,-1.559708 1.4882721,-1.565662 0.05556,0.154778 0.111124,0.311547 0.166687,0.46831 -0.004,0.01191 -0.0079,0.02583 -0.01191,0.03969 -1.1211651,1.926817 -1.1211651,1.926817 -1.1707751,2.024055 -0.0059,0 -0.0099,0 -0.01389,0 z m -1.281897,-3.82982 c -0.0893,-1.466446 -0.0893,-1.466446 -0.09327,-1.639086 0.01191,0.0099 0.01191,0.0099 0.02778,0.0099 0.321468,-0.349255 0.642933,-0.696512 0.964401,-1.041797 0.156763,0.436563 0.317498,0.875105 0.476247,1.311668 -0.002,0.0079 -0.004,0.01783 -0.004,0.02778 -1.125133,1.099337 -1.125133,1.099337 -1.371194,1.331513 z"
         id="path124"
         inkscape:connector-curvature="0"
         style="clip-rule:evenodd;fill:#c5c6c6;fill-rule:evenodd;stroke-width:0.08819684;image-rendering:optimizeQuality;shape-rendering:geometricPrecision;text-rendering:geometricPrecision" />
      <path
         style="clip-rule:evenodd;fill:#fefefe;fill-rule:evenodd;stroke-width:0.08819684;image-rendering:optimizeQuality;shape-rendering:geometricPrecision;text-rendering:geometricPrecision"
         d="m -15.794922,50.029297 c -0.04837,7.45e-4 -0.09384,0.01497 -0.15039,0.05664 -0.121046,0.321466 0.06658,0.723736 0.179687,1.027343 0.551654,1.067588 1.405316,1.942178 1.960937,3.009766 0.180577,0.40481 0.298174,0.786001 0.339844,1.228515 0,0.206374 -0.0095,0.410814 -0.02734,0.617188 -0.08334,0.486169 -0.240204,0.858612 -0.490234,1.279297 -0.08731,0.111124 -0.172482,0.222828 -0.257812,0.335937 -0.583405,0.633011 -1.301381,1.103739 -2.007813,1.585938 -0.01588,0.08334 0.104996,0.297556 0.134766,0.378906 0.547683,1.121167 1.456599,2.026114 2.476562,2.72461 0.273841,0.168671 0.273533,0.167739 0.515625,0.30664 0.0099,0.002 0.02325,0.0074 0.03516,0.01172 0.02183,-0.06927 0.114272,-0.09217 0.175782,-0.06836 0.05953,-0.384964 0.08954,-0.77903 0.109375,-1.167969 0,-0.303609 -0.0373,-0.627583 0.222656,-0.835938 0.553637,-0.275832 0.816814,0.282565 1.039063,0.695313 0.208358,0.48815 0.208816,0.489585 0.839843,2.019531 0.351233,0.791759 0.693112,1.588582 1.2050784,2.289063 0.093264,0.109139 0.1951411,0.266551 0.3300781,0.332031 0.474263,-0.331387 0.832798,-0.82069 1.15625,-1.292969 0.51395,-0.827481 0.8489549,-1.729552 1.1386719,-2.65625 0.392904,-1.410884 0.6093301,-2.8384 0.7363281,-4.294922 0.0516,-0.887012 0.050345,-0.886768 0.078125,-1.255859 0.07739,-0.6727 0.2064545,-1.325567 0.3671875,-1.984375 0.174624,-0.636981 0.3507368,-1.273207 0.5273438,-1.908203 0.156766,-0.644918 0.3289706,-1.317599 0.2753906,-1.986329 -0.015875,-0.07144 -0.043486,-0.316151 -0.1347656,-0.332031 -0.482201,0.208358 -0.7277068,0.520659 -1.0273438,0.945313 -0.702465,1.079494 -0.7013151,1.079301 -1.0644531,1.625 -0.460373,0.633013 -0.9621772,1.36158 -1.7519531,1.59375 -0.4901361,0.107156 -0.8975488,-0.05094 -1.3261718,-0.289063 -0.736198,-0.496091 -1.360911,-1.123254 -2.007813,-1.730469 -0.837402,-0.765964 -1.698631,-1.478549 -2.728515,-1.972656 -0.228201,-0.09723 -0.463017,-0.198192 -0.703125,-0.263672 -0.06747,-0.0129 -0.117647,-0.02418 -0.166016,-0.02344 z m -1.3125,9.724609 c -1.244197,0.754058 -2.645633,1.156005 -4.064453,1.419922 -1.78196,0.295671 -3.586959,0.448328 -5.382813,0.628906 -1.514072,0.186525 -3.059067,0.37544 -4.517578,0.84375 -0.321468,0.125016 -0.641672,0.26505 -0.947265,0.425782 -0.698497,0.410764 -1.371722,0.878393 -2.076172,1.283203 -0.05399,0.02606 -0.10816,0.04262 -0.162109,0.06641 v 2.589844 c 0.250312,0.115067 0.476998,0.238202 0.71289,0.390625 1.514073,1.166806 2.264917,3.193039 2.185547,5.074218 -0.0635,0.615156 -0.205221,1.099579 -0.816406,1.34961 -0.101203,0.004 -0.201533,0.008 -0.302735,0.01172 -0.41275,0.101201 -0.53511,0.345567 -0.662109,0.726562 0,0.115093 0.04436,0.21709 0.08008,0.322266 0.08533,0.200417 0.188563,0.322281 0.369141,0.445312 0.156765,0.07937 0.301937,0.112906 0.476562,0.134766 5.425262,0.04561 5.424753,0.04668 6.234375,0.05859 0.101202,-0.0024 0.203453,-0.0041 0.306641,-0.0059 0.05159,-0.07144 0.08745,-0.139289 0.115234,-0.224609 0.07342,-0.458387 -0.02519,-0.759514 -0.410156,-1.023438 -0.289718,-0.123025 -0.589407,-0.232002 -0.865234,-0.382812 -0.259952,-0.182562 -0.387017,-0.35869 -0.492188,-0.650391 -0.202406,-0.896929 -0.03478,-1.886677 0.189453,-2.757812 0.289717,-0.912806 0.67694,-1.713707 1.347657,-2.40625 0.06747,-0.06151 0.133675,-0.124037 0.203124,-0.185547 0.474264,-0.369094 0.912597,-0.556996 1.501954,-0.658203 0.184547,-0.01191 0.185704,-0.01172 0.423828,-0.01172 0.507998,0.02579 0.928578,0.181735 1.371094,0.423828 0.519903,0.345279 0.92205,0.773349 1.283203,1.275391 0.408781,0.619125 0.736642,1.285784 0.964843,1.990234 0.206375,0.676666 0.375453,1.360067 0.470704,2.060547 0,0.23614 8.27e-4,0.438594 -0.175782,0.617188 -0.277809,0.218277 -0.654721,0.339091 -1,0.388671 -0.206373,0.07342 -0.243459,0.374047 -0.287109,0.558594 -0.01191,0.271856 0.05775,0.697756 0.359375,0.791016 1.801803,0.0079 3.602462,0.01549 5.40625,0.02539 0.525854,-0.04168 1.153876,-0.248785 1.304687,-0.822265 0,-0.621104 -0.850268,-0.82886 -1.304687,-0.90625 -0.184552,-0.01185 -0.184302,-0.01147 -0.263672,-0.02539 -0.781839,-0.23614 -0.334377,-1.488249 -0.185547,-1.986328 0.529824,-1.565662 1.133989,-3.110207 1.679688,-4.669922 0.315515,-0.952491 0.599703,-1.914415 0.841797,-2.884765 -0.0079,-0.121048 -0.01548,-0.240344 -0.02149,-0.357422 -0.126998,-0.06549 -0.255846,-0.127944 -0.380859,-0.189454 -0.418702,-0.240103 -0.822065,-0.499376 -1.207032,-0.787109 -0.144858,-0.117077 -0.286813,-0.236407 -0.429687,-0.355469 -0.492122,-0.456402 -0.929736,-0.94038 -1.298828,-1.501953 -0.194468,-0.367109 -0.393641,-0.734334 -0.574219,-1.109375 z m 4.853516,4.705078 c -0.0099,0.01786 -0.0086,0.01671 -0.205078,0.816407 0.006,0.206371 0.0062,0.206586 0.109375,1.847656 0.261937,-0.281779 0.523188,-0.563924 0.787109,-0.845703 0,-0.0079 0.0019,-0.01538 0.0039,-0.02148 -0.228204,-0.599279 -0.455204,-1.201564 -0.695312,-1.796875 z m 1.685547,4.558594 c -0.519905,0.504027 -1.040642,1.011562 -1.560547,1.517578 -0.002,0.06945 -4e-4,0.06769 0.02539,0.482422 0.134937,0.283763 0.273236,0.569721 0.410157,0.855469 0.498076,-0.525857 0.996064,-1.052269 1.49414,-1.578125 0.04167,0 0.08348,0.05431 0.115235,0.08008 -0.162719,-0.454418 -0.323642,-0.906973 -0.484375,-1.357422 z"
         id="path126"
         inkscape:connector-curvature="0" />
      <path
         class="fil3"
         d="m -10.70719,60.614465 c -0.252014,-0.04165 -0.386951,-0.125016 -0.583404,-0.283763 -0.750087,-0.867167 -0.761996,-2.355441 -0.103185,-3.274202 0.371076,-0.446481 0.85526,-0.525856 1.299759,-0.130967 0.5357781,0.581418 0.6369801,1.395008 0.5576051,2.157003 -0.101204,0.611185 -0.353216,1.321589 -1.0080571,1.514068 -0.05556,0.0061 -0.109139,0.01191 -0.162718,0.01789 z m 3.2960291,-0.252016 c -0.17264,-0.04366 -0.279795,-0.09723 -0.416717,-0.210341 -0.66873,-0.706434 -0.646903,-1.940708 -0.142874,-2.7285 0.327419,-0.398857 0.71437,-0.492123 1.121165,-0.142875 0.402828,0.484186 0.492122,1.017979 0.480217,1.637101 -0.05953,0.553639 -0.277812,1.331506 -0.916778,1.440645 -0.04167,0 -0.08334,0.0018 -0.125013,0.0043 z"
         id="path128"
         inkscape:connector-curvature="0"
         style="clip-rule:evenodd;display:inline;fill:#e31e24;fill-opacity:1;fill-rule:evenodd;stroke-width:0.08819684;image-rendering:optimizeQuality;shape-rendering:geometricPrecision;text-rendering:geometricPrecision" />
    </g>
    <path
       inkscape:connector-curvature="0"
       id="path132"
       d="m 225.43455,64.659757 a 33.422555,9.985717 0 0 1 0.0161,0.132137 33.422555,9.985717 0 0 1 -33.42275,9.985629 33.422555,9.985717 0 0 1 -33.42277,-9.985629 33.422555,9.985717 0 0 1 0.0136,-0.07847 59.511385,14.856798 0 0 0 -25.98238,12.254864 59.511385,14.856798 0 0 0 59.51135,14.857732 59.511385,14.856798 0 0 0 59.51133,-14.857732 59.511385,14.856798 0 0 0 -26.22367,-12.308673 z"
       style="opacity:1;vector-effect:none;fill:#7e0000;fill-opacity:1;stroke:url(#linearGradient140);stroke-width:1.75;stroke-linecap:butt;stroke-linejoin:miter;stroke-miterlimit:4;stroke-dasharray:none;stroke-dashoffset:0;stroke-opacity:1;paint-order:normal" />
    <path
       inkscape:connector-curvature="0"
       id="path134"
       d="m 191.90707,28.258008 a 32.821425,36.776659 0 0 0 -32.82171,36.776895 32.821425,36.776659 0 0 0 0.047,1.511278 33.422555,9.985717 0 0 0 32.89456,8.231424 33.422555,9.985717 0 0 0 32.61678,-7.839364 32.821425,36.776659 0 0 0 0.0849,-1.903338 32.821425,36.776659 0 0 0 -32.82168,-36.776895 z"
       style="opacity:1;vector-effect:none;fill:#89cfd4;fill-opacity:0.31609198;stroke:#18686c;stroke-width:0.55000001;stroke-linecap:butt;stroke-linejoin:miter;stroke-miterlimit:4;stroke-dasharray:none;stroke-dashoffset:0;stroke-opacity:1;paint-order:normal" />
    <path
       inkscape:connector-curvature="0"
       d="m 182.13037,38.026305 2.6642,4.08921 c 1.01708,-0.459181 1.845,-0.592562 2.94572,-0.852196 l -1.34094,-4.580457 c -1.23115,0.121647 -2.9232,0.733051 -4.26898,1.343443 z m -8.90672,8.651938 4.60467,1.996758 c 1.66211,-3.03642 3.10756,-4.428386 6.0348,-6.111671 l -2.7692,-4.006093 c -3.49266,2.042453 -6.19698,4.342293 -7.87027,8.121006 z"
       style="fill:#ffffff;fill-rule:evenodd;stroke:none;stroke-width:0.99999988px;stroke-linecap:butt;stroke-linejoin:miter;stroke-opacity:1"
       id="path136" />
    <path
       id="path138"
       style="fill:#ffffff;fill-rule:evenodd;stroke:none;stroke-width:0.99999994px;stroke-linecap:butt;stroke-linejoin:miter;stroke-opacity:1"
       d="m 173.96877,84.160695 -0.38081,-1.671826 c 1.36655,0.156633 2.29904,0.189545 3.60038,0.265678 l 2.07931,1.833838 c -1.32925,-0.0187 -3.48856,-0.219343 -5.29888,-0.42769 z m -15.43279,-3.193551 3.13674,-0.894408 c 3.94405,1.15535 6.43952,1.66886 10.6433,2.261966 l 0.21301,1.641593 c -5.04123,-0.721062 -9.48223,-1.562006 -13.99305,-3.009151 z"
       inkscape:connector-curvature="0" />
    <path
       style="opacity:1;vector-effect:none;fill:#89cfd4;fill-opacity:0.54022983;stroke:#18686c;stroke-width:0.55000001;stroke-linecap:butt;stroke-linejoin:miter;stroke-miterlimit:4;stroke-dasharray:none;stroke-dashoffset:0;stroke-opacity:1;paint-order:normal"
       d="m 319.78414,28.258008 a 32.821425,36.776659 0 0 0 -32.8217,36.776895 32.821425,36.776659 0 0 0 0.047,1.511278 33.422555,9.985717 0 0 0 32.89458,8.231424 33.422555,9.985717 0 0 0 32.61679,-7.839364 32.821425,36.776659 0 0 0 0.0849,-1.903338 32.821425,36.776659 0 0 0 -32.8217,-36.776895 z"
       id="path142"
       inkscape:connector-curvature="0" />
    <path
       inkscape:connector-curvature="0"
       id="path144"
       d="m 285.56299,89.058794 a 34.624807,11.690595 0 0 0 34.34105,10.317699 34.624807,11.690595 0 0 0 34.33499,-10.262344 59.511385,14.856798 0 0 1 -34.21508,2.712014 59.511385,14.856798 0 0 1 -34.46096,-2.767369 z"
       style="opacity:1;vector-effect:none;fill:#550000;fill-opacity:0.9885057;stroke:#380000;stroke-width:1.75;stroke-linecap:butt;stroke-linejoin:miter;stroke-miterlimit:4;stroke-dasharray:none;stroke-dashoffset:0;stroke-opacity:1;paint-order:normal" />
    <path
       inkscape:connector-curvature="0"
       id="path146"
       d="m 319.79747,58.036331 a 41.958528,15.273844 0 0 0 -32.80522,5.777526 32.821425,37.50163 0 0 0 -0.0313,1.028375 32.821425,37.50163 0 0 0 0.047,1.542565 33.422555,10.182563 0 0 0 32.89538,8.392999 33.422555,10.182563 0 0 0 32.61709,-7.992177 32.821425,37.50163 0 0 0 0.0863,-1.943387 32.821425,37.50163 0 0 0 -0.047,-1.064812 41.958528,15.273844 0 0 0 -32.76211,-5.741089 z"
       style="opacity:1;vector-effect:none;fill:#086d1a;fill-opacity:1;stroke:none;stroke-width:1.75;stroke-linecap:butt;stroke-linejoin:miter;stroke-miterlimit:4;stroke-dasharray:none;stroke-dashoffset:0;stroke-opacity:1;paint-order:normal" />
    <g
       style="stroke-width:0.58385885"
       transform="matrix(1.7017934,0,0,1.7237623,340.09387,-42.341014)"
       id="g156">
      <path
         style="clip-rule:evenodd;fill:#1c1b17;fill-rule:evenodd;stroke-width:0.08819684;image-rendering:optimizeQuality;shape-rendering:geometricPrecision;text-rendering:geometricPrecision"
         d="m -15.970703,49.072266 c -0.328412,0.04316 -0.627862,0.185572 -0.818359,0.49414 -0.252016,0.515935 -0.189874,1.054003 -0.03906,1.59375 0.05159,0.138906 0.10466,0.277111 0.15625,0.416016 0.402825,0.849308 0.981644,1.571989 1.527344,2.333984 0.327419,0.502044 0.639534,0.99044 0.708984,1.597656 0,0.867168 -0.560441,1.419519 -1.1875,1.941407 -0.228202,0.170654 -0.227775,0.170598 -1.763672,1.24414 -1.069573,0.698495 -2.212929,1.104689 -3.451172,1.402344 -0.170656,0.03373 -0.339172,0.06975 -0.505859,0.105469 -1.744258,0.309563 -3.513303,0.452266 -5.273438,0.630859 -1.678776,0.196454 -3.388786,0.401564 -4.99414,0.947266 -0.410765,0.152794 -0.790721,0.336686 -1.181641,0.537109 -0.49578,0.289325 -0.974568,0.607558 -1.464843,0.90625 v 4.960938 c 0.06203,0.04007 0.125199,0.07984 0.185546,0.121094 1.019964,0.835412 1.49461,2.042414 1.712891,3.318359 0.04366,0.390918 0.03914,0.746015 -0.08984,1.123047 -0.0079,0.03969 -0.01754,0.0775 -0.02344,0.117187 -0.742154,0.02182 -1.336094,0.479364 -1.574219,1.169922 -0.07343,0.369094 -0.08104,0.740287 -0.01953,1.109375 0.0893,0.29567 0.215626,0.490485 0.414062,0.722656 0.462359,0.432587 0.994253,0.552419 1.607422,0.574219 4.867657,0.03969 4.868144,0.04082 5.675781,0.05273 0.271859,-0.0025 0.542595,-0.0039 0.814453,-0.0039 0.607217,-0.09128 0.851453,-0.545975 0.982422,-1.099609 0.09128,-0.750089 -0.146223,-1.52227 -0.783203,-1.96875 -0.277813,-0.152794 -0.581282,-0.265766 -0.876953,-0.38086 -0.05556,-0.02779 -0.112435,-0.05803 -0.166016,-0.09375 -0.0119,-0.128985 -0.02325,-0.25578 -0.03516,-0.384765 0,-0.38497 0.03246,-0.74592 0.08008,-1.128906 0.226218,-1.141006 0.702066,-2.433679 1.761719,-3.048829 0.424655,-0.206379 0.820971,-0.230321 1.275391,-0.115234 1.30373,0.450455 1.90511,1.938475 2.349609,3.117188 0.180577,0.539749 0.320766,1.09278 0.416016,1.65039 -0.02182,-0.05358 -0.0446,-0.108556 -0.06445,-0.160156 -0.04564,0.01588 -0.04489,0.01753 -0.294922,0.144531 -0.152796,0.02183 -0.292768,0.07508 -0.429688,0.144531 -0.736199,0.502048 -0.78906,1.481768 -0.541015,2.267579 0.03771,0.07342 0.07558,0.149209 0.113281,0.224609 0.253999,0.379017 0.553457,0.575293 1.003906,0.632812 1.869272,0.0079 3.742026,0.01549 5.613281,0.02539 0.321468,-0.01786 0.637797,-0.08229 0.941407,-0.189453 0.38298,-0.156763 0.68936,-0.367951 0.943359,-0.691406 0.257968,-0.386949 0.303734,-0.822952 0.240234,-1.275391 -0.01786,-0.06349 -0.0349,-0.127916 -0.05078,-0.191406 -0.192484,-0.494109 -0.567095,-0.777406 -1.019531,-1.021485 -0.289718,-0.123031 -0.571392,-0.200292 -0.875,-0.257812 0.04366,-0.307572 0.185936,-0.618423 0.285156,-0.912109 0.56356,-1.547801 1.145893,-3.092635 1.679688,-4.652344 0.0079,0.01985 0.0096,0.02007 0.265625,4.080078 0.595308,1.230306 1.191769,2.463053 1.789062,3.693359 0.660795,-1.141013 1.3235492,-2.282853 1.9863282,-3.421875 -0.9366199,-2.641191 -1.8808982,-5.304137 -3.1191402,-7.820312 0,-0.03969 1.08e-4,-0.03963 0.117187,-0.748047 0.517916,1.204507 1.015488,2.47452 1.892578,3.472656 0.3929024,0.371102 0.780504,0.620717 1.324219,0.396485 0.557604,-0.317495 1.0058771,-0.870943 1.3769531,-1.376953 1.395008,-2.09152 1.8844558,-4.60778 2.1523438,-7.066407 0.063499,-0.752073 0.092314,-1.507723 0.1835937,-2.257812 0.263921,-1.474383 0.8027064,-2.884962 1.0527344,-4.361328 0.097234,-0.803668 0.2661214,-1.911582 -0.5097656,-2.441407 -0.789776,-0.39489 -1.4839714,0.131535 -2.0058594,0.708985 -0.527841,0.636981 -0.9576904,1.362144 -1.4121094,2.054687 -0.327422,0.464341 -0.6407512,0.999003 -1.1289062,1.310547 -0.367106,0.128983 -0.7871102,-0.29372 -1.0351564,-0.494141 -1.527959,-1.347383 -2.933886,-2.9673 -4.90039,-3.679687 -0.307578,-0.0883 -0.665729,-0.142769 -0.994141,-0.09961 z"
         id="path148"
         inkscape:connector-curvature="0" />
      <path
         class="fil1"
         d="m -10.91158,73.494971 c -0.154779,-0.323454 -0.305591,-0.644918 -0.458386,-0.966389 1.4743821,-1.559708 1.4743821,-1.559708 1.4882721,-1.565662 0.05556,0.154778 0.111124,0.311547 0.166687,0.46831 -0.004,0.01191 -0.0079,0.02583 -0.01191,0.03969 -1.1211651,1.926817 -1.1211651,1.926817 -1.1707751,2.024055 -0.0059,0 -0.0099,0 -0.01389,0 z m -1.281897,-3.82982 c -0.0893,-1.466446 -0.0893,-1.466446 -0.09327,-1.639086 0.01191,0.0099 0.01191,0.0099 0.02778,0.0099 0.321468,-0.349255 0.642933,-0.696512 0.964401,-1.041797 0.156763,0.436563 0.317498,0.875105 0.476247,1.311668 -0.002,0.0079 -0.004,0.01783 -0.004,0.02778 -1.125133,1.099337 -1.125133,1.099337 -1.371194,1.331513 z"
         id="path150"
         inkscape:connector-curvature="0"
         style="clip-rule:evenodd;fill:#c5c6c6;fill-rule:evenodd;stroke-width:0.08819684;image-rendering:optimizeQuality;shape-rendering:geometricPrecision;text-rendering:geometricPrecision" />
      <path
         style="clip-rule:evenodd;fill:#fefefe;fill-rule:evenodd;stroke-width:0.08819684;image-rendering:optimizeQuality;shape-rendering:geometricPrecision;text-rendering:geometricPrecision"
         d="m -15.794922,50.029297 c -0.04837,7.45e-4 -0.09384,0.01497 -0.15039,0.05664 -0.121046,0.321466 0.06658,0.723736 0.179687,1.027343 0.551654,1.067588 1.405316,1.942178 1.960937,3.009766 0.180577,0.40481 0.298174,0.786001 0.339844,1.228515 0,0.206374 -0.0095,0.410814 -0.02734,0.617188 -0.08334,0.486169 -0.240204,0.858612 -0.490234,1.279297 -0.08731,0.111124 -0.172482,0.222828 -0.257812,0.335937 -0.583405,0.633011 -1.301381,1.103739 -2.007813,1.585938 -0.01588,0.08334 0.104996,0.297556 0.134766,0.378906 0.547683,1.121167 1.456599,2.026114 2.476562,2.72461 0.273841,0.168671 0.273533,0.167739 0.515625,0.30664 0.0099,0.002 0.02325,0.0074 0.03516,0.01172 0.02183,-0.06927 0.114272,-0.09217 0.175782,-0.06836 0.05953,-0.384964 0.08954,-0.77903 0.109375,-1.167969 0,-0.303609 -0.0373,-0.627583 0.222656,-0.835938 0.553637,-0.275832 0.816814,0.282565 1.039063,0.695313 0.208358,0.48815 0.208816,0.489585 0.839843,2.019531 0.351233,0.791759 0.693112,1.588582 1.2050784,2.289063 0.093264,0.109139 0.1951411,0.266551 0.3300781,0.332031 0.474263,-0.331387 0.832798,-0.82069 1.15625,-1.292969 0.51395,-0.827481 0.8489549,-1.729552 1.1386719,-2.65625 0.392904,-1.410884 0.6093301,-2.8384 0.7363281,-4.294922 0.0516,-0.887012 0.050345,-0.886768 0.078125,-1.255859 0.07739,-0.6727 0.2064545,-1.325567 0.3671875,-1.984375 0.174624,-0.636981 0.3507368,-1.273207 0.5273438,-1.908203 0.156766,-0.644918 0.3289706,-1.317599 0.2753906,-1.986329 -0.015875,-0.07144 -0.043486,-0.316151 -0.1347656,-0.332031 -0.482201,0.208358 -0.7277068,0.520659 -1.0273438,0.945313 -0.702465,1.079494 -0.7013151,1.079301 -1.0644531,1.625 -0.460373,0.633013 -0.9621772,1.36158 -1.7519531,1.59375 -0.4901361,0.107156 -0.8975488,-0.05094 -1.3261718,-0.289063 -0.736198,-0.496091 -1.360911,-1.123254 -2.007813,-1.730469 -0.837402,-0.765964 -1.698631,-1.478549 -2.728515,-1.972656 -0.228201,-0.09723 -0.463017,-0.198192 -0.703125,-0.263672 -0.06747,-0.0129 -0.117647,-0.02418 -0.166016,-0.02344 z m -1.3125,9.724609 c -1.244197,0.754058 -2.645633,1.156005 -4.064453,1.419922 -1.78196,0.295671 -3.586959,0.448328 -5.382813,0.628906 -1.514072,0.186525 -3.059067,0.37544 -4.517578,0.84375 -0.321468,0.125016 -0.641672,0.26505 -0.947265,0.425782 -0.698497,0.410764 -1.371722,0.878393 -2.076172,1.283203 -0.05399,0.02606 -0.10816,0.04262 -0.162109,0.06641 v 2.589844 c 0.250312,0.115067 0.476998,0.238202 0.71289,0.390625 1.514073,1.166806 2.264917,3.193039 2.185547,5.074218 -0.0635,0.615156 -0.205221,1.099579 -0.816406,1.34961 -0.101203,0.004 -0.201533,0.008 -0.302735,0.01172 -0.41275,0.101201 -0.53511,0.345567 -0.662109,0.726562 0,0.115093 0.04436,0.21709 0.08008,0.322266 0.08533,0.200417 0.188563,0.322281 0.369141,0.445312 0.156765,0.07937 0.301937,0.112906 0.476562,0.134766 5.425262,0.04561 5.424753,0.04668 6.234375,0.05859 0.101202,-0.0024 0.203453,-0.0041 0.306641,-0.0059 0.05159,-0.07144 0.08745,-0.139289 0.115234,-0.224609 0.07342,-0.458387 -0.02519,-0.759514 -0.410156,-1.023438 -0.289718,-0.123025 -0.589407,-0.232002 -0.865234,-0.382812 -0.259952,-0.182562 -0.387017,-0.35869 -0.492188,-0.650391 -0.202406,-0.896929 -0.03478,-1.886677 0.189453,-2.757812 0.289717,-0.912806 0.67694,-1.713707 1.347657,-2.40625 0.06747,-0.06151 0.133675,-0.124037 0.203124,-0.185547 0.474264,-0.369094 0.912597,-0.556996 1.501954,-0.658203 0.184547,-0.01191 0.185704,-0.01172 0.423828,-0.01172 0.507998,0.02579 0.928578,0.181735 1.371094,0.423828 0.519903,0.345279 0.92205,0.773349 1.283203,1.275391 0.408781,0.619125 0.736642,1.285784 0.964843,1.990234 0.206375,0.676666 0.375453,1.360067 0.470704,2.060547 0,0.23614 8.27e-4,0.438594 -0.175782,0.617188 -0.277809,0.218277 -0.654721,0.339091 -1,0.388671 -0.206373,0.07342 -0.243459,0.374047 -0.287109,0.558594 -0.01191,0.271856 0.05775,0.697756 0.359375,0.791016 1.801803,0.0079 3.602462,0.01549 5.40625,0.02539 0.525854,-0.04168 1.153876,-0.248785 1.304687,-0.822265 0,-0.621104 -0.850268,-0.82886 -1.304687,-0.90625 -0.184552,-0.01185 -0.184302,-0.01147 -0.263672,-0.02539 -0.781839,-0.23614 -0.334377,-1.488249 -0.185547,-1.986328 0.529824,-1.565662 1.133989,-3.110207 1.679688,-4.669922 0.315515,-0.952491 0.599703,-1.914415 0.841797,-2.884765 -0.0079,-0.121048 -0.01548,-0.240344 -0.02149,-0.357422 -0.126998,-0.06549 -0.255846,-0.127944 -0.380859,-0.189454 -0.418702,-0.240103 -0.822065,-0.499376 -1.207032,-0.787109 -0.144858,-0.117077 -0.286813,-0.236407 -0.429687,-0.355469 -0.492122,-0.456402 -0.929736,-0.94038 -1.298828,-1.501953 -0.194468,-0.367109 -0.393641,-0.734334 -0.574219,-1.109375 z m 4.853516,4.705078 c -0.0099,0.01786 -0.0086,0.01671 -0.205078,0.816407 0.006,0.206371 0.0062,0.206586 0.109375,1.847656 0.261937,-0.281779 0.523188,-0.563924 0.787109,-0.845703 0,-0.0079 0.0019,-0.01538 0.0039,-0.02148 -0.228204,-0.599279 -0.455204,-1.201564 -0.695312,-1.796875 z m 1.685547,4.558594 c -0.519905,0.504027 -1.040642,1.011562 -1.560547,1.517578 -0.002,0.06945 -4e-4,0.06769 0.02539,0.482422 0.134937,0.283763 0.273236,0.569721 0.410157,0.855469 0.498076,-0.525857 0.996064,-1.052269 1.49414,-1.578125 0.04167,0 0.08348,0.05431 0.115235,0.08008 -0.162719,-0.454418 -0.323642,-0.906973 -0.484375,-1.357422 z"
         id="path152"
         inkscape:connector-curvature="0" />
      <path
         class="fil3"
         d="m -10.70719,60.614465 c -0.252014,-0.04165 -0.386951,-0.125016 -0.583404,-0.283763 -0.750087,-0.867167 -0.761996,-2.355441 -0.103185,-3.274202 0.371076,-0.446481 0.85526,-0.525856 1.299759,-0.130967 0.5357781,0.581418 0.6369801,1.395008 0.5576051,2.157003 -0.101204,0.611185 -0.353216,1.321589 -1.0080571,1.514068 -0.05556,0.0061 -0.109139,0.01191 -0.162718,0.01789 z m 3.2960291,-0.252016 c -0.17264,-0.04366 -0.279795,-0.09723 -0.416717,-0.210341 -0.66873,-0.706434 -0.646903,-1.940708 -0.142874,-2.7285 0.327419,-0.398857 0.71437,-0.492123 1.121165,-0.142875 0.402828,0.484186 0.492122,1.017979 0.480217,1.637101 -0.05953,0.553639 -0.277812,1.331506 -0.916778,1.440645 -0.04167,0 -0.08334,0.0018 -0.125013,0.0043 z"
         id="path154"
         inkscape:connector-curvature="0"
         style="clip-rule:evenodd;display:inline;fill:#e31e24;fill-opacity:1;fill-rule:evenodd;stroke-width:0.08819684;image-rendering:optimizeQuality;shape-rendering:geometricPrecision;text-rendering:geometricPrecision" />
    </g>
    <path
       inkscape:connector-curvature="0"
       id="path158"
       d="m 353.31163,64.659757 a 33.422555,9.985717 0 0 1 0.0161,0.132137 33.422555,9.985717 0 0 1 -33.42277,9.985629 33.422555,9.985717 0 0 1 -33.42276,-9.985629 33.422555,9.985717 0 0 1 0.014,-0.07847 59.511385,14.856798 0 0 0 -25.98233,12.254863 59.511385,14.856798 0 0 0 59.51135,14.857732 59.511385,14.856798 0 0 0 59.51134,-14.857732 59.511385,14.856798 0 0 0 -26.22366,-12.308673 z"
       style="opacity:1;vector-effect:none;fill:#7e0000;fill-opacity:1;stroke:url(#linearGradient190);stroke-width:1.75;stroke-linecap:butt;stroke-linejoin:miter;stroke-miterlimit:4;stroke-dasharray:none;stroke-dashoffset:0;stroke-opacity:1;paint-order:normal" />
    <path
       inkscape:connector-curvature="0"
       id="path160"
       d="m 319.78414,28.258008 a 32.821425,36.776659 0 0 0 -32.8217,36.776895 32.821425,36.776659 0 0 0 0.047,1.511278 33.422555,9.985717 0 0 0 32.89458,8.231424 33.422555,9.985717 0 0 0 32.61679,-7.839364 32.821425,36.776659 0 0 0 0.0849,-1.903338 32.821425,36.776659 0 0 0 -32.8217,-36.776895 z"
       style="opacity:1;vector-effect:none;fill:#89cfd4;fill-opacity:0.31609198;stroke:#18686c;stroke-width:0.55000001;stroke-linecap:butt;stroke-linejoin:miter;stroke-miterlimit:4;stroke-dasharray:none;stroke-dashoffset:0;stroke-opacity:1;paint-order:normal" />
    <path
       inkscape:connector-curvature="0"
       d="m 310.00744,38.026305 2.6642,4.08921 c 1.01707,-0.459181 1.84501,-0.592562 2.94572,-0.852196 l -1.34095,-4.580457 c -1.23113,0.121647 -2.92318,0.733051 -4.26897,1.343443 z m -8.90672,8.651938 4.60467,1.996758 c 1.66211,-3.03642 3.10757,-4.428386 6.0348,-6.111671 l -2.76921,-4.006093 c -3.49265,2.042453 -6.19698,4.342293 -7.87026,8.121006 z"
       style="fill:#ffffff;fill-rule:evenodd;stroke:none;stroke-width:0.99999988px;stroke-linecap:butt;stroke-linejoin:miter;stroke-opacity:1"
       id="path162" />
    <path
       id="path164"
       style="fill:#ffffff;fill-rule:evenodd;stroke:none;stroke-width:0.99999994px;stroke-linecap:butt;stroke-linejoin:miter;stroke-opacity:1"
       d="m 301.84584,84.160695 -0.38082,-1.671826 c 1.36656,0.156633 2.29906,0.189545 3.60039,0.265678 l 2.07932,1.833838 c -1.32925,-0.0187 -3.48857,-0.219343 -5.29889,-0.42769 z m -15.43278,-3.193551 3.13674,-0.894408 c 3.94404,1.15535 6.43952,1.66886 10.64329,2.261966 l 0.21302,1.641593 c -5.04123,-0.721062 -9.48224,-1.562006 -13.99305,-3.009151 z"
       inkscape:connector-curvature="0" />
    <path
       inkscape:connector-curvature="0"
       id="path166"
       d="m 447.76827,28.258008 a 32.821425,36.776659 0 0 0 -32.8217,36.776895 32.821425,36.776659 0 0 0 0.047,1.511278 33.422555,9.985717 0 0 0 32.89458,8.231424 33.422555,9.985717 0 0 0 32.61677,-7.839364 32.821425,36.776659 0 0 0 0.0849,-1.903338 32.821425,36.776659 0 0 0 -32.82168,-36.776895 z"
       style="opacity:1;vector-effect:none;fill:#89cfd4;fill-opacity:0.54022983;stroke:#18686c;stroke-width:0.55000001;stroke-linecap:butt;stroke-linejoin:miter;stroke-miterlimit:4;stroke-dasharray:none;stroke-dashoffset:0;stroke-opacity:1;paint-order:normal" />
    <path
       style="opacity:1;vector-effect:none;fill:#550000;fill-opacity:0.9885057;stroke:#380000;stroke-width:1.75;stroke-linecap:butt;stroke-linejoin:miter;stroke-miterlimit:4;stroke-dasharray:none;stroke-dashoffset:0;stroke-opacity:1;paint-order:normal"
       d="m 413.54714,89.058794 a 34.624807,11.690595 0 0 0 34.34105,10.317699 34.624807,11.690595 0 0 0 34.33497,-10.262344 59.511385,14.856798 0 0 1 -34.21506,2.712014 59.511385,14.856798 0 0 1 -34.46096,-2.767369 z"
       id="path168"
       inkscape:connector-curvature="0" />
    <path
       style="opacity:1;vector-effect:none;fill:#086d1a;fill-opacity:1;stroke:none;stroke-width:1.75;stroke-linecap:butt;stroke-linejoin:miter;stroke-miterlimit:4;stroke-dasharray:none;stroke-dashoffset:0;stroke-opacity:1;paint-order:normal"
       d="m 447.78162,58.036331 a 41.958528,15.273844 0 0 0 -32.80525,5.777526 32.821425,37.50163 0 0 0 -0.0313,1.028375 32.821425,37.50163 0 0 0 0.047,1.542565 33.422555,10.182563 0 0 0 32.8954,8.392999 33.422555,10.182563 0 0 0 32.61707,-7.992177 32.821425,37.50163 0 0 0 0.0863,-1.943387 32.821425,37.50163 0 0 0 -0.047,-1.064812 41.958528,15.273844 0 0 0 -32.76211,-5.741089 z"
       id="path170"
       inkscape:connector-curvature="0" />
    <g
       id="g180"
       transform="matrix(0.84794438,0,0,0.84794438,234.00586,-21.696474)"
       style="stroke-width:1.1793226">
      <path
         inkscape:connector-curvature="0"
         id="path172"
         d="m 243.9939,75.41106 c -0.65911,0.08774 -1.26009,0.377244 -1.64241,1.004523 -0.50579,1.04883 -0.38107,2.142653 -0.0784,3.23989 0.10354,0.282378 0.21005,0.563331 0.31359,0.845707 0.80845,1.726534 1.97012,3.195652 3.06532,4.74469 0.65712,1.020591 1.28352,2.013438 1.4229,3.24783 0,1.762842 -1.12478,2.885701 -2.38326,3.946628 -0.458,0.34692 -0.45714,0.34681 -3.53963,2.529175 -2.14659,1.41995 -4.44127,2.245685 -6.92638,2.850785 -0.3425,0.0686 -0.6807,0.14179 -1.01524,0.2144 -3.50066,0.6293 -7.05106,0.9194 -10.58359,1.282455 -3.36924,0.39936 -6.80117,0.816327 -10.02306,1.925667 -0.82439,0.31061 -1.58695,0.68444 -2.37151,1.09187 -0.99501,0.58816 -1.95592,1.23509 -2.93988,1.84229 v 10.08495 c 0.12449,0.0815 0.25127,0.16231 0.37238,0.24617 2.04703,1.69828 2.99963,4.15196 3.43771,6.7458 0.0876,0.79468 0.0786,1.51655 -0.18031,2.28301 -0.0159,0.0807 -0.0352,0.15755 -0.047,0.23822 -1.48947,0.0444 -2.68149,0.97449 -3.1594,2.37831 -0.14737,0.75032 -0.16264,1.5049 -0.0392,2.25521 0.17922,0.60106 0.43276,0.9971 0.83101,1.46907 0.92794,0.87939 1.99543,1.123 3.22604,1.16731 9.76921,0.0807 9.77019,0.083 11.39108,0.1072 0.54561,-0.005 1.08897,-0.008 1.63458,-0.008 1.21866,-0.18556 1.70884,-1.1099 1.97168,-2.23537 0.1832,-1.52483 -0.29346,-3.09458 -1.57185,-4.00221 -0.55756,-0.31061 -1.16662,-0.54027 -1.76002,-0.77424 -0.1115,-0.0565 -0.22565,-0.11797 -0.33318,-0.19059 -0.0239,-0.26221 -0.0467,-0.51996 -0.0706,-0.78217 0,-0.7826 0.0652,-1.51636 0.16071,-2.29492 0.45401,-2.31952 1.40902,-4.94736 3.53571,-6.19788 0.85226,-0.41954 1.64765,-0.46821 2.55966,-0.23426 2.61654,0.91572 3.82348,3.94067 4.71558,6.33684 0.36241,1.09725 0.64376,2.22149 0.83493,3.35504 -0.0438,-0.10893 -0.0895,-0.22068 -0.12935,-0.32558 -0.0916,0.0323 -0.0901,0.0356 -0.5919,0.29381 -0.30666,0.0444 -0.58757,0.15263 -0.86237,0.29382 -1.47752,1.02059 -1.58361,3.01224 -1.08579,4.60969 0.0757,0.14926 0.15168,0.30333 0.22735,0.4566 0.50976,0.7705 1.11076,1.1695 2.0148,1.28643 3.75156,0.0161 7.51011,0.0315 11.26565,0.0516 0.64517,-0.0363 1.28003,-0.16729 1.88937,-0.38513 0.76863,-0.31868 1.38352,-0.748 1.89329,-1.40554 0.51773,-0.78662 0.60958,-1.67296 0.48214,-2.59271 -0.0358,-0.12907 -0.07,-0.26004 -0.10192,-0.3891 -0.38631,-1.00446 -1.13814,-1.58037 -2.04616,-2.07655 -0.58145,-0.25011 -1.14676,-0.40717 -1.75609,-0.5241 0.0876,-0.62526 0.37316,-1.25718 0.5723,-1.8542 1.13104,-3.14648 2.29976,-6.28693 3.37107,-9.45762 0.0159,0.0404 0.0193,0.0408 0.5331,8.29427 1.19476,2.50106 2.39184,5.00708 3.59058,7.50813 1.32619,-2.31953 2.65632,-4.64075 3.98649,-6.95623 -1.87976,-5.3692 -3.77489,-10.78263 -6.26,-15.89769 0,-0.0807 2.2e-4,-0.0806 0.23519,-1.52069 1.03944,2.44861 2.03805,5.03039 3.79833,7.05947 0.78855,0.7544 1.56645,1.26184 2.65766,0.806 1.11909,-0.64543 2.01876,-1.77051 2.7635,-2.79917 2.79973,-4.25179 3.78203,-9.367017 4.31967,-14.365082 0.12744,-1.52887 0.18527,-3.065005 0.36847,-4.58984 0.52968,-2.997232 1.611,-5.864758 2.1128,-8.866021 0.19514,-1.633754 0.53409,-3.886001 -1.02308,-4.963068 -1.58505,-0.80276 -2.97828,0.267394 -4.02569,1.441276 -1.05936,1.294901 -1.92205,2.769064 -2.83405,4.176915 -0.65712,0.943946 -1.28596,2.030846 -2.26567,2.664175 -0.73677,0.262206 -1.57971,-0.597095 -2.07753,-1.004526 -3.06655,-2.739057 -5.8882,-6.03214 -9.8349,-7.480332 -0.6173,-0.179503 -1.33609,-0.290231 -1.99521,-0.202494 z"
         style="clip-rule:evenodd;fill:#1c1b17;fill-rule:evenodd;stroke-width:0.17814669;image-rendering:optimizeQuality;shape-rendering:geometricPrecision;text-rendering:geometricPrecision" />
      <path
         style="clip-rule:evenodd;fill:#c5c6c6;fill-rule:evenodd;stroke-width:0.17814669;image-rendering:optimizeQuality;shape-rendering:geometricPrecision;text-rendering:geometricPrecision"
         inkscape:connector-curvature="0"
         id="path174"
         d="m 254.14738,125.05927 c -0.31064,-0.65754 -0.61331,-1.31104 -0.91997,-1.96455 2.95903,-3.17068 2.95903,-3.17068 2.98691,-3.18279 0.11151,0.31465 0.22302,0.63334 0.33454,0.95202 -0.008,0.0242 -0.0159,0.0525 -0.0239,0.0807 -2.25013,3.91697 -2.25013,3.91697 -2.3497,4.11464 -0.0118,0 -0.0199,0 -0.0279,0 z m -2.57272,-7.78553 c -0.17923,-2.9811 -0.17923,-2.9811 -0.18719,-3.33205 0.0239,0.0201 0.0239,0.0201 0.0558,0.0201 0.64518,-0.70999 1.29034,-1.41592 1.93552,-2.11784 0.31462,0.88747 0.63721,1.77897 0.95581,2.66645 -0.004,0.0161 -0.008,0.0363 -0.008,0.0565 -2.2581,2.23481 -2.2581,2.23481 -2.75194,2.70679 z"
         class="fil1" />
      <path
         inkscape:connector-curvature="0"
         id="path176"
         d="m 244.34669,77.356581 c -0.0971,0.0015 -0.18833,0.03043 -0.30183,0.115142 -0.24293,0.653499 0.13363,1.471262 0.36063,2.088457 1.10715,2.170269 2.82042,3.948199 3.93553,6.118468 0.36241,0.822927 0.59842,1.59784 0.68205,2.497414 0,0.419532 -0.0191,0.835132 -0.0549,1.254664 -0.16726,0.988319 -0.48208,1.745448 -0.98388,2.600647 -0.17523,0.225905 -0.34616,0.452985 -0.51742,0.682915 -1.17087,1.28683 -2.61182,2.243755 -4.02961,3.224005 -0.0319,0.16942 0.21073,0.60489 0.27047,0.77027 1.09918,2.279185 2.92335,4.118817 4.97037,5.538767 0.54959,0.34289 0.54897,0.34099 1.03484,0.62336 0.0199,0.004 0.0467,0.015 0.0706,0.0238 0.0438,-0.14082 0.22934,-0.18737 0.35279,-0.13897 0.11948,-0.78258 0.17971,-1.58366 0.21952,-2.37433 0,-0.617197 -0.0749,-1.275782 0.44686,-1.699342 1.11113,-0.56073 1.63931,0.574415 2.08536,1.413472 0.41817,0.99235 0.41909,0.99526 1.68553,4.10545 0.70492,1.60954 1.39105,3.22938 2.41855,4.65337 0.18718,0.22186 0.39164,0.54186 0.66246,0.67498 0.95183,-0.67367 1.67139,-1.66836 2.32055,-2.62844 1.03148,-1.68217 1.70382,-3.51596 2.28527,-5.39982 0.78855,-2.868142 1.2229,-5.770087 1.47779,-8.731012 0.10355,-1.803178 0.10104,-1.802682 0.15679,-2.552997 0.15532,-1.367513 0.41435,-2.694708 0.73693,-4.03398 0.35047,-1.294901 0.70392,-2.588267 1.05836,-3.879132 0.31462,-1.311036 0.66023,-2.67851 0.5527,-4.037953 -0.0319,-0.145228 -0.0873,-0.642694 -0.27047,-0.674976 -0.96776,0.423565 -1.46048,1.058433 -2.06184,1.9217 -1.40982,2.194473 -1.40752,2.194081 -2.13632,3.303417 -0.92395,1.286834 -1.93105,2.767918 -3.51611,3.23989 -0.98368,0.217834 -1.80134,-0.103555 -2.66157,-0.587628 -1.47753,-1.00849 -2.7313,-2.283432 -4.02961,-3.517822 -1.68064,-1.557107 -3.40909,-3.005701 -5.47603,-4.010157 -0.45799,-0.197656 -0.92926,-0.402899 -1.41115,-0.536012 -0.13541,-0.02622 -0.23611,-0.04915 -0.33319,-0.04765 z m -2.63414,19.768877 c -2.49706,1.5329 -5.30969,2.350005 -8.15721,2.886512 -3.57633,0.60106 -7.19889,0.91139 -10.8031,1.27848 -3.03869,0.37918 -6.13944,0.76322 -9.06662,1.71524 -0.64517,0.25414 -1.28781,0.53881 -1.90112,0.86556 -1.40186,0.83503 -2.753,1.78566 -4.16681,2.60859 -0.10835,0.053 -0.21707,0.0866 -0.32534,0.135 v 5.26482 c 0.50236,0.23392 0.95731,0.48423 1.43074,0.79409 3.03869,2.37197 4.54561,6.49104 4.38631,10.31523 -0.12744,1.25054 -0.41187,2.23531 -1.63849,2.74359 -0.20311,0.008 -0.40447,0.0163 -0.60758,0.0238 -0.82837,0.20573 -1.07395,0.70249 -1.32883,1.477 0,0.23397 0.089,0.44132 0.16072,0.65513 0.17125,0.40742 0.37844,0.65516 0.74085,0.90526 0.31462,0.16135 0.60598,0.22953 0.95644,0.27396 10.88831,0.0927 10.88728,0.0949 12.51217,0.11911 0.20311,-0.005 0.40832,-0.008 0.61541,-0.012 0.10354,-0.14523 0.17551,-0.28316 0.23127,-0.4566 0.14736,-0.93184 -0.0506,-1.544 -0.82316,-2.08052 -0.58146,-0.25009 -1.18292,-0.47163 -1.7365,-0.77821 -0.52171,-0.37112 -0.77673,-0.72917 -0.9878,-1.32216 -0.40622,-1.82334 -0.0698,-3.83537 0.38022,-5.60628 0.58146,-1.85562 1.3586,-3.48374 2.7047,-4.89159 0.13541,-0.12504 0.26828,-0.25215 0.40767,-0.3772 0.95183,-0.75032 1.83154,-1.1323 3.01436,-1.33804 0.37038,-0.0242 0.3727,-0.0238 0.85061,-0.0238 1.01953,0.0524 1.86362,0.36945 2.75173,0.86159 1.04343,0.70191 1.85052,1.57212 2.57534,2.5927 0.82041,1.2586 1.47842,2.61384 1.93641,4.04589 0.41419,1.37558 0.75352,2.76485 0.94468,4.18883 0,0.48004 0.002,0.89161 -0.35278,1.25467 -0.55756,0.44372 -1.314,0.68932 -2.00697,0.79011 -0.41418,0.14926 -0.48861,0.76039 -0.57621,1.13555 -0.0239,0.55265 0.1159,1.41845 0.72125,1.60804 3.61615,0.0161 7.23001,0.0315 10.85014,0.0516 1.05537,-0.0847 2.31579,-0.50575 2.61846,-1.67156 0,-1.26263 -1.70645,-1.68497 -2.61846,-1.84229 -0.37038,-0.0241 -0.36988,-0.0233 -0.52918,-0.0516 -1.56912,-0.48004 -0.67108,-3.02542 -0.37238,-4.03795 1.06334,-3.18279 2.27587,-6.32265 3.37107,-9.49335 0.63323,-1.93629 1.20358,-3.89176 1.68946,-5.86436 -0.0158,-0.24607 -0.0311,-0.48859 -0.0431,-0.72659 -0.25488,-0.13313 -0.51348,-0.2601 -0.76437,-0.38514 -0.84032,-0.4881 -1.64986,-1.01516 -2.42247,-1.60009 -0.29073,-0.238 -0.57563,-0.48058 -0.86237,-0.72262 -0.98767,-0.92781 -1.86595,-1.91167 -2.6067,-3.053277 -0.39029,-0.746285 -0.79002,-1.492805 -1.15244,-2.255215 z m 9.74083,9.564812 c -0.0199,0.0363 -0.0173,0.034 -0.41159,1.65965 0.0121,0.41952 0.0125,0.41996 0.21952,3.75605 0.52569,-0.57282 1.05001,-1.14639 1.57969,-1.71921 0,-0.0161 0.004,-0.0313 0.008,-0.0437 -0.458,-1.21826 -0.91358,-2.44263 -1.39546,-3.65282 z m 3.38283,9.26703 c -1.04343,1.02462 -2.08853,2.05638 -3.13196,3.08504 -0.004,0.14119 -8e-4,0.13761 0.051,0.98071 0.27081,0.57685 0.54837,1.15817 0.82317,1.73906 0.99962,-1.069 1.99906,-2.13913 2.99868,-3.20813 0.0836,0 0.16754,0.1104 0.23127,0.16279 -0.32657,-0.92377 -0.64954,-1.84376 -0.97212,-2.75946 z"
         style="clip-rule:evenodd;fill:#fefefe;fill-rule:evenodd;stroke-width:0.17814669;image-rendering:optimizeQuality;shape-rendering:geometricPrecision;text-rendering:geometricPrecision" />
      <path
         style="clip-rule:evenodd;display:inline;fill:#e31e24;fill-opacity:1;fill-rule:evenodd;stroke-width:0.17814669;image-rendering:optimizeQuality;shape-rendering:geometricPrecision;text-rendering:geometricPrecision"
         inkscape:connector-curvature="0"
         id="path178"
         d="m 261.17259,98.362548 c -0.34648,-0.0888 -0.56154,-0.19766 -0.83634,-0.4276 -1.34211,-1.436085 -1.29831,-3.9452 -0.28674,-5.54668 0.65712,-0.810825 1.43372,-1.000423 2.25014,-0.29045 0.80846,0.98429 0.98767,2.06942 0.96378,3.328015 -0.11948,1.12548 -0.55756,2.706775 -1.83994,2.928645 -0.0836,0 -0.16726,0.004 -0.2509,0.009 z"
         class="fil3"
         sodipodi:nodetypes="cccccccc" />
      <rect
         style="opacity:1;vector-effect:none;fill:#ff2a2a;fill-opacity:1;stroke:none;stroke-width:2.06381464;stroke-linecap:butt;stroke-linejoin:miter;stroke-miterlimit:4;stroke-dasharray:none;stroke-dashoffset:0;stroke-opacity:1;paint-order:normal"
         id="rect204"
         width="4.7957759"
         height="1.3728242"
         x="252.12123"
         y="94.293304" />
      <rect
         style="display:none;opacity:1;vector-effect:none;fill:#ff2a2a;fill-opacity:1;stroke:none;stroke-width:2.06381464;stroke-linecap:butt;stroke-linejoin:miter;stroke-miterlimit:4;stroke-dasharray:none;stroke-dashoffset:0;stroke-opacity:1;paint-order:normal"
         id="rect206"
         width="1.922051"
         height="0.62336445"
         x="-8.3368092"
         y="58.360722" />
    </g>
    <path
       style="opacity:1;vector-effect:none;fill:#7e0000;fill-opacity:1;stroke:url(#linearGradient192);stroke-width:1.75;stroke-linecap:butt;stroke-linejoin:miter;stroke-miterlimit:4;stroke-dasharray:none;stroke-dashoffset:0;stroke-opacity:1;paint-order:normal"
       d="m 481.29576,64.659757 a 33.422555,9.985717 0 0 1 0.0161,0.132137 33.422555,9.985717 0 0 1 -33.42275,9.985629 33.422555,9.985717 0 0 1 -33.42277,-9.985629 33.422555,9.985717 0 0 1 0.014,-0.07847 59.511385,14.856798 0 0 0 -25.98235,12.254863 59.511385,14.856798 0 0 0 59.51137,14.857732 59.511385,14.856798 0 0 0 59.51132,-14.857732 59.511385,14.856798 0 0 0 -26.22366,-12.308673 z"
       id="path182"
       inkscape:connector-curvature="0" />
    <path
       style="opacity:1;vector-effect:none;fill:#89cfd4;fill-opacity:0.31609198;stroke:#18686c;stroke-width:0.55000001;stroke-linecap:butt;stroke-linejoin:miter;stroke-miterlimit:4;stroke-dasharray:none;stroke-dashoffset:0;stroke-opacity:1;paint-order:normal"
       d="m 447.76827,28.258008 a 32.821425,36.776659 0 0 0 -32.8217,36.776895 32.821425,36.776659 0 0 0 0.047,1.511278 33.422555,9.985717 0 0 0 32.89458,8.231424 33.422555,9.985717 0 0 0 32.61677,-7.839364 32.821425,36.776659 0 0 0 0.0849,-1.903338 32.821425,36.776659 0 0 0 -32.82168,-36.776895 z"
       id="path184"
       inkscape:connector-curvature="0" />
    <path
       id="path186"
       style="fill:#ffffff;fill-rule:evenodd;stroke:none;stroke-width:0.99999988px;stroke-linecap:butt;stroke-linejoin:miter;stroke-opacity:1"
       d="m 437.99157,38.026305 2.6642,4.08921 c 1.01709,-0.459181 1.84501,-0.592562 2.94574,-0.852196 l -1.34095,-4.580457 c -1.23115,0.121647 -2.9232,0.733051 -4.26899,1.343443 z m -8.9067,8.651938 4.60465,1.996758 c 1.66211,-3.03642 3.10757,-4.428386 6.03482,-6.111671 l -2.76921,-4.006093 c -3.49265,2.042453 -6.19698,4.342293 -7.87026,8.121006 z"
       inkscape:connector-curvature="0" />
    <path
       inkscape:connector-curvature="0"
       d="m 429.82997,84.160695 -0.3808,-1.671826 c 1.36654,0.156633 2.29904,0.189545 3.60037,0.265678 l 2.07932,1.833838 c -1.32923,-0.0187 -3.48857,-0.219343 -5.29889,-0.42769 z m -15.43278,-3.193551 3.13674,-0.894408 c 3.94404,1.15535 6.43952,1.66886 10.64331,2.261966 l 0.213,1.641593 c -5.04124,-0.721062 -9.48222,-1.562006 -13.99305,-3.009151 z"
       style="fill:#ffffff;fill-rule:evenodd;stroke:none;stroke-width:0.99999994px;stroke-linecap:butt;stroke-linejoin:miter;stroke-opacity:1"
       id="path188" />
    <ellipse
       style="opacity:1;vector-effect:none;fill:#ffffff;fill-opacity:1;stroke:none;stroke-width:1.75;stroke-linecap:butt;stroke-linejoin:miter;stroke-miterlimit:4;stroke-dasharray:none;stroke-dashoffset:0;stroke-opacity:1;paint-order:normal"
       id="path194"
       cx="64.164261"
       cy="86.343246"
       rx="2.711194"
       ry="2.9750428" />
    <ellipse
       ry="2.9750428"
       rx="2.711194"
       cy="83.192894"
       cx="149.13078"
       id="ellipse196"
       style="opacity:1;vector-effect:none;fill:#ffffff;fill-opacity:1;stroke:none;stroke-width:1.75;stroke-linecap:butt;stroke-linejoin:miter;stroke-miterlimit:4;stroke-dasharray:none;stroke-dashoffset:0;stroke-opacity:1;paint-order:normal" />
    <ellipse
       style="opacity:1;vector-effect:none;fill:#ffffff;fill-opacity:1;stroke:none;stroke-width:1.75;stroke-linecap:butt;stroke-linejoin:miter;stroke-miterlimit:4;stroke-dasharray:none;stroke-dashoffset:0;stroke-opacity:1;paint-order:normal"
       id="ellipse198"
       cx="491.16574"
       cy="83.192894"
       rx="2.711194"
       ry="2.9750428" />
    <ellipse
       ry="2.9750428"
       rx="2.711194"
       cy="75.061401"
       cx="261.47522"
       id="ellipse200"
       style="display:inline;opacity:1;vector-effect:none;fill:#ffffff;fill-opacity:1;stroke:none;stroke-width:1.75;stroke-linecap:butt;stroke-linejoin:miter;stroke-miterlimit:4;stroke-dasharray:none;stroke-dashoffset:0;stroke-opacity:1;paint-order:normal" />
    <ellipse
       style="display:inline;opacity:1;vector-effect:none;fill:#ffffff;fill-opacity:1;stroke:none;stroke-width:1.75;stroke-linecap:butt;stroke-linejoin:miter;stroke-miterlimit:4;stroke-dasharray:none;stroke-dashoffset:0;stroke-opacity:1;paint-order:normal"
       id="ellipse202"
       cx="378.78284"
       cy="75.061401"
       rx="2.711194"
       ry="2.9750428" />
  </g>
</svg>
