<?xml version="1.0" encoding="UTF-8" standalone="no"?>
<!-- Created with Inkscape (http://www.inkscape.org/) -->

<svg
   xmlns:dc="http://purl.org/dc/elements/1.1/"
   xmlns:cc="http://creativecommons.org/ns#"
   xmlns:rdf="http://www.w3.org/1999/02/22-rdf-syntax-ns#"
   xmlns:svg="http://www.w3.org/2000/svg"
   xmlns="http://www.w3.org/2000/svg"
   xmlns:sodipodi="http://sodipodi.sourceforge.net/DTD/sodipodi-0.dtd"
   xmlns:inkscape="http://www.inkscape.org/namespaces/inkscape"
   width="512px"
   height="128px"
   viewBox="0 0 512 128"
   version="1.1"
   id="SVGRoot"
   inkscape:version="0.92.3 (2405546, 2018-03-11)"
   sodipodi:docname="rockvectsprite.svg">
  <sodipodi:namedview
     id="base"
     pagecolor="#ffffff"
     bordercolor="#666666"
     borderopacity="1.0"
     inkscape:pageopacity="0.0"
     inkscape:pageshadow="2"
     inkscape:zoom="1.5873213"
     inkscape:cx="255.90191"
     inkscape:cy="63.999996"
     inkscape:document-units="px"
     inkscape:current-layer="layer1"
     showgrid="true"
     inkscape:window-width="1323"
     inkscape:window-height="713"
     inkscape:window-x="0"
     inkscape:window-y="27"
     inkscape:window-maximized="1"
     inkscape:pagecheckerboard="true"
     inkscape:snap-global="false">
    <inkscape:grid
       type="xygrid"
       id="grid170"
       empspacing="4" />
  </sodipodi:namedview>
  <defs
     id="defs112" />
  <metadata
     id="metadata115">
    <rdf:RDF>
      <cc:Work
         rdf:about="">
        <dc:format>image/svg+xml</dc:format>
        <dc:type
           rdf:resource="http://purl.org/dc/dcmitype/StillImage" />
        <dc:title></dc:title>
      </cc:Work>
    </rdf:RDF>
  </metadata>
  <g
     id="layer1"
     inkscape:groupmode="layer"
     inkscape:label="Layer 1">
    <path
       sodipodi:type="star"
       style="opacity:1;vector-effect:none;fill:#ffffff;fill-opacity:1;stroke:none;stroke-width:0.38281649;stroke-linecap:butt;stroke-linejoin:miter;stroke-miterlimit:4;stroke-dasharray:none;stroke-dashoffset:0;stroke-opacity:0.96682697;paint-order:normal"
       id="path172"
       sodipodi:sides="16"
       sodipodi:cx="31.953381"
       sodipodi:cy="32.139847"
       sodipodi:r1="24.308887"
       sodipodi:r2="20.127758"
       sodipodi:arg1="-1.5788607"
       sodipodi:arg2="-1.3825111"
       inkscape:flatsided="false"
       inkscape:rounded="0.5"
       inkscape:randomized="0"
       d="m 31.757347,7.8317498 c 3.011743,-0.024288 1.004829,3.9723242 3.963441,4.5360642 2.95861,0.56374 2.562005,-3.8908438 5.353787,-2.7607394 2.791782,1.1301044 -0.591801,4.0544804 1.925865,5.7075204 2.517666,1.653039 3.855946,-2.614234 6.002744,-0.501785 2.146798,2.112449 -2.098335,3.519379 -0.404906,6.010057 1.69343,2.490678 4.562854,-0.93963 5.737837,1.833562 1.174983,2.773193 -3.285417,2.448484 -2.674034,5.397619 0.611384,2.949134 4.575108,0.878023 4.599397,3.889765 0.02429,3.011743 -3.972324,1.004829 -4.536064,3.963441 -0.563741,2.958611 3.890843,2.562006 2.760739,5.353787 -1.130105,2.791783 -4.05448,-0.591801 -5.70752,1.925866 -1.653039,2.517665 2.614234,3.855946 0.501785,6.002743 -2.11245,2.146798 -3.519379,-2.098335 -6.010058,-0.404905 -2.490678,1.693429 0.93963,4.562853 -1.833562,5.737836 -2.773193,1.174984 -2.448484,-3.285417 -5.397618,-2.674033 -2.949134,0.611383 -0.878024,4.575108 -3.889766,4.599396 -3.011743,0.02429 -1.004829,-3.972324 -3.963441,-4.536064 -2.95861,-0.56374 -2.562005,3.890843 -5.353787,2.760739 -2.791782,-1.130105 0.591801,-4.05448 -1.925865,-5.70752 -2.517666,-1.653039 -3.855946,2.614234 -6.002744,0.501785 -2.146798,-2.11245 2.098336,-3.519379 0.404906,-6.010058 -1.693429,-2.490678 -4.562854,0.939631 -5.7378368,-1.833562 -1.1749835,-2.773193 3.2854168,-2.448483 2.6740338,-5.397618 -0.611384,-2.949134 -4.5751083,-0.878023 -4.5993964,-3.889765 -0.024288,-3.011743 3.9723234,-1.00483 4.5360644,-3.963441 0.56374,-2.958611 -3.8908441,-2.562006 -2.7607396,-5.353788 1.1301046,-2.791782 4.0544806,0.591802 5.7075196,-1.925865 1.65304,-2.517666 -2.614233,-3.855946 -0.501785,-6.002744 2.11245,-2.146798 3.519379,2.098336 6.010058,0.404906 2.490678,-1.693429 -0.93963,-4.562854 1.833562,-5.7378366 2.773193,-1.1749835 2.448484,3.2854176 5.397619,2.6740336 2.949133,-0.611383 0.878023,-4.5751081 3.889765,-4.5993962 z"
       transform="matrix(0.98724529,0.00989219,-0.00989219,0.98724529,0.77210894,-0.046001)" />
    <path
       transform="matrix(0.98629865,0.04434053,-0.04434053,0.98629865,65.909522,-1.1163171)"
       d="m 31.757347,7.8317498 c 3.011743,-0.024288 1.004829,3.9723242 3.963441,4.5360642 2.95861,0.56374 2.562005,-3.8908438 5.353787,-2.7607394 2.791782,1.1301044 -0.591801,4.0544804 1.925865,5.7075204 2.517666,1.653039 3.855946,-2.614234 6.002744,-0.501785 2.146798,2.112449 -2.098335,3.519379 -0.404906,6.010057 1.69343,2.490678 4.562854,-0.93963 5.737837,1.833562 1.174983,2.773193 -3.285417,2.448484 -2.674034,5.397619 0.611384,2.949134 4.575108,0.878023 4.599397,3.889765 0.02429,3.011743 -3.972324,1.004829 -4.536064,3.963441 -0.563741,2.958611 3.890843,2.562006 2.760739,5.353787 -1.130105,2.791783 -4.05448,-0.591801 -5.70752,1.925866 -1.653039,2.517665 2.614234,3.855946 0.501785,6.002743 -2.11245,2.146798 -3.519379,-2.098335 -6.010058,-0.404905 -2.490678,1.693429 0.93963,4.562853 -1.833562,5.737836 -2.773193,1.174984 -2.448484,-3.285417 -5.397618,-2.674033 -2.949134,0.611383 -0.878024,4.575108 -3.889766,4.599396 -3.011743,0.02429 -1.004829,-3.972324 -3.963441,-4.536064 -2.95861,-0.56374 -2.562005,3.890843 -5.353787,2.760739 -2.791782,-1.130105 0.591801,-4.05448 -1.925865,-5.70752 -2.517666,-1.653039 -3.855946,2.614234 -6.002744,0.501785 -2.146798,-2.11245 2.098336,-3.519379 0.404906,-6.010058 -1.693429,-2.490678 -4.562854,0.939631 -5.7378368,-1.833562 -1.1749835,-2.773193 3.2854168,-2.448483 2.6740338,-5.397618 -0.611384,-2.949134 -4.5751083,-0.878023 -4.5993964,-3.889765 -0.024288,-3.011743 3.9723234,-1.00483 4.5360644,-3.963441 0.56374,-2.958611 -3.8908441,-2.562006 -2.7607396,-5.353788 1.1301046,-2.791782 4.0544806,0.591802 5.7075196,-1.925865 1.65304,-2.517666 -2.614233,-3.855946 -0.501785,-6.002744 2.11245,-2.146798 3.519379,2.098336 6.010058,0.404906 2.490678,-1.693429 -0.93963,-4.562854 1.833562,-5.7378366 2.773193,-1.1749835 2.448484,3.2854176 5.397619,2.6740336 2.949133,-0.611383 0.878023,-4.5751081 3.889765,-4.5993962 z"
       inkscape:randomized="0"
       inkscape:rounded="0.5"
       inkscape:flatsided="false"
       sodipodi:arg2="-1.3825111"
       sodipodi:arg1="-1.5788607"
       sodipodi:r2="20.127758"
       sodipodi:r1="24.308887"
       sodipodi:cy="32.139847"
       sodipodi:cx="31.953381"
       sodipodi:sides="16"
       id="path174"
       style="opacity:1;vector-effect:none;fill:#ffffff;fill-opacity:1;stroke:none;stroke-width:0.38281649;stroke-linecap:butt;stroke-linejoin:miter;stroke-miterlimit:4;stroke-dasharray:none;stroke-dashoffset:0;stroke-opacity:0.96682697;paint-order:normal"
       sodipodi:type="star" />
    <path
       transform="matrix(0.98415036,0.07873485,-0.07873485,0.98415036,131.08359,-2.1462861)"
       d="m 31.757347,7.8317498 c 3.011743,-0.024288 1.004829,3.9723242 3.963441,4.5360642 2.95861,0.56374 2.562005,-3.8908438 5.353787,-2.7607394 2.791782,1.1301044 -0.591801,4.0544804 1.925865,5.7075204 2.517666,1.653039 3.855946,-2.614234 6.002744,-0.501785 2.146798,2.112449 -2.098335,3.519379 -0.404906,6.010057 1.69343,2.490678 4.562854,-0.93963 5.737837,1.833562 1.174983,2.773193 -3.285417,2.448484 -2.674034,5.397619 0.611384,2.949134 4.575108,0.878023 4.599397,3.889765 0.02429,3.011743 -3.972324,1.004829 -4.536064,3.963441 -0.563741,2.958611 3.890843,2.562006 2.760739,5.353787 -1.130105,2.791783 -4.05448,-0.591801 -5.70752,1.925866 -1.653039,2.517665 2.614234,3.855946 0.501785,6.002743 -2.11245,2.146798 -3.519379,-2.098335 -6.010058,-0.404905 -2.490678,1.693429 0.93963,4.562853 -1.833562,5.737836 -2.773193,1.174984 -2.448484,-3.285417 -5.397618,-2.674033 -2.949134,0.611383 -0.878024,4.575108 -3.889766,4.599396 -3.011743,0.02429 -1.004829,-3.972324 -3.963441,-4.536064 -2.95861,-0.56374 -2.562005,3.890843 -5.353787,2.760739 -2.791782,-1.130105 0.591801,-4.05448 -1.925865,-5.70752 -2.517666,-1.653039 -3.855946,2.614234 -6.002744,0.501785 -2.146798,-2.11245 2.098336,-3.519379 0.404906,-6.010058 -1.693429,-2.490678 -4.562854,0.939631 -5.7378368,-1.833562 -1.1749835,-2.773193 3.2854168,-2.448483 2.6740338,-5.397618 -0.611384,-2.949134 -4.5751083,-0.878023 -4.5993964,-3.889765 -0.024288,-3.011743 3.9723234,-1.00483 4.5360644,-3.963441 0.56374,-2.958611 -3.8908441,-2.562006 -2.7607396,-5.353788 1.1301046,-2.791782 4.0544806,0.591802 5.7075196,-1.925865 1.65304,-2.517666 -2.614233,-3.855946 -0.501785,-6.002744 2.11245,-2.146798 3.519379,2.098336 6.010058,0.404906 2.490678,-1.693429 -0.93963,-4.562854 1.833562,-5.7378366 2.773193,-1.1749835 2.448484,3.2854176 5.397619,2.6740336 2.949133,-0.611383 0.878023,-4.5751081 3.889765,-4.5993962 z"
       inkscape:randomized="0"
       inkscape:rounded="0.5"
       inkscape:flatsided="false"
       sodipodi:arg2="-1.3825111"
       sodipodi:arg1="-1.5788607"
       sodipodi:r2="20.127758"
       sodipodi:r1="24.308887"
       sodipodi:cy="32.139847"
       sodipodi:cx="31.953381"
       sodipodi:sides="16"
       id="path176"
       style="opacity:1;vector-effect:none;fill:#ffffff;fill-opacity:1;stroke:none;stroke-width:0.38281649;stroke-linecap:butt;stroke-linejoin:miter;stroke-miterlimit:4;stroke-dasharray:none;stroke-dashoffset:0;stroke-opacity:0.96682697;paint-order:normal"
       sodipodi:type="star" />
    <path
       sodipodi:type="star"
       style="opacity:1;vector-effect:none;fill:#ffffff;fill-opacity:1;stroke:none;stroke-width:0.38281649;stroke-linecap:butt;stroke-linejoin:miter;stroke-miterlimit:4;stroke-dasharray:none;stroke-dashoffset:0;stroke-opacity:0.96682697;paint-order:normal"
       id="path178"
       sodipodi:sides="16"
       sodipodi:cx="31.953381"
       sodipodi:cy="32.139847"
       sodipodi:r1="24.308887"
       sodipodi:r2="20.127758"
       sodipodi:arg1="-1.5788607"
       sodipodi:arg2="-1.3825111"
       inkscape:flatsided="false"
       inkscape:rounded="0.5"
       inkscape:randomized="0"
       d="m 31.757347,7.8317498 c 3.011743,-0.024288 1.004829,3.9723242 3.963441,4.5360642 2.95861,0.56374 2.562005,-3.8908438 5.353787,-2.7607394 2.791782,1.1301044 -0.591801,4.0544804 1.925865,5.7075204 2.517666,1.653039 3.855946,-2.614234 6.002744,-0.501785 2.146798,2.112449 -2.098335,3.519379 -0.404906,6.010057 1.69343,2.490678 4.562854,-0.93963 5.737837,1.833562 1.174983,2.773193 -3.285417,2.448484 -2.674034,5.397619 0.611384,2.949134 4.575108,0.878023 4.599397,3.889765 0.02429,3.011743 -3.972324,1.004829 -4.536064,3.963441 -0.563741,2.958611 3.890843,2.562006 2.760739,5.353787 -1.130105,2.791783 -4.05448,-0.591801 -5.70752,1.925866 -1.653039,2.517665 2.614234,3.855946 0.501785,6.002743 -2.11245,2.146798 -3.519379,-2.098335 -6.010058,-0.404905 -2.490678,1.693429 0.93963,4.562853 -1.833562,5.737836 -2.773193,1.174984 -2.448484,-3.285417 -5.397618,-2.674033 -2.949134,0.611383 -0.878024,4.575108 -3.889766,4.599396 -3.011743,0.02429 -1.004829,-3.972324 -3.963441,-4.536064 -2.95861,-0.56374 -2.562005,3.890843 -5.353787,2.760739 -2.791782,-1.130105 0.591801,-4.05448 -1.925865,-5.70752 -2.517666,-1.653039 -3.855946,2.614234 -6.002744,0.501785 -2.146798,-2.11245 2.098336,-3.519379 0.404906,-6.010058 -1.693429,-2.490678 -4.562854,0.939631 -5.7378368,-1.833562 -1.1749835,-2.773193 3.2854168,-2.448483 2.6740338,-5.397618 -0.611384,-2.949134 -4.5751083,-0.878023 -4.5993964,-3.889765 -0.024288,-3.011743 3.9723234,-1.00483 4.5360644,-3.963441 0.56374,-2.958611 -3.8908441,-2.562006 -2.7607396,-5.353788 1.1301046,-2.791782 4.0544806,0.591802 5.7075196,-1.925865 1.65304,-2.517666 -2.614233,-3.855946 -0.501785,-6.002744 2.11245,-2.146798 3.519379,2.098336 6.010058,0.404906 2.490678,-1.693429 -0.93963,-4.562854 1.833562,-5.7378366 2.773193,-1.1749835 2.448484,3.2854176 5.397619,2.6740336 2.949133,-0.611383 0.878023,-4.5751081 3.889765,-4.5993962 z"
       transform="matrix(0.98080304,0.11303324,-0.11303324,0.98080304,196.29289,-3.1346531)" />
    <path
       transform="matrix(0.98724529,0.00989219,-0.00989219,0.98724529,0.77210894,63.953999)"
       d="m 31.757347,7.8317498 c 2.404387,-0.01939 2.147472,1.2204969 4.509442,1.6705519 2.361969,0.4500546 2.579003,-0.7974315 4.807786,0.1047729 2.228784,0.9022044 1.516941,1.9493944 3.526889,3.2690774 2.009946,1.319683 2.687852,0.250211 4.40172,1.936658 1.713869,1.686447 0.65547,2.381513 2.007398,4.369915 1.351928,1.988401 2.3875,1.259762 3.325533,3.473704 0.938033,2.213944 -0.30579,2.451069 0.1823,4.805474 0.48809,2.354403 1.723672,2.077524 1.743063,4.48191 0.01939,2.404387 -1.220497,2.147472 -1.670552,4.509442 -0.450055,2.361969 0.797431,2.579003 -0.104773,4.807786 -0.902205,2.228784 -1.949394,1.516941 -3.269078,3.526889 -1.319682,2.009946 -0.250211,2.687852 -1.936657,4.40172 -1.686448,1.713869 -2.381514,0.65547 -4.369916,2.007399 -1.988401,1.351927 -1.259761,2.3875 -3.473704,3.325532 -2.213943,0.938033 -2.451069,-0.30579 -4.805474,0.1823 -2.354403,0.48809 -2.077524,1.723673 -4.48191,1.743063 -2.404387,0.01939 -2.147471,-1.220497 -4.509442,-1.670552 -2.361969,-0.450055 -2.579003,0.797431 -4.807786,-0.104773 C 20.603402,53.770414 21.315245,52.723225 19.305298,51.403542 17.295351,50.083859 16.617445,51.15333 14.903577,49.466884 13.189708,47.780436 14.248107,47.08537 12.896179,45.096968 11.544251,43.108567 10.508679,43.837207 9.5706462,41.623264 8.6326129,39.409321 9.8764364,39.172195 9.3883461,36.817791 8.900256,34.463388 7.6646737,34.740266 7.6452836,32.335881 7.6258934,29.931494 8.8657805,30.188409 9.3158354,27.826439 9.7658901,25.46447 8.518404,25.247435 9.4206084,23.018652 c 0.9022046,-2.228784 1.9493936,-1.516941 3.2690776,-3.526888 1.319682,-2.009947 0.250211,-2.687852 1.936657,-4.401721 1.686448,-1.713869 2.381514,-0.65547 4.369916,-2.007398 1.988401,-1.351928 1.259762,-2.3875 3.473704,-3.3255326 2.213944,-0.9380333 2.451069,0.3057906 4.805474,-0.1823001 2.354403,-0.4880901 2.077524,-1.7236724 4.48191,-1.7430625 z"
       inkscape:randomized="0"
       inkscape:rounded="0.5"
       inkscape:flatsided="false"
       sodipodi:arg2="-1.3825111"
       sodipodi:arg1="-1.5788607"
       sodipodi:r2="23.044825"
       sodipodi:r1="24.308887"
       sodipodi:cy="32.139847"
       sodipodi:cx="31.953381"
       sodipodi:sides="16"
       id="path246"
       style="opacity:1;vector-effect:none;fill:#ffffff;fill-opacity:1;stroke:none;stroke-width:0.38281649;stroke-linecap:butt;stroke-linejoin:miter;stroke-miterlimit:4;stroke-dasharray:none;stroke-dashoffset:0;stroke-opacity:0.96682697;paint-order:normal"
       sodipodi:type="star" />
    <path
       sodipodi:type="star"
       style="opacity:1;vector-effect:none;fill:#ffffff;fill-opacity:1;stroke:none;stroke-width:0.38281649;stroke-linecap:butt;stroke-linejoin:miter;stroke-miterlimit:4;stroke-dasharray:none;stroke-dashoffset:0;stroke-opacity:0.96682697;paint-order:normal"
       id="path248"
       sodipodi:sides="16"
       sodipodi:cx="31.953381"
       sodipodi:cy="32.139847"
       sodipodi:r1="24.308887"
       sodipodi:r2="23.044825"
       sodipodi:arg1="-1.5788607"
       sodipodi:arg2="-1.3825111"
       inkscape:flatsided="false"
       inkscape:rounded="0.5"
       inkscape:randomized="0"
       d="m 31.757347,7.8317498 c 2.404387,-0.01939 2.147472,1.2204969 4.509442,1.6705519 2.361969,0.4500546 2.579003,-0.7974315 4.807786,0.1047729 2.228784,0.9022044 1.516941,1.9493944 3.526889,3.2690774 2.009946,1.319683 2.687852,0.250211 4.40172,1.936658 1.713869,1.686447 0.65547,2.381513 2.007398,4.369915 1.351928,1.988401 2.3875,1.259762 3.325533,3.473704 0.938033,2.213944 -0.30579,2.451069 0.1823,4.805474 0.48809,2.354403 1.723672,2.077524 1.743063,4.48191 0.01939,2.404387 -1.220497,2.147472 -1.670552,4.509442 -0.450055,2.361969 0.797431,2.579003 -0.104773,4.807786 -0.902205,2.228784 -1.949394,1.516941 -3.269078,3.526889 -1.319682,2.009946 -0.250211,2.687852 -1.936657,4.40172 -1.686448,1.713869 -2.381514,0.65547 -4.369916,2.007399 -1.988401,1.351927 -1.259761,2.3875 -3.473704,3.325532 -2.213943,0.938033 -2.451069,-0.30579 -4.805474,0.1823 -2.354403,0.48809 -2.077524,1.723673 -4.48191,1.743063 -2.404387,0.01939 -2.147471,-1.220497 -4.509442,-1.670552 -2.361969,-0.450055 -2.579003,0.797431 -4.807786,-0.104773 C 20.603402,53.770414 21.315245,52.723225 19.305298,51.403542 17.295351,50.083859 16.617445,51.15333 14.903577,49.466884 13.189708,47.780436 14.248107,47.08537 12.896179,45.096968 11.544251,43.108567 10.508679,43.837207 9.5706462,41.623264 8.6326129,39.409321 9.8764364,39.172195 9.3883461,36.817791 8.900256,34.463388 7.6646737,34.740266 7.6452836,32.335881 7.6258934,29.931494 8.8657805,30.188409 9.3158354,27.826439 9.7658901,25.46447 8.518404,25.247435 9.4206084,23.018652 c 0.9022046,-2.228784 1.9493936,-1.516941 3.2690776,-3.526888 1.319682,-2.009947 0.250211,-2.687852 1.936657,-4.401721 1.686448,-1.713869 2.381514,-0.65547 4.369916,-2.007398 1.988401,-1.351928 1.259762,-2.3875 3.473704,-3.3255326 2.213944,-0.9380333 2.451069,0.3057906 4.805474,-0.1823001 2.354403,-0.4880901 2.077524,-1.7236724 4.48191,-1.7430625 z"
       transform="matrix(0.98629865,0.04434053,-0.04434053,0.98629865,65.909522,62.883683)" />
    <path
       sodipodi:type="star"
       style="opacity:1;vector-effect:none;fill:#ffffff;fill-opacity:1;stroke:none;stroke-width:0.38281649;stroke-linecap:butt;stroke-linejoin:miter;stroke-miterlimit:4;stroke-dasharray:none;stroke-dashoffset:0;stroke-opacity:0.96682697;paint-order:normal"
       id="path250"
       sodipodi:sides="16"
       sodipodi:cx="31.953381"
       sodipodi:cy="32.139847"
       sodipodi:r1="24.308887"
       sodipodi:r2="23.044825"
       sodipodi:arg1="-1.5788607"
       sodipodi:arg2="-1.3825111"
       inkscape:flatsided="false"
       inkscape:rounded="0.5"
       inkscape:randomized="0"
       d="m 31.757347,7.8317498 c 2.404387,-0.01939 2.147472,1.2204969 4.509442,1.6705519 2.361969,0.4500546 2.579003,-0.7974315 4.807786,0.1047729 2.228784,0.9022044 1.516941,1.9493944 3.526889,3.2690774 2.009946,1.319683 2.687852,0.250211 4.40172,1.936658 1.713869,1.686447 0.65547,2.381513 2.007398,4.369915 1.351928,1.988401 2.3875,1.259762 3.325533,3.473704 0.938033,2.213944 -0.30579,2.451069 0.1823,4.805474 0.48809,2.354403 1.723672,2.077524 1.743063,4.48191 0.01939,2.404387 -1.220497,2.147472 -1.670552,4.509442 -0.450055,2.361969 0.797431,2.579003 -0.104773,4.807786 -0.902205,2.228784 -1.949394,1.516941 -3.269078,3.526889 -1.319682,2.009946 -0.250211,2.687852 -1.936657,4.40172 -1.686448,1.713869 -2.381514,0.65547 -4.369916,2.007399 -1.988401,1.351927 -1.259761,2.3875 -3.473704,3.325532 -2.213943,0.938033 -2.451069,-0.30579 -4.805474,0.1823 -2.354403,0.48809 -2.077524,1.723673 -4.48191,1.743063 -2.404387,0.01939 -2.147471,-1.220497 -4.509442,-1.670552 -2.361969,-0.450055 -2.579003,0.797431 -4.807786,-0.104773 C 20.603402,53.770414 21.315245,52.723225 19.305298,51.403542 17.295351,50.083859 16.617445,51.15333 14.903577,49.466884 13.189708,47.780436 14.248107,47.08537 12.896179,45.096968 11.544251,43.108567 10.508679,43.837207 9.5706462,41.623264 8.6326129,39.409321 9.8764364,39.172195 9.3883461,36.817791 8.900256,34.463388 7.6646737,34.740266 7.6452836,32.335881 7.6258934,29.931494 8.8657805,30.188409 9.3158354,27.826439 9.7658901,25.46447 8.518404,25.247435 9.4206084,23.018652 c 0.9022046,-2.228784 1.9493936,-1.516941 3.2690776,-3.526888 1.319682,-2.009947 0.250211,-2.687852 1.936657,-4.401721 1.686448,-1.713869 2.381514,-0.65547 4.369916,-2.007398 1.988401,-1.351928 1.259762,-2.3875 3.473704,-3.3255326 2.213944,-0.9380333 2.451069,0.3057906 4.805474,-0.1823001 2.354403,-0.4880901 2.077524,-1.7236724 4.48191,-1.7430625 z"
       transform="matrix(0.98415036,0.07873485,-0.07873485,0.98415036,131.08359,61.853714)" />
    <path
       transform="matrix(0.98080304,0.11303324,-0.11303324,0.98080304,196.29289,60.865347)"
       d="m 31.757347,7.8317498 c 2.404387,-0.01939 2.147472,1.2204969 4.509442,1.6705519 2.361969,0.4500546 2.579003,-0.7974315 4.807786,0.1047729 2.228784,0.9022044 1.516941,1.9493944 3.526889,3.2690774 2.009946,1.319683 2.687852,0.250211 4.40172,1.936658 1.713869,1.686447 0.65547,2.381513 2.007398,4.369915 1.351928,1.988401 2.3875,1.259762 3.325533,3.473704 0.938033,2.213944 -0.30579,2.451069 0.1823,4.805474 0.48809,2.354403 1.723672,2.077524 1.743063,4.48191 0.01939,2.404387 -1.220497,2.147472 -1.670552,4.509442 -0.450055,2.361969 0.797431,2.579003 -0.104773,4.807786 -0.902205,2.228784 -1.949394,1.516941 -3.269078,3.526889 -1.319682,2.009946 -0.250211,2.687852 -1.936657,4.40172 -1.686448,1.713869 -2.381514,0.65547 -4.369916,2.007399 -1.988401,1.351927 -1.259761,2.3875 -3.473704,3.325532 -2.213943,0.938033 -2.451069,-0.30579 -4.805474,0.1823 -2.354403,0.48809 -2.077524,1.723673 -4.48191,1.743063 -2.404387,0.01939 -2.147471,-1.220497 -4.509442,-1.670552 -2.361969,-0.450055 -2.579003,0.797431 -4.807786,-0.104773 C 20.603402,53.770414 21.315245,52.723225 19.305298,51.403542 17.295351,50.083859 16.617445,51.15333 14.903577,49.466884 13.189708,47.780436 14.248107,47.08537 12.896179,45.096968 11.544251,43.108567 10.508679,43.837207 9.5706462,41.623264 8.6326129,39.409321 9.8764364,39.172195 9.3883461,36.817791 8.900256,34.463388 7.6646737,34.740266 7.6452836,32.335881 7.6258934,29.931494 8.8657805,30.188409 9.3158354,27.826439 9.7658901,25.46447 8.518404,25.247435 9.4206084,23.018652 c 0.9022046,-2.228784 1.9493936,-1.516941 3.2690776,-3.526888 1.319682,-2.009947 0.250211,-2.687852 1.936657,-4.401721 1.686448,-1.713869 2.381514,-0.65547 4.369916,-2.007398 1.988401,-1.351928 1.259762,-2.3875 3.473704,-3.3255326 2.213944,-0.9380333 2.451069,0.3057906 4.805474,-0.1823001 2.354403,-0.4880901 2.077524,-1.7236724 4.48191,-1.7430625 z"
       inkscape:randomized="0"
       inkscape:rounded="0.5"
       inkscape:flatsided="false"
       sodipodi:arg2="-1.3825111"
       sodipodi:arg1="-1.5788607"
       sodipodi:r2="23.044825"
       sodipodi:r1="24.308887"
       sodipodi:cy="32.139847"
       sodipodi:cx="31.953381"
       sodipodi:sides="16"
       id="path252"
       style="opacity:1;vector-effect:none;fill:#ffffff;fill-opacity:1;stroke:none;stroke-width:0.38281649;stroke-linecap:butt;stroke-linejoin:miter;stroke-miterlimit:4;stroke-dasharray:none;stroke-dashoffset:0;stroke-opacity:0.96682697;paint-order:normal"
       sodipodi:type="star" />
    <path
       sodipodi:type="star"
       style="opacity:1;vector-effect:none;fill:#ffffff;fill-opacity:1;stroke:none;stroke-width:0.38281649;stroke-linecap:butt;stroke-linejoin:miter;stroke-miterlimit:4;stroke-dasharray:none;stroke-dashoffset:0;stroke-opacity:0.96682697;paint-order:normal"
       id="path254"
       sodipodi:sides="16"
       sodipodi:cx="31.953381"
       sodipodi:cy="32.139847"
       sodipodi:r1="24.308887"
       sodipodi:r2="23.044825"
       sodipodi:arg1="-1.5788607"
       sodipodi:arg2="-1.3825111"
       inkscape:flatsided="false"
       inkscape:rounded="0.5"
       inkscape:randomized="0"
       d="m 31.757347,7.8317498 c 2.404387,-0.01939 2.147472,1.2204969 4.509442,1.6705519 2.361969,0.4500546 2.579003,-0.7974315 4.807786,0.1047729 2.228784,0.9022044 1.516941,1.9493944 3.526889,3.2690774 2.009946,1.319683 2.687852,0.250211 4.40172,1.936658 1.713869,1.686447 0.65547,2.381513 2.007398,4.369915 1.351928,1.988401 2.3875,1.259762 3.325533,3.473704 0.938033,2.213944 -0.30579,2.451069 0.1823,4.805474 0.48809,2.354403 1.723672,2.077524 1.743063,4.48191 0.01939,2.404387 -1.220497,2.147472 -1.670552,4.509442 -0.450055,2.361969 0.797431,2.579003 -0.104773,4.807786 -0.902205,2.228784 -1.949394,1.516941 -3.269078,3.526889 -1.319682,2.009946 -0.250211,2.687852 -1.936657,4.40172 -1.686448,1.713869 -2.381514,0.65547 -4.369916,2.007399 -1.988401,1.351927 -1.259761,2.3875 -3.473704,3.325532 -2.213943,0.938033 -2.451069,-0.30579 -4.805474,0.1823 -2.354403,0.48809 -2.077524,1.723673 -4.48191,1.743063 -2.404387,0.01939 -2.147471,-1.220497 -4.509442,-1.670552 -2.361969,-0.450055 -2.579003,0.797431 -4.807786,-0.104773 C 20.603402,53.770414 21.315245,52.723225 19.305298,51.403542 17.295351,50.083859 16.617445,51.15333 14.903577,49.466884 13.189708,47.780436 14.248107,47.08537 12.896179,45.096968 11.544251,43.108567 10.508679,43.837207 9.5706462,41.623264 8.6326129,39.409321 9.8764364,39.172195 9.3883461,36.817791 8.900256,34.463388 7.6646737,34.740266 7.6452836,32.335881 7.6258934,29.931494 8.8657805,30.188409 9.3158354,27.826439 9.7658901,25.46447 8.518404,25.247435 9.4206084,23.018652 c 0.9022046,-2.228784 1.9493936,-1.516941 3.2690776,-3.526888 1.319682,-2.009947 0.250211,-2.687852 1.936657,-4.401721 1.686448,-1.713869 2.381514,-0.65547 4.369916,-2.007398 1.988401,-1.351928 1.259762,-2.3875 3.473704,-3.3255326 2.213944,-0.9380333 2.451069,0.3057906 4.805474,-0.1823001 2.354403,-0.4880901 2.077524,-1.7236724 4.48191,-1.7430625 z"
       transform="matrix(0.97626076,0.14719391,-0.14719391,0.97626076,261.53596,59.919786)" />
    <path
       transform="matrix(0.97052905,0.18117525,-0.18117525,0.97052905,326.81126,59.018184)"
       d="m 31.757347,7.8317498 c 2.404387,-0.01939 2.147472,1.2204969 4.509442,1.6705519 2.361969,0.4500546 2.579003,-0.7974315 4.807786,0.1047729 2.228784,0.9022044 1.516941,1.9493944 3.526889,3.2690774 2.009946,1.319683 2.687852,0.250211 4.40172,1.936658 1.713869,1.686447 0.65547,2.381513 2.007398,4.369915 1.351928,1.988401 2.3875,1.259762 3.325533,3.473704 0.938033,2.213944 -0.30579,2.451069 0.1823,4.805474 0.48809,2.354403 1.723672,2.077524 1.743063,4.48191 0.01939,2.404387 -1.220497,2.147472 -1.670552,4.509442 -0.450055,2.361969 0.797431,2.579003 -0.104773,4.807786 -0.902205,2.228784 -1.949394,1.516941 -3.269078,3.526889 -1.319682,2.009946 -0.250211,2.687852 -1.936657,4.40172 -1.686448,1.713869 -2.381514,0.65547 -4.369916,2.007399 -1.988401,1.351927 -1.259761,2.3875 -3.473704,3.325532 -2.213943,0.938033 -2.451069,-0.30579 -4.805474,0.1823 -2.354403,0.48809 -2.077524,1.723673 -4.48191,1.743063 -2.404387,0.01939 -2.147471,-1.220497 -4.509442,-1.670552 -2.361969,-0.450055 -2.579003,0.797431 -4.807786,-0.104773 C 20.603402,53.770414 21.315245,52.723225 19.305298,51.403542 17.295351,50.083859 16.617445,51.15333 14.903577,49.466884 13.189708,47.780436 14.248107,47.08537 12.896179,45.096968 11.544251,43.108567 10.508679,43.837207 9.5706462,41.623264 8.6326129,39.409321 9.8764364,39.172195 9.3883461,36.817791 8.900256,34.463388 7.6646737,34.740266 7.6452836,32.335881 7.6258934,29.931494 8.8657805,30.188409 9.3158354,27.826439 9.7658901,25.46447 8.518404,25.247435 9.4206084,23.018652 c 0.9022046,-2.228784 1.9493936,-1.516941 3.2690776,-3.526888 1.319682,-2.009947 0.250211,-2.687852 1.936657,-4.401721 1.686448,-1.713869 2.381514,-0.65547 4.369916,-2.007398 1.988401,-1.351928 1.259762,-2.3875 3.473704,-3.3255326 2.213944,-0.9380333 2.451069,0.3057906 4.805474,-0.1823001 2.354403,-0.4880901 2.077524,-1.7236724 4.48191,-1.7430625 z"
       inkscape:randomized="0"
       inkscape:rounded="0.5"
       inkscape:flatsided="false"
       sodipodi:arg2="-1.3825111"
       sodipodi:arg1="-1.5788607"
       sodipodi:r2="23.044825"
       sodipodi:r1="24.308887"
       sodipodi:cy="32.139847"
       sodipodi:cx="31.953381"
       sodipodi:sides="16"
       id="path256"
       style="opacity:1;vector-effect:none;fill:#ffffff;fill-opacity:1;stroke:none;stroke-width:0.38281649;stroke-linecap:butt;stroke-linejoin:miter;stroke-miterlimit:4;stroke-dasharray:none;stroke-dashoffset:0;stroke-opacity:0.96682697;paint-order:normal"
       sodipodi:type="star" />
    <path
       transform="matrix(0.9636149,0.21493587,-0.21493587,0.9636149,392.11725,58.161638)"
       d="m 31.757347,7.8317498 c 2.404387,-0.01939 2.147472,1.2204969 4.509442,1.6705519 2.361969,0.4500546 2.579003,-0.7974315 4.807786,0.1047729 2.228784,0.9022044 1.516941,1.9493944 3.526889,3.2690774 2.009946,1.319683 2.687852,0.250211 4.40172,1.936658 1.713869,1.686447 0.65547,2.381513 2.007398,4.369915 1.351928,1.988401 2.3875,1.259762 3.325533,3.473704 0.938033,2.213944 -0.30579,2.451069 0.1823,4.805474 0.48809,2.354403 1.723672,2.077524 1.743063,4.48191 0.01939,2.404387 -1.220497,2.147472 -1.670552,4.509442 -0.450055,2.361969 0.797431,2.579003 -0.104773,4.807786 -0.902205,2.228784 -1.949394,1.516941 -3.269078,3.526889 -1.319682,2.009946 -0.250211,2.687852 -1.936657,4.40172 -1.686448,1.713869 -2.381514,0.65547 -4.369916,2.007399 -1.988401,1.351927 -1.259761,2.3875 -3.473704,3.325532 -2.213943,0.938033 -2.451069,-0.30579 -4.805474,0.1823 -2.354403,0.48809 -2.077524,1.723673 -4.48191,1.743063 -2.404387,0.01939 -2.147471,-1.220497 -4.509442,-1.670552 -2.361969,-0.450055 -2.579003,0.797431 -4.807786,-0.104773 C 20.603402,53.770414 21.315245,52.723225 19.305298,51.403542 17.295351,50.083859 16.617445,51.15333 14.903577,49.466884 13.189708,47.780436 14.248107,47.08537 12.896179,45.096968 11.544251,43.108567 10.508679,43.837207 9.5706462,41.623264 8.6326129,39.409321 9.8764364,39.172195 9.3883461,36.817791 8.900256,34.463388 7.6646737,34.740266 7.6452836,32.335881 7.6258934,29.931494 8.8657805,30.188409 9.3158354,27.826439 9.7658901,25.46447 8.518404,25.247435 9.4206084,23.018652 c 0.9022046,-2.228784 1.9493936,-1.516941 3.2690776,-3.526888 1.319682,-2.009947 0.250211,-2.687852 1.936657,-4.401721 1.686448,-1.713869 2.381514,-0.65547 4.369916,-2.007398 1.988401,-1.351928 1.259762,-2.3875 3.473704,-3.3255326 2.213944,-0.9380333 2.451069,0.3057906 4.805474,-0.1823001 2.354403,-0.4880901 2.077524,-1.7236724 4.48191,-1.7430625 z"
       inkscape:randomized="0"
       inkscape:rounded="0.5"
       inkscape:flatsided="false"
       sodipodi:arg2="-1.3825111"
       sodipodi:arg1="-1.5788607"
       sodipodi:r2="23.044825"
       sodipodi:r1="24.308887"
       sodipodi:cy="32.139847"
       sodipodi:cx="31.953381"
       sodipodi:sides="16"
       id="path258"
       style="opacity:1;vector-effect:none;fill:#ffffff;fill-opacity:1;stroke:none;stroke-width:0.38281649;stroke-linecap:butt;stroke-linejoin:miter;stroke-miterlimit:4;stroke-dasharray:none;stroke-dashoffset:0;stroke-opacity:0.96682697;paint-order:normal"
       sodipodi:type="star" />
    <path
       sodipodi:type="star"
       style="opacity:1;vector-effect:none;fill:#ffffff;fill-opacity:1;stroke:none;stroke-width:0.38281649;stroke-linecap:butt;stroke-linejoin:miter;stroke-miterlimit:4;stroke-dasharray:none;stroke-dashoffset:0;stroke-opacity:0.96682697;paint-order:normal"
       id="path260"
       sodipodi:sides="16"
       sodipodi:cx="31.953381"
       sodipodi:cy="32.139847"
       sodipodi:r1="24.308887"
       sodipodi:r2="23.044825"
       sodipodi:arg1="-1.5788607"
       sodipodi:arg2="-1.3825111"
       inkscape:flatsided="false"
       inkscape:rounded="0.5"
       inkscape:randomized="0"
       d="m 31.757347,7.8317498 c 2.404387,-0.01939 2.147472,1.2204969 4.509442,1.6705519 2.361969,0.4500546 2.579003,-0.7974315 4.807786,0.1047729 2.228784,0.9022044 1.516941,1.9493944 3.526889,3.2690774 2.009946,1.319683 2.687852,0.250211 4.40172,1.936658 1.713869,1.686447 0.65547,2.381513 2.007398,4.369915 1.351928,1.988401 2.3875,1.259762 3.325533,3.473704 0.938033,2.213944 -0.30579,2.451069 0.1823,4.805474 0.48809,2.354403 1.723672,2.077524 1.743063,4.48191 0.01939,2.404387 -1.220497,2.147472 -1.670552,4.509442 -0.450055,2.361969 0.797431,2.579003 -0.104773,4.807786 -0.902205,2.228784 -1.949394,1.516941 -3.269078,3.526889 -1.319682,2.009946 -0.250211,2.687852 -1.936657,4.40172 -1.686448,1.713869 -2.381514,0.65547 -4.369916,2.007399 -1.988401,1.351927 -1.259761,2.3875 -3.473704,3.325532 -2.213943,0.938033 -2.451069,-0.30579 -4.805474,0.1823 -2.354403,0.48809 -2.077524,1.723673 -4.48191,1.743063 -2.404387,0.01939 -2.147471,-1.220497 -4.509442,-1.670552 -2.361969,-0.450055 -2.579003,0.797431 -4.807786,-0.104773 C 20.603402,53.770414 21.315245,52.723225 19.305298,51.403542 17.295351,50.083859 16.617445,51.15333 14.903577,49.466884 13.189708,47.780436 14.248107,47.08537 12.896179,45.096968 11.544251,43.108567 10.508679,43.837207 9.5706462,41.623264 8.6326129,39.409321 9.8764364,39.172195 9.3883461,36.817791 8.900256,34.463388 7.6646737,34.740266 7.6452836,32.335881 7.6258934,29.931494 8.8657805,30.188409 9.3158354,27.826439 9.7658901,25.46447 8.518404,25.247435 9.4206084,23.018652 c 0.9022046,-2.228784 1.9493936,-1.516941 3.2690776,-3.526888 1.319682,-2.009947 0.250211,-2.687852 1.936657,-4.401721 1.686448,-1.713869 2.381514,-0.65547 4.369916,-2.007398 1.988401,-1.351928 1.259762,-2.3875 3.473704,-3.3255326 2.213944,-0.9380333 2.451069,0.3057906 4.805474,-0.1823001 2.354403,-0.4880901 2.077524,-1.7236724 4.48191,-1.7430625 z"
       transform="matrix(0.95552675,0.24843461,-0.24843461,0.95552675,457.45233,57.351192)" />
    <path
       transform="matrix(0.94627442,0.28163067,-0.28163067,0.94627442,266.8149,-7.4121666)"
       d="m 31.757347,7.8317498 c 2.404387,-0.01939 2.147472,1.2204969 4.509442,1.6705519 2.361969,0.4500546 2.579003,-0.7974315 4.807786,0.1047729 2.228784,0.9022044 1.516941,1.9493944 3.526889,3.2690774 2.009946,1.319683 2.687852,0.250211 4.40172,1.936658 1.713869,1.686447 0.65547,2.381513 2.007398,4.369915 1.351928,1.988401 2.3875,1.259762 3.325533,3.473704 0.938033,2.213944 -0.30579,2.451069 0.1823,4.805474 0.48809,2.354403 1.723672,2.077524 1.743063,4.48191 0.01939,2.404387 -1.220497,2.147472 -1.670552,4.509442 -0.450055,2.361969 0.797431,2.579003 -0.104773,4.807786 -0.902205,2.228784 -1.949394,1.516941 -3.269078,3.526889 -1.319682,2.009946 -0.250211,2.687852 -1.936657,4.40172 -1.686448,1.713869 -2.381514,0.65547 -4.369916,2.007399 -1.988401,1.351927 -1.259761,2.3875 -3.473704,3.325532 -2.213943,0.938033 -2.451069,-0.30579 -4.805474,0.1823 -2.354403,0.48809 -2.077524,1.723673 -4.48191,1.743063 -2.404387,0.01939 -2.147471,-1.220497 -4.509442,-1.670552 -2.361969,-0.450055 -2.579003,0.797431 -4.807786,-0.104773 C 20.603402,53.770414 21.315245,52.723225 19.305298,51.403542 17.295351,50.083859 16.617445,51.15333 14.903577,49.466884 13.189708,47.780436 14.248107,47.08537 12.896179,45.096968 11.544251,43.108567 10.508679,43.837207 9.5706462,41.623264 8.6326129,39.409321 9.8764364,39.172195 9.3883461,36.817791 8.900256,34.463388 7.6646737,34.740266 7.6452836,32.335881 7.6258934,29.931494 8.8657805,30.188409 9.3158354,27.826439 9.7658901,25.46447 8.518404,25.247435 9.4206084,23.018652 c 0.9022046,-2.228784 1.9493936,-1.516941 3.2690776,-3.526888 1.319682,-2.009947 0.250211,-2.687852 1.936657,-4.401721 1.686448,-1.713869 2.381514,-0.65547 4.369916,-2.007398 1.988401,-1.351928 1.259762,-2.3875 3.473704,-3.3255326 2.213944,-0.9380333 2.451069,0.3057906 4.805474,-0.1823001 2.354403,-0.4880901 2.077524,-1.7236724 4.48191,-1.7430625 z"
       inkscape:randomized="0"
       inkscape:rounded="0.5"
       inkscape:flatsided="false"
       sodipodi:arg2="-1.3825111"
       sodipodi:arg1="-1.5788607"
       sodipodi:r2="23.044825"
       sodipodi:r1="24.308887"
       sodipodi:cy="32.139847"
       sodipodi:cx="31.953381"
       sodipodi:sides="16"
       id="path295"
       style="opacity:1;vector-effect:none;fill:#ffffff;fill-opacity:1;stroke:none;stroke-width:0.38281649;stroke-linecap:butt;stroke-linejoin:miter;stroke-miterlimit:4;stroke-dasharray:none;stroke-dashoffset:0;stroke-opacity:0.96682697;paint-order:normal"
       sodipodi:type="star" />
    <path
       sodipodi:type="star"
       style="opacity:1;vector-effect:none;fill:#ffffff;fill-opacity:1;stroke:none;stroke-width:0.38281649;stroke-linecap:butt;stroke-linejoin:miter;stroke-miterlimit:4;stroke-dasharray:none;stroke-dashoffset:0;stroke-opacity:0.96682697;paint-order:normal"
       id="path297"
       sodipodi:sides="16"
       sodipodi:cx="31.953381"
       sodipodi:cy="32.139847"
       sodipodi:r1="24.308887"
       sodipodi:r2="23.044825"
       sodipodi:arg1="-1.5788607"
       sodipodi:arg2="-1.3825111"
       inkscape:flatsided="false"
       inkscape:rounded="0.5"
       inkscape:randomized="0"
       d="m 31.757347,7.8317498 c 2.404387,-0.01939 2.147472,1.2204969 4.509442,1.6705519 2.361969,0.4500546 2.579003,-0.7974315 4.807786,0.1047729 2.228784,0.9022044 1.516941,1.9493944 3.526889,3.2690774 2.009946,1.319683 2.687852,0.250211 4.40172,1.936658 1.713869,1.686447 0.65547,2.381513 2.007398,4.369915 1.351928,1.988401 2.3875,1.259762 3.325533,3.473704 0.938033,2.213944 -0.30579,2.451069 0.1823,4.805474 0.48809,2.354403 1.723672,2.077524 1.743063,4.48191 0.01939,2.404387 -1.220497,2.147472 -1.670552,4.509442 -0.450055,2.361969 0.797431,2.579003 -0.104773,4.807786 -0.902205,2.228784 -1.949394,1.516941 -3.269078,3.526889 -1.319682,2.009946 -0.250211,2.687852 -1.936657,4.40172 -1.686448,1.713869 -2.381514,0.65547 -4.369916,2.007399 -1.988401,1.351927 -1.259761,2.3875 -3.473704,3.325532 -2.213943,0.938033 -2.451069,-0.30579 -4.805474,0.1823 -2.354403,0.48809 -2.077524,1.723673 -4.48191,1.743063 -2.404387,0.01939 -2.147471,-1.220497 -4.509442,-1.670552 -2.361969,-0.450055 -2.579003,0.797431 -4.807786,-0.104773 C 20.603402,53.770414 21.315245,52.723225 19.305298,51.403542 17.295351,50.083859 16.617445,51.15333 14.903577,49.466884 13.189708,47.780436 14.248107,47.08537 12.896179,45.096968 11.544251,43.108567 10.508679,43.837207 9.5706462,41.623264 8.6326129,39.409321 9.8764364,39.172195 9.3883461,36.817791 8.900256,34.463388 7.6646737,34.740266 7.6452836,32.335881 7.6258934,29.931494 8.8657805,30.188409 9.3158354,27.826439 9.7658901,25.46447 8.518404,25.247435 9.4206084,23.018652 c 0.9022046,-2.228784 1.9493936,-1.516941 3.2690776,-3.526888 1.319682,-2.009947 0.250211,-2.687852 1.936657,-4.401721 1.686448,-1.713869 2.381514,-0.65547 4.369916,-2.007398 1.988401,-1.351928 1.259762,-2.3875 3.473704,-3.3255326 2.213944,-0.9380333 2.451069,0.3057906 4.805474,-0.1823001 2.354403,-0.4880901 2.077524,-1.7236724 4.48191,-1.7430625 z"
       transform="matrix(0.93586921,0.3144836,-0.3144836,0.93586921,332.20327,-8.1275065)" />
    <path
       sodipodi:type="star"
       style="opacity:1;vector-effect:none;fill:#ffffff;fill-opacity:1;stroke:none;stroke-width:0.38281649;stroke-linecap:butt;stroke-linejoin:miter;stroke-miterlimit:4;stroke-dasharray:none;stroke-dashoffset:0;stroke-opacity:0.96682697;paint-order:normal"
       id="path299"
       sodipodi:sides="16"
       sodipodi:cx="31.953381"
       sodipodi:cy="32.139847"
       sodipodi:r1="24.308887"
       sodipodi:r2="23.044825"
       sodipodi:arg1="-1.5788607"
       sodipodi:arg2="-1.3825111"
       inkscape:flatsided="false"
       inkscape:rounded="0.5"
       inkscape:randomized="0"
       d="m 31.757347,7.8317498 c 2.404387,-0.01939 2.147472,1.2204969 4.509442,1.6705519 2.361969,0.4500546 2.579003,-0.7974315 4.807786,0.1047729 2.228784,0.9022044 1.516941,1.9493944 3.526889,3.2690774 2.009946,1.319683 2.687852,0.250211 4.40172,1.936658 1.713869,1.686447 0.65547,2.381513 2.007398,4.369915 1.351928,1.988401 2.3875,1.259762 3.325533,3.473704 0.938033,2.213944 -0.30579,2.451069 0.1823,4.805474 0.48809,2.354403 1.723672,2.077524 1.743063,4.48191 0.01939,2.404387 -1.220497,2.147472 -1.670552,4.509442 -0.450055,2.361969 0.797431,2.579003 -0.104773,4.807786 -0.902205,2.228784 -1.949394,1.516941 -3.269078,3.526889 -1.319682,2.009946 -0.250211,2.687852 -1.936657,4.40172 -1.686448,1.713869 -2.381514,0.65547 -4.369916,2.007399 -1.988401,1.351927 -1.259761,2.3875 -3.473704,3.325532 -2.213943,0.938033 -2.451069,-0.30579 -4.805474,0.1823 -2.354403,0.48809 -2.077524,1.723673 -4.48191,1.743063 -2.404387,0.01939 -2.147471,-1.220497 -4.509442,-1.670552 -2.361969,-0.450055 -2.579003,0.797431 -4.807786,-0.104773 C 20.603402,53.770414 21.315245,52.723225 19.305298,51.403542 17.295351,50.083859 16.617445,51.15333 14.903577,49.466884 13.189708,47.780436 14.248107,47.08537 12.896179,45.096968 11.544251,43.108567 10.508679,43.837207 9.5706462,41.623264 8.6326129,39.409321 9.8764364,39.172195 9.3883461,36.817791 8.900256,34.463388 7.6646737,34.740266 7.6452836,32.335881 7.6258934,29.931494 8.8657805,30.188409 9.3158354,27.826439 9.7658901,25.46447 8.518404,25.247435 9.4206084,23.018652 c 0.9022046,-2.228784 1.9493936,-1.516941 3.2690776,-3.526888 1.319682,-2.009947 0.250211,-2.687852 1.936657,-4.401721 1.686448,-1.713869 2.381514,-0.65547 4.369916,-2.007398 1.988401,-1.351928 1.259762,-2.3875 3.473704,-3.3255326 2.213944,-0.9380333 2.451069,0.3057906 4.805474,-0.1823001 2.354403,-0.4880901 2.077524,-1.7236724 4.48191,-1.7430625 z"
       transform="matrix(0.92432377,0.3469534,-0.3469534,0.92432377,397.61576,-8.7939577)" />
    <path
       transform="matrix(0.91165221,0.37900048,-0.37900048,0.91165221,463.05064,-9.4107082)"
       d="m 31.757347,7.8317498 c 2.404387,-0.01939 2.147472,1.2204969 4.509442,1.6705519 2.361969,0.4500546 2.579003,-0.7974315 4.807786,0.1047729 2.228784,0.9022044 1.516941,1.9493944 3.526889,3.2690774 2.009946,1.319683 2.687852,0.250211 4.40172,1.936658 1.713869,1.686447 0.65547,2.381513 2.007398,4.369915 1.351928,1.988401 2.3875,1.259762 3.325533,3.473704 0.938033,2.213944 -0.30579,2.451069 0.1823,4.805474 0.48809,2.354403 1.723672,2.077524 1.743063,4.48191 0.01939,2.404387 -1.220497,2.147472 -1.670552,4.509442 -0.450055,2.361969 0.797431,2.579003 -0.104773,4.807786 -0.902205,2.228784 -1.949394,1.516941 -3.269078,3.526889 -1.319682,2.009946 -0.250211,2.687852 -1.936657,4.40172 -1.686448,1.713869 -2.381514,0.65547 -4.369916,2.007399 -1.988401,1.351927 -1.259761,2.3875 -3.473704,3.325532 -2.213943,0.938033 -2.451069,-0.30579 -4.805474,0.1823 -2.354403,0.48809 -2.077524,1.723673 -4.48191,1.743063 -2.404387,0.01939 -2.147471,-1.220497 -4.509442,-1.670552 -2.361969,-0.450055 -2.579003,0.797431 -4.807786,-0.104773 C 20.603402,53.770414 21.315245,52.723225 19.305298,51.403542 17.295351,50.083859 16.617445,51.15333 14.903577,49.466884 13.189708,47.780436 14.248107,47.08537 12.896179,45.096968 11.544251,43.108567 10.508679,43.837207 9.5706462,41.623264 8.6326129,39.409321 9.8764364,39.172195 9.3883461,36.817791 8.900256,34.463388 7.6646737,34.740266 7.6452836,32.335881 7.6258934,29.931494 8.8657805,30.188409 9.3158354,27.826439 9.7658901,25.46447 8.518404,25.247435 9.4206084,23.018652 c 0.9022046,-2.228784 1.9493936,-1.516941 3.2690776,-3.526888 1.319682,-2.009947 0.250211,-2.687852 1.936657,-4.401721 1.686448,-1.713869 2.381514,-0.65547 4.369916,-2.007398 1.988401,-1.351928 1.259762,-2.3875 3.473704,-3.3255326 2.213944,-0.9380333 2.451069,0.3057906 4.805474,-0.1823001 2.354403,-0.4880901 2.077524,-1.7236724 4.48191,-1.7430625 z"
       inkscape:randomized="0"
       inkscape:rounded="0.5"
       inkscape:flatsided="false"
       sodipodi:arg2="-1.3825111"
       sodipodi:arg1="-1.5788607"
       sodipodi:r2="23.044825"
       sodipodi:r1="24.308887"
       sodipodi:cy="32.139847"
       sodipodi:cx="31.953381"
       sodipodi:sides="16"
       id="path301"
       style="opacity:1;vector-effect:none;fill:#ffffff;fill-opacity:1;stroke:none;stroke-width:0.38281649;stroke-linecap:butt;stroke-linejoin:miter;stroke-miterlimit:4;stroke-dasharray:none;stroke-dashoffset:0;stroke-opacity:0.96682697;paint-order:normal"
       sodipodi:type="star" />
  </g>
</svg>
