<?xml version="1.0" encoding="UTF-8" standalone="no"?>
<!-- Created with Inkscape (http://www.inkscape.org/) -->

<svg
   xmlns:dc="http://purl.org/dc/elements/1.1/"
   xmlns:cc="http://creativecommons.org/ns#"
   xmlns:rdf="http://www.w3.org/1999/02/22-rdf-syntax-ns#"
   xmlns:svg="http://www.w3.org/2000/svg"
   xmlns="http://www.w3.org/2000/svg"
   xmlns:xlink="http://www.w3.org/1999/xlink"
   xmlns:sodipodi="http://sodipodi.sourceforge.net/DTD/sodipodi-0.dtd"
   xmlns:inkscape="http://www.inkscape.org/namespaces/inkscape"
   width="512px"
   height="128px"
   viewBox="0 0 512 128"
   version="1.1"
   id="SVGRoot"
   inkscape:version="0.92.3 (2405546, 2018-03-11)"
   sodipodi:docname="rock4.svg">
  <sodipodi:namedview
     id="base"
     pagecolor="#ffffff"
     bordercolor="#666666"
     borderopacity="1.0"
     inkscape:pageopacity="0.0"
     inkscape:pageshadow="2"
     inkscape:zoom="1.1314901"
     inkscape:cx="160.81009"
     inkscape:cy="87.218565"
     inkscape:document-units="px"
     inkscape:current-layer="layer1"
     showgrid="true"
     inkscape:window-width="1323"
     inkscape:window-height="713"
     inkscape:window-x="0"
     inkscape:window-y="27"
     inkscape:window-maximized="1"
     inkscape:pagecheckerboard="true"
     inkscape:snap-global="false"
     showguides="true"
     inkscape:guide-bbox="true">
    <inkscape:grid
       type="xygrid"
       id="grid170"
       empspacing="4" />
    <sodipodi:guide
       position="64.101704,116.54855"
       orientation="1,0"
       id="guide2594"
       inkscape:locked="false" />
    <sodipodi:guide
       position="320.8159,143.17404"
       orientation="1,0"
       id="guide2596"
       inkscape:locked="false" />
    <sodipodi:guide
       position="128.1496,106.49674"
       orientation="1,0"
       id="guide2598"
       inkscape:locked="false" />
    <sodipodi:guide
       position="87.535197,63.925195"
       orientation="0,1"
       id="guide2602"
       inkscape:locked="false" />
    <sodipodi:guide
       position="192.6663,119.3117"
       orientation="1,0"
       id="guide920"
       inkscape:locked="false" />
  </sodipodi:namedview>
  <defs
     id="defs112">
    <inkscape:path-effect
       effect="spiro"
       id="path-effect3169"
       is_visible="true" />
    <inkscape:path-effect
       effect="spiro"
       id="path-effect3165"
       is_visible="true" />
    <inkscape:path-effect
       is_visible="true"
       id="path-effect3161"
       effect="spiro" />
    <inkscape:path-effect
       is_visible="true"
       id="path-effect3157"
       effect="spiro" />
    <inkscape:path-effect
       effect="spiro"
       id="path-effect3153"
       is_visible="true" />
    <inkscape:path-effect
       effect="spiro"
       id="path-effect2606"
       is_visible="true" />
  </defs>
  <metadata
     id="metadata115">
    <rdf:RDF>
      <cc:Work
         rdf:about="">
        <dc:format>image/svg+xml</dc:format>
        <dc:type
           rdf:resource="http://purl.org/dc/dcmitype/StillImage" />
        <dc:title></dc:title>
      </cc:Work>
    </rdf:RDF>
  </metadata>
  <g
     id="layer1"
     inkscape:groupmode="layer"
     inkscape:label="Layer 1">
    <path
       style="fill:#9b0000;fill-opacity:1;fill-rule:evenodd;stroke:none;stroke-width:1px;stroke-linecap:butt;stroke-linejoin:miter;stroke-opacity:1"
       d="m 72.724482,26.613421 c 8.484853,1.552183 16.621634,5.310375 22.986007,11.132467 6.364371,5.822093 10.881661,13.74141 12.184011,22.268185 1.53581,10.055311 -1.50127,20.605119 -7.66433,28.697374 -6.163073,8.092255 -15.290165,13.743563 -25.141128,16.278623 -12.414786,3.19484 -26.19778,1.39238 -36.946911,-5.592604 C 32.767565,95.904972 28.18683,91.176275 24.961516,85.637249 21.736201,80.098222 19.880838,73.75315 19.723303,67.345447 c -0.156749,-6.375701 1.367901,-12.771654 4.283635,-18.443746 2.915734,-5.672093 7.20832,-10.615809 12.348614,-14.390926 10.28059,-7.550234 23.821893,-10.192656 36.36893,-7.897354 z"
       id="path2604"
       inkscape:connector-curvature="0"
       inkscape:path-effect="#path-effect2606"
       inkscape:original-d="M 72.724482,26.613421 C 90.38916,13.036747 96.17354,48.879857 107.8945,60.014073 119.61546,71.148291 86.026574,89.997405 75.089042,104.99007 64.15151,119.98273 38.18093,79.892987 19.723303,67.345447 1.265677,54.797907 55.059804,40.190097 72.724482,26.613421 Z" />
    <path
       style="fill:#0c2313;fill-opacity:1;fill-rule:evenodd;stroke:none;stroke-width:1px;stroke-linecap:butt;stroke-linejoin:miter;stroke-opacity:1"
       d="m 65.368104,15.00878 c -0.475808,-0.805659 -0.9814,-1.606495 -1.653299,-2.257673 -0.671898,-0.651177 -1.532154,-1.147576 -2.464799,-1.222768 -0.620164,-0.05 -1.253705,0.09075 -1.796812,0.394296 -0.543107,0.303543 -0.994088,0.768147 -1.285774,1.317714 -0.291686,0.549566 -0.42368,1.181969 -0.381191,1.802693 0.04249,0.620724 0.258728,1.227988 0.613997,1.73876 0.48547,0.697963 1.20194,1.192956 1.866242,1.723556 0.332152,0.2653 0.655854,0.54415 0.934252,0.865402 0.278399,0.321252 0.511413,0.687353 0.642334,1.091789 0.231973,0.716598 0.126994,1.509643 -0.152176,2.209205 -0.27917,0.699563 -0.721765,1.320527 -1.177828,1.919969 -0.456062,0.599442 -0.932399,1.188896 -1.292838,1.850263 -0.36044,0.661367 -0.602255,1.409423 -0.546202,2.160543 0.0559,0.749065 0.413646,1.464639 0.952675,1.987773 0.53903,0.523135 1.251256,0.856052 1.9931,0.973909 0.741844,0.117857 1.510916,0.02542 2.218478,-0.226727 0.707561,-0.25215 1.354588,-0.66088 1.914711,-1.161365 1.024323,-0.915261 1.757227,-2.135642 2.16641,-3.446944 0.409183,-1.311301 0.502078,-2.710864 0.356192,-4.076755 -0.291773,-2.731782 -1.510403,-5.278061 -2.907472,-7.64364 z"
       id="path3151"
       inkscape:connector-curvature="0"
       inkscape:path-effect="#path-effect3153"
       inkscape:original-d="m 65.368104,15.00878 c -0.131118,-5.055875 -2.742572,-2.320199 -4.118098,-3.480441 -1.375528,-1.160241 -1.897028,3.502403 -2.84978,5.253463 -0.952754,1.751059 2.298046,2.453927 3.442828,3.680747 1.144784,1.226822 -2.10987,5.426746 -3.169044,8.13998 -1.059176,2.713234 4.722138,1.049154 7.078964,1.57359 2.35683,0.524434 -0.253752,-10.111466 -0.38487,-15.167339 z"
       inkscape:transform-center-x="-0.88379079" />
    <path
       sodipodi:type="star"
       style="opacity:1;vector-effect:none;fill:#0c2313;fill-opacity:1;stroke:none;stroke-width:0.65789497px;stroke-linecap:butt;stroke-linejoin:miter;stroke-miterlimit:4;stroke-dasharray:none;stroke-dashoffset:0;stroke-opacity:1;paint-order:normal"
       id="path101"
       sodipodi:sides="7"
       sodipodi:cx="23.641392"
       sodipodi:cy="21.724213"
       sodipodi:r1="15.567008"
       sodipodi:r2="3.6738138"
       sodipodi:arg1="0.60374933"
       sodipodi:arg2="1.0525483"
       inkscape:flatsided="false"
       inkscape:rounded="0"
       inkscape:randomized="0"
       d="M 36.456352,30.562116 25.461248,24.915612 24.721638,37.253695 22.280917,25.136839 12.173476,32.251256 20.125051,22.788289 8.2608891,19.32174 20.617061,19.638467 15.930134,8.201334 23.386454,18.059255 29.406114,7.2639319 26.34782,19.23983 38.54114,17.215416 27.27119,22.291196 Z"
       inkscape:transform-center-x="0.61055107"
       inkscape:transform-center-y="0.48628349"
       transform="matrix(2.5399598,0,0,0.90961988,4.376952,9.345147)" />
    <use
       x="0"
       y="0"
       xlink:href="#path2604"
       id="use908"
       width="100%"
       height="100%"
       transform="translate(128)"
       style="stroke-width:0.5" />
    <use
       x="0"
       y="0"
       xlink:href="#path3151"
       inkscape:transform-center-x="-129.82479"
       id="use910"
       width="100%"
       height="100%"
       transform="translate(128)"
       style="stroke-width:0.5"
       inkscape:transform-center-y="37.450511" />
    <use
       x="0"
       y="0"
       xlink:href="#path101"
       inkscape:transform-center-x="-127.57526"
       inkscape:transform-center-y="29.911273"
       id="use912"
       width="100%"
       height="100%"
       transform="translate(128)"
       style="stroke-width:0.5" />
    <use
       x="0"
       y="0"
       xlink:href="#use908"
       id="use914"
       width="100%"
       height="100%"
       transform="translate(128)"
       style="stroke-width:0.5" />
    <use
       x="0"
       y="0"
       xlink:href="#use910"
       inkscape:transform-center-x="-1.8247898"
       id="use916"
       width="100%"
       height="100%"
       transform="translate(128)"
       style="stroke-width:0.5"
       inkscape:transform-center-y="37.450511" />
    <use
       x="0"
       y="0"
       xlink:href="#use912"
       inkscape:transform-center-x="0.42473667"
       inkscape:transform-center-y="29.911273"
       id="use918"
       width="100%"
       height="100%"
       transform="translate(128)"
       style="stroke-width:0.5" />
    <path
       style="opacity:0.43000004;vector-effect:none;fill:#501616;fill-opacity:1;stroke:none;stroke-width:0.99999994px;stroke-linecap:butt;stroke-linejoin:miter;stroke-miterlimit:4;stroke-dasharray:none;stroke-dashoffset:0;stroke-opacity:1;paint-order:normal"
       id="path922"
       d="m 29.564466,42.351255 c -0.03602,0.588094 -0.0198,1.177506 -0.019,1.766254 -3.74e-4,0.598406 -0.0017,1.19681 -0.0024,1.795216 -0.0544,0.66296 -0.19248,1.313988 -0.255454,1.97661 -0.11284,0.700344 -0.212232,1.403832 -0.33422,2.102702 -0.16666,0.621344 -0.234644,1.259788 -0.334266,1.89305 -0.11502,0.5365 -0.224516,1.074736 -0.273374,1.621774 -0.0366,0.372982 -0.0381,0.74814 -0.03346,1.122512 6.76e-4,0.255132 3.28e-4,0.510452 0.008,0.765508 0.011,0.12488 0.0042,0.24958 0.006,0.374648 0.594942,1.815426 -5.284264,3.65038 -4.019588,1.690772 0.540548,-0.637594 1.206932,-1.159292 1.849484,-1.69034 0.605472,-0.49724 1.266074,-0.920476 1.873918,-1.413838 1.795104,-1.39095 3.905644,-2.420318 5.8458,-3.53576 0.1275,-0.06748 0.256834,-0.13158 0.382484,-0.20244 0.85071,-0.5098 -0.09902,0.04964 0.750984,-0.421748 0.12044,-0.06678 0.47582,-0.277572 0.356338,-0.20909 -1.184744,0.679052 -4.737632,2.718536 -3.552136,2.040802 1.426874,-0.815726 2.850844,-1.63652 4.276266,-2.454778 0.721614,-0.284472 1.425768,-0.607168 2.145962,-0.895328 0.52524,-0.272678 1.08626,-0.470824 1.642514,-0.672824 0.458332,-0.12544 0.869388,-0.357704 1.34194,-0.440378 0.315628,-0.073 0.572048,-0.257716 0.890388,-0.338704 0.17354,-0.07108 0.33972,-0.04162 0.519114,-0.03884 0.415512,0.03282 0.338122,0.820614 0.338324,1.102332 -0.003,0.88295 -0.0044,1.76593 -0.0096,2.648878 -0.0074,1.020134 -0.0054,2.040304 -0.0074,3.060458 0.0048,0.955622 0.0016,1.911238 0.0096,2.866848 0.0112,0.644416 0.02096,1.288682 0.02112,1.93323 0.0044,0.418792 0.0154,0.837582 0.0146,1.256404 0.0036,0.286888 0.004,0.573762 0.0076,0.860634 0.0546,0.48405 -0.11124,0.19456 -0.0084,0.04662 0.48136,0.0086 0.9627,0.0044 1.444114,0.0032 0.505,-0.0046 1.009976,-0.0048 1.515004,-0.0032 0.463522,-0.16776 0.98293,-0.15252 1.43125,-0.351508 0.323432,-0.17662 0.684972,-0.230928 1.043748,-0.285356 0.239474,-0.013 0.478694,-0.007 0.718284,-0.0078 0.12414,-0.0024 0.248188,0.002 0.372318,0.0014 0.10322,-0.004 0.206288,3.56e-4 0.309534,-3.3e-4 0.224198,0.05406 0.374716,0.58171 0.44885,0.7917 0.1572,0.390124 0.307062,0.790662 0.56752,1.124994 0.18006,0.288194 0.41389,0.537008 0.677568,0.748084 0.267264,0.1869 0.351246,0.1136 0.603548,0.368922 0.1064,0.156 0.12794,0.11764 0.292992,0.1243 0.05904,0.0015 0.10302,-0.02326 0.16224,-0.02676 0,0 -3.781144,2.735462 -3.781144,2.735462 v 0 c -0.0816,-0.0072 -0.15708,-0.0279 -0.230692,-0.06438 -0.16128,-0.07298 -0.293022,-0.1738 -0.401082,-0.315232 -0.18338,-0.13048 -0.442028,-0.17506 -0.58741,-0.375522 -0.266482,-0.256068 -0.523258,-0.517166 -0.71131,-0.838864 -0.27361,-0.383334 -0.45276,-0.810214 -0.643792,-1.23863 -0.0547,-0.15142 -0.13144,-0.266946 -0.200802,-0.410064 -0.02086,-0.04304 0.07606,0.07284 0.07768,0.12064 5.72e-4,0.017 -0.03396,-6.02e-4 -0.05094,-9.04e-4 -0.10358,-7.94e-4 -0.207012,0.0036 -0.310522,-0.0018 -0.12064,-0.002 -0.241236,-2.9e-4 -0.361858,-0.0032 -0.221472,0.0014 -0.445154,0.0138 -0.66107,0.06602 -0.339604,0.07218 -0.655512,0.211014 -0.987122,0.310316 -0.4985,0.09272 -0.994638,0.223258 -1.503346,0.236004 -0.505348,0.003 -1.010678,0.0052 -1.516024,0.0048 -0.505042,0.002 -1.01266,0.0114 -1.515878,-0.0335 -0.288322,-0.1553 -0.377562,-0.307678 -0.335834,-0.614914 0.0036,-0.289472 0.004,-0.57895 0.0076,-0.86844 -9.2e-4,-0.423762 0.0102,-0.847494 0.0146,-1.271226 1.48e-4,-0.651714 0.01,-1.303156 0.02108,-1.954744 0.008,-0.959038 0.0048,-1.918082 0.0102,-2.877132 -0.0013,-1.018568 0.002,-2.037144 -0.0028,-3.055702 -0.0034,-0.8719 0.0034,-1.744052 -0.02628,-2.615616 -0.003,-0.05366 -0.13452,-0.915156 0.07418,-0.443972 0.0126,0.02844 -0.11992,-0.03272 -0.09314,0.0058 -0.15078,0.0164 -0.281952,0.08632 -0.427192,0.1298 -0.292932,0.12116 -0.571074,0.265356 -0.893532,0.30148 -0.433704,0.14962 -0.856548,0.327632 -1.294628,0.465054 -0.548228,0.207276 -1.087638,0.434782 -1.622638,0.67371 -0.704386,0.285796 -1.406106,0.582702 -2.090106,0.914316 8.117798,-4.726824 0.364226,-0.1386 -2.214064,1.247932 6.772236,-3.948424 3.391016,-2.077498 1.961126,-1.023998 -0.633324,0.47715 -1.257684,0.961746 -1.902878,1.425734 -0.645214,0.47562 -1.250892,1.017272 -1.833746,1.565022 -0.425968,0.423564 0.06788,-0.0026 -0.274896,0.15714 -1.406,0.655096 -5.23306,1.11201 -4.110076,2.182006 0.0229,0.02182 -0.02514,-0.13138 0.003,-0.0948 0.0017,-0.1264 -0.0052,-0.252422 0.0046,-0.378712 0.006,-0.258136 0.0032,-0.516438 0.0038,-0.774616 0.007,-0.390742 0.014,-0.781626 0.03626,-1.17189 0.05746,-0.563822 0.13834,-1.122734 0.278436,-1.673126 0.1461,-0.626182 0.1377,-1.28344 0.335552,-1.901744 0.1675,-0.674366 0.19604,-1.379324 0.368068,-2.055028 0.04356,-0.651522 0.1199,-1.29613 0.256224,-1.935622 -6.82e-4,-0.597586 -0.002,-1.19517 -0.0024,-1.792754 8.88e-4,-0.58229 0.0176,-1.165318 -0.019,-1.746914 0,0 4.13553,-2.107158 4.13553,-2.107158 z"
       inkscape:connector-curvature="0" />
    <path
       style="opacity:0.43000004;vector-effect:none;fill:#501616;fill-opacity:1;stroke:none;stroke-width:0.99999994px;stroke-linecap:butt;stroke-linejoin:miter;stroke-miterlimit:4;stroke-dasharray:none;stroke-dashoffset:0;stroke-opacity:1;paint-order:normal"
       id="path924"
       d="m 180.06189,105.31175 c -0.57432,-0.56383 -1.06832,-1.19601 -1.57871,-1.81588 -0.90503,-1.06741 -1.81007,-2.13374 -2.74556,-3.17481 -0.95746,-1.05095 -1.95756,-2.06252 -2.96688,-3.06349 -0.79466,-0.69744 -1.42144,-1.55448 -2.17179,-2.29354 -0.43519,-0.45529 -0.85628,-0.92394 -1.2931,-1.37768 -0.19356,-0.20052 -0.38696,-0.40057 -0.59339,-0.58802 -1.35117,-1.76435 2.49001,-2.96833 4.33781,-2.92485 2.59863,0.39195 5.05486,1.40746 7.52908,2.25373 2.67299,0.90452 5.32519,1.86988 8.00158,2.76415 1.09703,0.42697 2.19321,0.84614 3.31517,1.20364 0.79385,0.20411 1.58247,0.42357 2.3672,0.65949 0.72195,0.27462 1.42738,0.59209 2.15494,0.85072 0.65419,0.14608 1.27408,0.40549 1.92562,0.5599 0.39841,0.0184 0.73032,0.2381 1.10987,0.33172 0.23712,0.0656 0.48228,0.0704 0.72649,0.0675 0.1468,0.006 0.2935,-0.0164 0.43998,-0.0112 0.0228,3e-5 0.0884,-0.0114 0.0686,1e-4 -5.06287,2.95505 -2.92891,3.25824 -4.78643,1.02734 -1.09902,-1.31993 -1.88137,-2.0317 -3.1404,-3.28721 -0.73798,-0.6959 -1.46609,-1.40241 -2.21393,-2.08771 -5.56913,-5.103317 0.67409,0.75561 -4.88463,-4.416085 -2.14884,-1.999226 -4.22408,-4.06679 -6.29219,-6.14854 -2.54016,-2.548702 -5.14126,-5.058186 -8.01021,-7.237502 -1.45905,-1.09308 -3.03398,-2.015496 -4.68309,-2.788164 -0.48741,-0.348622 -1.30174,-0.310712 -1.79833,-0.56461 -1.76143,-1.183788 3.62873,-2.816382 3.76144,-2.889738 0.13224,-0.0731 0.30146,0.0219 0.45246,0.02732 0.24956,0.009 0.49934,0.0106 0.749,0.0158 2.07222,0.0245 4.14461,0.0052 6.2168,-0.0118 1.38764,-0.0154 2.77528,-0.02464 4.163,-0.026 1.21014,-0.0017 2.42029,0.0044 3.63042,-0.0019 0.92933,-0.02082 1.85098,0.13424 2.77382,0.225542 0.38258,0.03868 0.7669,0.05338 1.15126,0.05122 0.18596,-0.0026 0.37189,-0.0034 0.55774,-0.0114 -3.35738,2.430842 -3.19632,3.43034 -6.02507,2.176868 -0.71796,-0.309614 -1.43476,-0.698486 -2.02233,-1.220536 -0.2962,-0.20561 -0.54294,-0.411214 -0.71965,-0.72724 -0.0942,-0.15984 -0.11218,-0.340098 -0.10928,-0.521606 -5e-5,-0.185 0.008,-0.369522 0.003,-0.554544 0.0108,-0.17044 -0.0501,-0.347902 0.0435,-0.4951 0.1631,-0.358144 0.54004,-0.549446 0.83807,-0.78209 0.24589,-0.17172 0.50604,-0.31664 0.74608,-0.496976 1.33054,-1.023698 -1.82771,1.402084 4.12972,-2.39683 1.26704,-0.807962 -2.60551,1.498042 -3.90794,2.247626 -0.0664,0.03824 0.1302,-0.08232 0.18706,-0.13372 0.078,-0.115 0.12938,0.0233 0.14838,-0.12436 0.005,-0.1118 0.006,-0.223668 0.0102,-0.33554 0.008,-0.316294 0.0102,-0.632972 0.006,-0.94938 -0.006,-0.247084 -0.004,-0.494238 -0.006,-0.741354 -2.7e-4,-0.286472 0.005,-0.573154 0.0106,-0.859674 -0.002,-0.344048 0.003,-0.6881 -0.007,-1.032056 -3e-5,-0.217328 -0.004,-0.434422 -0.006,-0.651682 -0.007,-0.11894 -0.005,-0.237228 -0.004,-0.356098 0,0 4.15792,-2.118566 4.15792,-2.118566 v 0 c 0.001,0.1201 0.003,0.239682 -0.004,0.35987 -0.001,0.21919 -0.006,0.43823 -0.006,0.657486 -0.01,0.346508 -0.005,0.6931 -0.007,1.039696 0.006,0.282914 0.011,0.565986 0.0106,0.848852 -0.002,0.24915 -5.3e-4,0.498334 -0.006,0.747456 -0.004,0.313008 -0.002,0.626352 0.009,0.93917 0.006,0.11696 0.0122,0.233854 0.0118,0.350986 0.002,0.1454 0.0842,0.28143 -0.0228,0.402888 -0.9757,1.456964 -1.33854,0.951206 -4.22745,2.60214 -1.28569,0.734734 5.16392,-3.302858 3.84451,-2.226016 -0.24269,0.19736 -0.47771,0.404246 -0.76312,0.538394 -0.30688,0.17742 -0.56686,0.427058 -0.89077,0.574104 -0.11298,0.222998 -0.14478,-0.1374 -0.1371,0.277014 -0.007,0.18512 -0.004,0.370054 -0.01,0.555178 9.9e-4,0.111 -0.0263,0.222198 0.005,0.327926 0.11276,0.265848 0.38847,0.403622 0.58492,0.602386 0.55576,0.48403 1.19673,0.861536 1.88203,1.131446 2.70486,1.033006 3.76066,-0.919 -1.52346,3.091678 -0.18266,-0.006 -0.36556,-0.005 -0.54802,-0.0152 -0.37715,-0.0228 -0.75288,-0.0648 -1.12673,-0.1197 -0.88875,-0.12138 -1.77949,-0.263238 -2.6801,-0.227344 -1.20796,-0.0066 -2.41595,-3.04e-4 -3.62392,-0.003 -1.36185,-0.0026 -2.72357,-0.014 -4.08532,-0.03004 -2.08151,-0.0164 -4.16421,-0.03604 -6.24472,0.04492 -0.2726,0.0176 -0.54605,0.02504 -0.81782,0.05276 -0.16246,0.0166 -0.61503,0.17648 -0.48331,0.07996 1.20279,-0.88123 2.51348,-1.606512 3.73466,-2.462076 0.0498,-0.03492 -0.19058,-0.14108 0.0494,-0.02932 0.59922,0.13766 1.15464,0.406328 1.70385,0.676382 1.59505,0.87042 3.13336,1.84449 4.56119,2.971594 2.76487,2.281012 5.22216,4.901974 7.67441,7.509106 1.99676,2.120772 3.99877,4.229028 6.12049,6.227006 2.28771,2.154293 2.56283,2.323913 4.94475,4.376183 0.77939,0.67152 1.55523,1.34717 2.33284,2.02076 1.14632,0.99726 2.39464,2.06558 3.51944,3.10266 0.31909,0.29421 0.6444,0.58346 0.938,0.90311 0.1526,0.1661 0.56816,0.40356 0.39566,0.54887 -2.95692,2.49095 -2.4503,2.47169 -4.07743,2.4951 -0.14718,0.007 -0.29442,-0.013 -0.44147,-0.0184 -0.26694,-0.026 -0.52847,-0.0816 -0.78059,-0.17496 -0.35567,-0.13186 -0.70755,-0.2556 -1.08003,-0.33378 -0.63662,-0.20082 -1.26465,-0.42902 -1.90509,-0.61837 -0.72008,-0.2699 -1.43055,-0.56563 -2.15611,-0.82099 -0.7792,-0.24418 -1.57011,-0.44854 -2.3515,-0.68578 -1.08628,-0.38899 -2.15146,-0.82182 -3.20642,-1.28972 -2.57112,-1.01858 -5.13489,-2.06234 -7.77034,-2.907 -2.51699,-0.8249 -5.09111,-1.8488 -7.7719,-1.86986 -1.95163,0.33192 0.22526,0.015 3.34648,-2.18431 0.0901,-0.0635 -0.14324,-0.16756 -0.2124,-0.25335 -0.0589,-0.073 0.24698,0.27982 0.1731,0.22197 0.1864,0.211 0.38382,0.4118 0.56721,0.62526 0.40557,0.46933 0.80034,0.94779 1.22062,1.40438 0.71632,0.76587 1.36648,1.59269 2.12871,2.31632 0.98959,1.0251 1.9768,2.05216 2.93579,3.10618 0.94499,1.04634 1.87071,2.11003 2.83185,3.14173 0.50099,0.58834 0.9832,1.20549 1.60073,1.67836 0,0 -3.91302,2.47495 -3.91302,2.47495 z"
       inkscape:connector-curvature="0" />
    <path
       style="opacity:0.43000004;vector-effect:none;fill:#501616;fill-opacity:1;stroke:none;stroke-width:0.99999994px;stroke-linecap:butt;stroke-linejoin:miter;stroke-miterlimit:4;stroke-dasharray:none;stroke-dashoffset:0;stroke-opacity:1;paint-order:normal"
       id="path926"
       d="m 351.09308,36.726847 c 0.0354,0.52585 0.1606,1.042782 0.2294,1.566098 0.1004,0.44873 0.2395,0.885978 0.31604,1.340762 0.1292,0.384854 0.24972,0.768614 0.3134,1.170168 0.1242,0.408898 0.24728,0.815034 0.31208,1.23813 0.1326,0.427976 0.24304,0.860132 0.31236,1.303086 0.1082,0.428742 0.24006,0.848946 0.31334,1.286514 0.107,0.34207 0.24054,0.672118 0.31398,1.02398 0.1206,0.308826 0.24284,0.612782 0.31252,0.93788 0.0628,0.394506 0.0684,0.794654 0.0712,1.193202 0.004,0.343114 0.008,0.686384 0.004,1.029532 10e-4,0.252478 0.01,0.505092 0.006,0.75754 -0.006,0.14626 0.014,0.29243 0.008,0.438424 0.1132,1.91665 -2.8281,2.666468 -4.61682,2.711508 -0.64756,0.0619 -1.24378,-0.12212 -1.82826,-0.381254 -0.83698,-0.371638 -1.70322,-0.663412 -2.56218,-0.977304 -0.98986,-0.384084 -2.02758,-0.564906 -3.05782,-0.793134 -0.89098,-0.19056 -1.79462,-0.279842 -2.68958,-0.446292 -0.82056,-0.14316 -1.62982,-0.348368 -2.43394,-0.565858 -0.72136,-0.1401 -1.43766,-0.302282 -2.16124,-0.432656 -0.65808,-0.10944 -1.32544,-0.13772 -1.99136,-0.14512 -0.44716,-0.0036 -0.89442,-0.0024 -1.34146,0.0094 -0.2463,0.004 -0.49264,0.003 -0.73892,0.0074 -1.89512,0.1521 2.16568,-2.788934 3.80072,-2.733668 0.67034,0.0174 1.24166,0.44836 1.80648,0.76254 0.72354,0.42722 1.37836,0.961432 1.9597,1.566074 0.5263,0.543182 0.88102,1.213032 1.27518,1.850454 0.36518,0.508066 0.59178,1.09374 0.85628,1.656124 0.30256,0.512408 0.56338,1.043294 0.79952,1.589396 0.166,0.512696 0.38352,1.007536 0.54474,1.52153 0.0738,0.435882 0.2204,0.85224 0.33458,1.27764 0.0556,0.427682 0.1992,0.832982 0.31014,1.2472 0.1024,0.42442 0.1336,0.859486 0.1486,1.294368 0.01,0.38783 0.008,0.775766 0.012,1.163622 -0.002,0.229354 0.012,0.459136 0.008,0.688406 0.016,2.0306 1.4699,-0.314488 -4.04948,2.821624 -0.5231,-0.0459 -1.05086,-0.0352 -1.57584,-0.03732 -0.61764,-0.0054 -1.23524,0.0026 -1.85286,0.0028 -0.60206,-0.005 -1.18782,-0.19948 -1.7592,-0.374262 -0.53946,-0.13144 -1.07518,-0.19434 -1.59936,-0.375254 -0.2659,-0.10354 -0.54098,-0.17982 -0.82762,-0.18152 -0.22036,-7.7e-4 -0.44076,0.0011 -0.66112,0.0036 -1.81328,-0.03408 -2.83582,1.265534 3.14964,-2.07189 -0.40982,0.200488 -0.538,0.73326 -0.67304,1.138282 -0.0774,0.427284 -0.1966,0.839922 -0.32092,1.25518 -0.0508,0.248432 -0.1312,0.475948 -0.26244,0.692646 -0.87634,2.5491 -3.01864,2.447532 -4.84168,2.422682 -0.5768,-0.03966 -1.12938,-0.0014 -1.69402,0.1071 -0.74408,0.0656 -1.45304,0.288302 -2.16884,0.48875 -0.91806,0.331426 -1.75384,0.846586 -2.60982,1.308578 6.47316,-3.885756 2.8926,-1.683712 1.53046,-0.663446 -0.50352,0.377144 -0.65404,0.508494 -1.14308,0.907556 -1.06602,0.924998 -2.11736,1.867914 -3.14038,2.840446 -0.75566,0.760686 -1.47192,1.560628 -2.1844,2.361846 -0.33262,0.378544 -0.67322,0.75037 -1.0262,1.109492 -1.25284,1.162374 -2.75406,2.593482 -4.48716,2.509706 -0.0822,-0.0054 -0.0436,-0.002 -0.116,-0.0098 0,0 3.77166,-2.76032 3.77166,-2.76032 v 0 c 0.0514,-0.0122 0.0238,-0.0052 0.0828,-0.0215 1.74486,-0.672002 -5.41042,3.205982 -3.5443,2.027148 0.41404,-0.312286 0.75788,-0.71675 1.11018,-1.09684 0.77638,-0.777666 1.47638,-1.630354 2.25042,-2.41083 1.00992,-1.00134 2.09466,-1.921484 3.14516,-2.879624 2.22582,-1.885296 4.63406,-3.424866 7.26312,-4.742652 0.87508,-0.477026 1.74286,-0.993362 2.7114,-1.259452 0.73192,-0.205444 1.47022,-0.370422 2.22504,-0.467852 0.58276,-0.07996 1.16794,-0.0537 1.75478,-0.07142 0.1742,-0.01 0.38582,-3.04e-4 0.55,-0.0746 0.0324,-0.0146 0.1172,-0.08064 0.0864,-0.06292 -3.96392,2.270312 -5.38396,1.925752 -3.80676,2.279978 0.1606,-0.1698 0.31786,-0.31289 0.35618,-0.553966 0.1282,-0.41866 0.31332,-0.81528 0.3434,-1.258334 0.1226,-0.49861 0.3206,-0.974914 0.51454,-1.447802 3.3153,-1.858676 2.82502,-2.354698 4.93458,-2.329236 0.23248,0.0019 0.46622,-0.0022 0.69564,0.04242 0.29304,0.06404 0.57254,0.16748 0.85264,0.273622 0.51456,0.1588 1.05784,0.205542 1.56938,0.380188 0.55144,0.1586 1.1174,0.283584 1.69498,0.258022 0.6117,0.0019 1.22334,0.013 1.83508,0.0094 0.51558,-0.002 1.06696,0.04368 1.56368,-0.10478 -1.30668,0.760242 -2.64458,1.469194 -3.92002,2.280728 -0.0512,0.03252 0.0684,0.10276 0.1168,0.13914 0.002,0.0019 -0.004,-0.302956 0.006,-0.291402 -0.006,-0.232652 0.012,-0.465806 0.01,-0.698522 0.008,-0.385336 0.008,-0.770958 0.004,-1.156316 -0.008,-0.402986 -0.016,-0.808078 -0.099,-1.204364 -0.101,-0.418168 -0.27124,-0.816274 -0.31024,-1.247384 -0.102,-0.424834 -0.27208,-0.82934 -0.3213,-1.265622 -0.1376,-0.504478 -0.35304,-0.981688 -0.49718,-1.484148 -0.2329,-0.541022 -0.50422,-1.059264 -0.78606,-1.575418 -0.2682,-0.5462 -0.48626,-1.120486 -0.8377,-1.621706 -0.35014,-0.621508 -0.7019,-1.251818 -1.1983,-1.77113 -0.5561,-0.572216 -1.1943,-1.059922 -1.89146,-1.449606 -0.548,-0.303948 -1.0863,-0.602732 -1.73588,-0.527678 -1.8189,0.05616 2.15528,-2.877792 3.72372,-2.734234 0.24124,0.0036 0.4825,7.68e-4 0.72376,0.0028 0.43978,0.0094 0.8798,0.0084 1.31934,0.0273 0.67328,0.03746 1.34756,0.0817 2.00942,0.219726 0.72734,0.14644 1.46072,0.268874 2.17672,0.465306 0.7919,0.218336 1.59606,0.394432 2.40468,0.538384 0.89098,0.15958 1.79288,0.257742 2.6728,0.476032 1.04878,0.221562 2.08742,0.466864 3.09584,0.838872 0.87332,0.306294 1.7442,0.616872 2.6023,0.96444 0.57122,0.18854 1.1409,0.282066 1.74208,0.18132 1.6053,-0.266818 3.0791,-1.856592 -3.4712,2.118298 -0.0404,0.0245 0.087,0.03668 0.1296,0.05736 0.031,0.015 0.0568,0.0569 0.0904,0.04976 0.0224,-0.0048 -4e-4,-0.04586 -6.2e-4,-0.0688 -0.008,-0.14848 0.014,-0.297302 0.008,-0.446058 -0.004,-0.25497 0.006,-0.51011 0.008,-0.765092 -0.002,-0.34339 0.004,-0.686786 0.006,-1.030166 -0.002,-0.37154 7.8e-4,-0.744332 -0.042,-1.114046 -0.053,-0.330746 -0.1732,-0.636598 -0.31242,-0.940466 -0.0568,-0.3621 -0.1852,-0.700772 -0.31094,-1.043868 -0.0572,-0.44263 -0.1716,-0.868686 -0.3116,-1.292268 -0.0544,-0.446752 -0.153,-0.8806 -0.31254,-1.30256 -0.0538,-0.424598 -0.1624,-0.83416 -0.31294,-1.235114 -0.053,-0.403594 -0.1634,-0.789486 -0.31346,-1.16803 -0.0602,-0.46404 -0.1824,-0.911062 -0.3115,-1.360166 -0.0546,-0.539486 -0.1382,-1.075578 -0.28228,-1.599258 0,0 4.13552,-2.107158 4.13552,-2.107158 z"
       inkscape:connector-curvature="0" />
  </g>
</svg>
