<?xml version="1.0" encoding="UTF-8" standalone="no"?>
<!-- Created with Inkscape (http://www.inkscape.org/) -->

<svg
   xmlns:dc="http://purl.org/dc/elements/1.1/"
   xmlns:cc="http://creativecommons.org/ns#"
   xmlns:rdf="http://www.w3.org/1999/02/22-rdf-syntax-ns#"
   xmlns:svg="http://www.w3.org/2000/svg"
   xmlns="http://www.w3.org/2000/svg"
   xmlns:sodipodi="http://sodipodi.sourceforge.net/DTD/sodipodi-0.dtd"
   xmlns:inkscape="http://www.inkscape.org/namespaces/inkscape"
   width="512px"
   height="128px"
   viewBox="0 0 512 128"
   version="1.1"
   id="SVGRoot"
   inkscape:version="0.92.3 (2405546, 2018-03-11)"
   sodipodi:docname="rock4.svg">
  <sodipodi:namedview
     id="base"
     pagecolor="#ffffff"
     bordercolor="#666666"
     borderopacity="1.0"
     inkscape:pageopacity="0.0"
     inkscape:pageshadow="2"
     inkscape:zoom="1.6001686"
     inkscape:cx="160.81009"
     inkscape:cy="87.218565"
     inkscape:document-units="px"
     inkscape:current-layer="layer1"
     showgrid="true"
     inkscape:window-width="1323"
     inkscape:window-height="713"
     inkscape:window-x="0"
     inkscape:window-y="27"
     inkscape:window-maximized="1"
     inkscape:pagecheckerboard="true"
     inkscape:snap-global="false"
     showguides="true"
     inkscape:guide-bbox="true">
    <inkscape:grid
       type="xygrid"
       id="grid170"
       empspacing="4" />
    <sodipodi:guide
       position="64.101704,116.54855"
       orientation="1,0"
       id="guide2594"
       inkscape:locked="false" />
    <sodipodi:guide
       position="320.8159,143.17404"
       orientation="1,0"
       id="guide2596"
       inkscape:locked="false" />
    <sodipodi:guide
       position="128.1496,106.49674"
       orientation="1,0"
       id="guide2598"
       inkscape:locked="false" />
    <sodipodi:guide
       position="87.535197,63.925195"
       orientation="0,1"
       id="guide2602"
       inkscape:locked="false" />
    <sodipodi:guide
       position="192.6663,119.3117"
       orientation="1,0"
       id="guide920"
       inkscape:locked="false" />
  </sodipodi:namedview>
  <defs
     id="defs112">
    <inkscape:path-effect
       effect="spiro"
       id="path-effect3169"
       is_visible="true" />
    <inkscape:path-effect
       effect="spiro"
       id="path-effect3165"
       is_visible="true" />
    <inkscape:path-effect
       is_visible="true"
       id="path-effect3161"
       effect="spiro" />
    <inkscape:path-effect
       is_visible="true"
       id="path-effect3157"
       effect="spiro" />
    <inkscape:path-effect
       effect="spiro"
       id="path-effect3153"
       is_visible="true" />
    <inkscape:path-effect
       effect="spiro"
       id="path-effect2606"
       is_visible="true" />
  </defs>
  <metadata
     id="metadata115">
    <rdf:RDF>
      <cc:Work
         rdf:about="">
        <dc:format>image/svg+xml</dc:format>
        <dc:type
           rdf:resource="http://purl.org/dc/dcmitype/StillImage" />
        <dc:title></dc:title>
      </cc:Work>
    </rdf:RDF>
  </metadata>
  <g
     id="layer1"
     inkscape:groupmode="layer"
     inkscape:label="Layer 1">
    <path
       style="fill:#9b0000;fill-opacity:1;fill-rule:evenodd;stroke:none;stroke-width:1px;stroke-linecap:butt;stroke-linejoin:miter;stroke-opacity:1"
       d="m 74.376809,20.652292 c 9.489559,1.73598 18.58983,5.939186 25.707821,12.450682 7.11799,6.511497 12.17018,15.368553 13.62674,24.904998 1.71767,11.245981 -1.67903,23.045013 -8.57188,32.095489 -6.892845,9.050475 -17.100694,15.370969 -28.118129,18.206209 -13.884844,3.57314 -29.299908,1.55726 -41.321862,-6.25484 C 29.688522,98.148781 24.565375,92.86015 20.958146,86.665236 17.350918,80.470322 15.275859,73.373918 15.099671,66.207467 14.924363,59.076808 16.629549,51.923501 19.89054,45.579766 23.151531,39.236032 27.952409,33.706922 33.701374,29.484787 45.199305,21.040517 60.344056,18.0852 74.376809,20.652292 Z"
       id="path2604"
       inkscape:connector-curvature="0"
       inkscape:path-effect="#path-effect2606"
       inkscape:original-d="M 74.376809,20.652292 C 94.133192,5.467981 100.60251,45.555335 113.71137,58.007972 126.82023,70.460612 89.254025,91.541682 77.021361,108.30967 64.788697,125.07764 35.742897,80.240782 15.099671,66.207467 -5.5435544,52.174151 54.620427,35.836606 74.376809,20.652292 Z" />
    <path
       style="fill:#0c2313;fill-opacity:1;fill-rule:evenodd;stroke:none;stroke-width:1px;stroke-linecap:butt;stroke-linejoin:miter;stroke-opacity:1"
       d="M 66.14935,7.6735256 C 65.617201,6.7724672 65.05174,5.8768029 64.300282,5.1485182 63.548823,4.4202335 62.586702,3.8650551 61.543621,3.7809598 c -0.693599,-0.055919 -1.402158,0.1014998 -2.009576,0.4409858 -0.607417,0.339486 -1.111799,0.8591047 -1.438025,1.4737461 -0.326225,0.6146414 -0.473848,1.3219281 -0.426328,2.0161534 0.04752,0.6942253 0.289365,1.3733964 0.686702,1.9446498 0.542956,0.7806101 1.344264,1.3342161 2.087227,1.9276451 0.371482,0.296714 0.733515,0.608584 1.044879,0.967876 0.311364,0.359291 0.571969,0.768744 0.718393,1.221069 0.259441,0.801451 0.142032,1.688402 -0.170195,2.470801 -0.312228,0.782399 -0.807231,1.476893 -1.317297,2.147315 -0.510065,0.670423 -1.042806,1.329675 -1.445926,2.069356 -0.40312,0.739681 -0.673568,1.576315 -0.610878,2.416377 0.06252,0.837763 0.462626,1.638069 1.065483,2.223149 0.602857,0.58508 1.399419,0.957418 2.229106,1.089231 0.829687,0.131812 1.689827,0.02843 2.481171,-0.253574 0.791345,-0.282008 1.514988,-0.739136 2.141436,-1.298884 1.145615,-1.023639 1.965304,-2.388527 2.422939,-3.855102 0.457635,-1.466575 0.56153,-3.031863 0.398369,-4.559491 -0.326323,-3.055258 -1.689252,-5.903046 -3.251751,-8.5487374 z"
       id="path3151"
       inkscape:connector-curvature="0"
       inkscape:path-effect="#path-effect3153"
       inkscape:original-d="M 66.14935,7.6735256 C 66.002706,2.018976 63.082025,5.078588 61.543621,3.7809598 60.005214,2.4833327 59.421963,7.6980886 58.356394,9.6564949 c -1.065571,1.9584051 2.570161,2.7445001 3.850499,4.1165901 1.28034,1.372092 -2.359703,6.069336 -3.544296,9.103849 -1.184595,3.034513 5.281294,1.173386 7.917196,1.759922 2.635906,0.586533 -0.283799,-11.308782 -0.430443,-16.9633304 z"
       inkscape:transform-center-x="-0.9884431" />
    <path
       sodipodi:type="star"
       style="opacity:1;vector-effect:none;fill:#0c2313;fill-opacity:1;stroke:none;stroke-width:0.58824044px;stroke-linecap:butt;stroke-linejoin:miter;stroke-miterlimit:4;stroke-dasharray:none;stroke-dashoffset:0;stroke-opacity:1;paint-order:normal"
       id="path101"
       sodipodi:sides="7"
       sodipodi:cx="23.641392"
       sodipodi:cy="21.724213"
       sodipodi:r1="15.567008"
       sodipodi:r2="3.6738138"
       sodipodi:arg1="0.60374933"
       sodipodi:arg2="1.0525483"
       inkscape:flatsided="false"
       inkscape:rounded="0"
       inkscape:randomized="0"
       d="M 36.456352,30.562116 25.461248,24.915612 24.721638,37.253695 22.280917,25.136839 12.173476,32.251256 20.125051,22.788289 8.2608891,19.32174 20.617061,19.638467 15.930134,8.201334 23.386454,18.059255 29.406114,7.2639319 26.34782,19.23983 38.54114,17.215416 27.27119,22.291196 Z"
       inkscape:transform-center-x="0.68284807"
       inkscape:transform-center-y="0.54386509"
       transform="matrix(2.8407207,0,0,1.0173295,-2.0638682,1.339252)" />
  </g>
</svg>
