<?xml version="1.0" encoding="UTF-8" standalone="no"?>
<!-- Created with Inkscape (http://www.inkscape.org/) -->

<svg
   xmlns:dc="http://purl.org/dc/elements/1.1/"
   xmlns:cc="http://creativecommons.org/ns#"
   xmlns:rdf="http://www.w3.org/1999/02/22-rdf-syntax-ns#"
   xmlns:svg="http://www.w3.org/2000/svg"
   xmlns="http://www.w3.org/2000/svg"
   xmlns:sodipodi="http://sodipodi.sourceforge.net/DTD/sodipodi-0.dtd"
   xmlns:inkscape="http://www.inkscape.org/namespaces/inkscape"
   width="512px"
   height="128px"
   viewBox="0 0 512 128"
   version="1.1"
   id="SVGRoot"
   inkscape:version="0.92.3 (2405546, 2018-03-11)"
   sodipodi:docname="rock3.svg">
  <sodipodi:namedview
     id="base"
     pagecolor="#ffffff"
     bordercolor="#666666"
     borderopacity="1.0"
     inkscape:pageopacity="0.0"
     inkscape:pageshadow="2"
     inkscape:zoom="1.1314901"
     inkscape:cx="55.432267"
     inkscape:cy="87.218565"
     inkscape:document-units="px"
     inkscape:current-layer="layer1"
     showgrid="true"
     inkscape:window-width="1323"
     inkscape:window-height="713"
     inkscape:window-x="0"
     inkscape:window-y="27"
     inkscape:window-maximized="1"
     inkscape:pagecheckerboard="true"
     inkscape:snap-global="false"
     showguides="true"
     inkscape:guide-bbox="true">
    <inkscape:grid
       type="xygrid"
       id="grid170"
       empspacing="4" />
    <sodipodi:guide
       position="64.101704,116.54855"
       orientation="1,0"
       id="guide2594"
       inkscape:locked="false" />
    <sodipodi:guide
       position="32.073965,75.50746"
       orientation="1,0"
       id="guide2596"
       inkscape:locked="false" />
    <sodipodi:guide
       position="95.916309,77.252791"
       orientation="1,0"
       id="guide2598"
       inkscape:locked="false" />
    <sodipodi:guide
       position="86.866989,95.99916"
       orientation="0,1"
       id="guide2600"
       inkscape:locked="false" />
    <sodipodi:guide
       position="87.535197,63.925195"
       orientation="0,1"
       id="guide2602"
       inkscape:locked="false" />
  </sodipodi:namedview>
  <defs
     id="defs112">
    <inkscape:path-effect
       effect="spiro"
       id="path-effect3169"
       is_visible="true" />
    <inkscape:path-effect
       effect="spiro"
       id="path-effect3165"
       is_visible="true" />
    <inkscape:path-effect
       is_visible="true"
       id="path-effect3161"
       effect="spiro" />
    <inkscape:path-effect
       is_visible="true"
       id="path-effect3157"
       effect="spiro" />
    <inkscape:path-effect
       effect="spiro"
       id="path-effect3153"
       is_visible="true" />
    <inkscape:path-effect
       effect="spiro"
       id="path-effect2606"
       is_visible="true" />
  </defs>
  <metadata
     id="metadata115">
    <rdf:RDF>
      <cc:Work
         rdf:about="">
        <dc:format>image/svg+xml</dc:format>
        <dc:type
           rdf:resource="http://purl.org/dc/dcmitype/StillImage" />
        <dc:title />
      </cc:Work>
    </rdf:RDF>
  </metadata>
  <g
     id="layer1"
     inkscape:groupmode="layer"
     inkscape:label="Layer 1">
    <path
       style="fill:#104b23;fill-opacity:1;fill-rule:evenodd;stroke:none;stroke-width:1px;stroke-linecap:butt;stroke-linejoin:miter;stroke-opacity:1"
       d="m 51.771569,21.809401 c 9.373299,-3.411426 19.689089,-4.439756 29.440031,-2.338397 9.750941,2.101358 18.87949,7.419436 25.05429,15.253238 7.12055,9.033651 10.00801,21.102002 8.49095,32.504089 -1.51705,11.402087 -7.26329,22.070682 -15.42086,30.180129 -10.547196,10.48498 -25.407749,16.78706 -40.260798,16.03535 -7.426524,-0.37586 -14.776219,-2.47773 -21.209672,-6.2067 C 31.432057,103.50814 25.933549,98.147081 22.161937,91.738534 18.499805,85.51601 16.48925,78.350382 16.242249,71.134427 15.995249,63.918472 17.499505,56.664094 20.469782,50.083178 26.410338,36.921344 38.201985,26.74807 51.771569,21.809401 Z"
       id="path2604"
       inkscape:connector-curvature="0"
       inkscape:path-effect="#path-effect2606"
       inkscape:original-d="m 51.771569,21.809401 c 9.867876,-23.30771 36.331548,8.607895 54.494321,12.914841 18.16277,4.306946 -4.61794,41.787482 -6.92991,62.684218 C 97.024007,118.3052 47.888617,93.62651 22.161937,91.738534 -3.56474,89.850558 41.903691,45.117112 51.771569,21.809401 Z"
       inkscape:transform-center-x="-62.898706"
       inkscape:transform-center-y="63.632904" />
    <path
       style="fill:#0c2313;fill-opacity:1;fill-rule:evenodd;stroke:none;stroke-width:1px;stroke-linecap:butt;stroke-linejoin:miter;stroke-opacity:1"
       d="m 92.981045,31.944288 c -0.913415,-0.202863 -1.843653,-0.380679 -2.778199,-0.334807 -0.934545,0.04587 -1.884723,0.335038 -2.576735,0.964799 -0.460155,0.418761 -0.790138,0.977595 -0.939458,1.581588 -0.149319,0.603993 -0.118081,1.250727 0.08402,1.839164 0.202104,0.588437 0.573791,1.116834 1.05614,1.509826 0.48235,0.392993 1.07356,0.649897 1.689272,0.739352 0.841363,0.122239 1.692292,-0.06288 2.533589,-0.18557 0.420649,-0.06135 0.845421,-0.107266 1.270214,-0.09113 0.424792,0.01613 0.851335,0.09604 1.236135,0.276705 0.681806,0.320101 1.189268,0.938506 1.509465,1.620266 0.320198,0.68176 0.471358,1.429181 0.597599,2.171736 0.126241,0.742554 0.231338,1.493092 0.468126,2.208113 0.236788,0.715021 0.617919,1.402626 1.204765,1.874787 0.585239,0.470868 1.352214,0.698415 2.10248,0.662111 0.75027,-0.0363 1.47993,-0.329036 2.07277,-0.790308 0.59283,-0.461271 1.05068,-1.086079 1.34988,-1.775069 0.29919,-0.688989 0.44268,-1.44073 0.45979,-2.191682 0.0313,-1.373303 -0.35932,-2.742208 -1.03746,-3.936803 -0.67815,-1.194595 -1.63681,-2.218493 -2.734,-3.045003 -2.19438,-1.65302 -4.886424,-2.502423 -7.568395,-3.09807 z"
       id="path3151"
       inkscape:connector-curvature="0"
       inkscape:path-effect="#path-effect3153"
       inkscape:original-d="m 92.981045,31.944288 c -3.781954,-3.357958 -3.567956,0.417996 -5.354934,0.629992 -1.786978,0.211998 1.261984,3.777954 1.889976,5.66993 0.627992,1.891976 3.36196,-0.002 5.039938,0 1.67798,0.002 2.521968,5.247934 3.779955,7.874902 1.25798,2.626968 3.99195,-2.731966 5.98492,-4.094948 1.99298,-1.362984 -7.557903,-6.721918 -11.339855,-10.079876 z"
       inkscape:transform-center-x="-92.673884"
       inkscape:transform-center-y="36.88296" />
    <path
       inkscape:original-d="m 179.77157,21.809401 c 9.86787,-23.30771 36.33155,8.607895 54.49431,12.914841 18.16278,4.306946 -4.61794,41.787482 -6.9299,62.684218 -2.31198,20.89674 -51.44736,-3.78195 -77.17404,-5.669926 -25.72668,-1.887976 19.74175,-46.621422 29.60963,-69.929133 z"
       inkscape:path-effect="#path-effect3157"
       inkscape:connector-curvature="0"
       id="path3155"
       d="m 179.77157,21.809401 c 9.3733,-3.411424 19.68909,-4.439753 29.44002,-2.338394 9.75094,2.101359 18.87949,7.419436 25.05429,15.253235 7.12055,9.03365 10.00801,21.102 8.49096,32.504087 -1.51705,11.402088 -7.26329,22.070683 -15.42086,30.180131 -10.54719,10.48498 -25.40775,16.78707 -40.2608,16.03535 -7.42652,-0.37586 -14.77621,-2.47773 -21.20967,-6.2067 -6.43345,-3.72897 -11.93196,-9.09003 -15.70357,-15.498576 -3.66213,-6.222524 -5.67269,-13.388152 -5.91969,-20.604107 -0.247,-7.215955 1.25726,-14.470333 4.22753,-21.05125 5.94056,-13.161833 17.73221,-23.335108 31.30179,-28.273776 z"
       style="fill:#104b23;fill-opacity:1;fill-rule:evenodd;stroke:none;stroke-width:1px;stroke-linecap:butt;stroke-linejoin:miter;stroke-opacity:1"
       inkscape:transform-center-x="-190.8987"
       inkscape:transform-center-y="63.632906" />
    <path
       inkscape:original-d="m 219.98104,32.944288 c -3.78196,-3.357958 -3.56796,0.417996 -5.35494,0.629992 -1.78696,0.211998 1.262,3.777954 1.88998,5.66993 0.628,1.891976 3.36196,-0.002 5.03994,0 1.67798,0.002 2.52196,5.247934 3.77996,7.874902 1.25798,2.626968 3.99194,-2.731966 5.98492,-4.094948 1.99298,-1.362984 -7.5579,-6.721918 -11.33986,-10.079876 z"
       inkscape:path-effect="#path-effect3161"
       inkscape:connector-curvature="0"
       id="path3159"
       d="m 219.98104,32.944288 c -0.91342,-0.202864 -1.84366,-0.380681 -2.7782,-0.334808 -0.93455,0.04587 -1.88473,0.335038 -2.57674,0.9648 -0.46015,0.418762 -0.79014,0.977596 -0.93946,1.581589 -0.14932,0.603993 -0.11808,1.250727 0.084,1.839164 0.2021,0.588437 0.57379,1.116834 1.05614,1.509826 0.48235,0.392992 1.07356,0.649896 1.68927,0.739351 0.84136,0.122239 1.69229,-0.06288 2.53359,-0.18557 0.42065,-0.06135 0.84542,-0.107266 1.27021,-0.09113 0.4248,0.01613 0.85134,0.09604 1.23614,0.276705 0.68181,0.320101 1.18927,0.938506 1.50947,1.620266 0.32019,0.68176 0.47135,1.429181 0.5976,2.171736 0.12624,0.742554 0.23134,1.493092 0.46812,2.208113 0.23679,0.715022 0.61792,1.402627 1.20477,1.874787 0.58524,0.470868 1.35221,0.698414 2.10248,0.66211 0.75027,-0.0363 1.47993,-0.329036 2.07277,-0.790308 0.59283,-0.461271 1.05068,-1.086079 1.34988,-1.775068 0.29919,-0.688989 0.44268,-1.44073 0.45979,-2.191682 0.0313,-1.373303 -0.35932,-2.742209 -1.03746,-3.936804 -0.67815,-1.194595 -1.63682,-2.218492 -2.73401,-3.045002 -2.19437,-1.65302 -4.88642,-2.502422 -7.56839,-3.09807 z"
       style="fill:#0c2313;fill-opacity:1;fill-rule:evenodd;stroke:none;stroke-width:1px;stroke-linecap:butt;stroke-linejoin:miter;stroke-opacity:1"
       inkscape:transform-center-x="-219.67386"
       inkscape:transform-center-y="37.882958" />
    <path
       style="fill:#104b23;fill-opacity:1;fill-rule:evenodd;stroke:none;stroke-width:1px;stroke-linecap:butt;stroke-linejoin:miter;stroke-opacity:1"
       d="m 307.77156,21.809401 c 9.3733,-3.411426 19.68909,-4.439756 29.44003,-2.338397 9.75094,2.101359 18.87949,7.419437 25.05429,15.253238 7.12055,9.03365 10.00801,21.102 8.49096,32.504087 -1.51705,11.402087 -7.26329,22.070683 -15.42086,30.180131 -10.54719,10.48498 -25.40775,16.78707 -40.2608,16.03535 -7.42652,-0.37586 -14.77621,-2.47773 -21.20967,-6.2067 -6.43345,-3.72897 -11.93196,-9.09003 -15.70357,-15.498576 -3.66213,-6.222523 -5.67269,-13.388151 -5.91969,-20.604105 -0.247,-7.215954 1.25725,-14.470332 4.22753,-21.051249 5.94055,-13.161833 17.7322,-23.335109 31.30178,-28.273779 z"
       id="path3163"
       inkscape:connector-curvature="0"
       inkscape:path-effect="#path-effect3165"
       inkscape:original-d="m 307.77156,21.809401 c 9.86788,-23.30771 36.33156,8.607895 54.49432,12.914841 18.16278,4.306946 -4.61794,41.787482 -6.9299,62.684218 -2.31198,20.89674 -51.44736,-3.78195 -77.17404,-5.669926 -25.72668,-1.887976 19.74174,-46.621422 29.60962,-69.929133 z"
       inkscape:transform-center-x="-318.8987"
       inkscape:transform-center-y="63.632904" />
    <path
       style="fill:#0c2313;fill-opacity:1;fill-rule:evenodd;stroke:none;stroke-width:1px;stroke-linecap:butt;stroke-linejoin:miter;stroke-opacity:1"
       d="m 346.98104,33.944288 c -0.91342,-0.202864 -1.84366,-0.380681 -2.7782,-0.334808 -0.93455,0.04587 -1.88473,0.335038 -2.57674,0.9648 -0.46015,0.418762 -0.79014,0.977596 -0.93946,1.581589 -0.14932,0.603993 -0.11808,1.250727 0.084,1.839164 0.2021,0.588437 0.57379,1.116834 1.05614,1.509826 0.48235,0.392992 1.07356,0.649896 1.68927,0.739351 0.84136,0.122239 1.69229,-0.06288 2.53359,-0.18557 0.42065,-0.06135 0.84542,-0.107266 1.27021,-0.09113 0.4248,0.01613 0.85134,0.09604 1.23614,0.276705 0.68181,0.320101 1.18927,0.938506 1.50947,1.620266 0.32019,0.68176 0.47135,1.429181 0.5976,2.171736 0.12624,0.742554 0.23134,1.493092 0.46812,2.208113 0.23679,0.715022 0.61792,1.402627 1.20477,1.874787 0.58524,0.470868 1.35221,0.698414 2.10248,0.66211 0.75027,-0.0363 1.47993,-0.329036 2.07277,-0.790308 0.59283,-0.461271 1.05068,-1.086079 1.34988,-1.775068 0.29919,-0.688989 0.44268,-1.44073 0.45979,-2.191682 0.0313,-1.373303 -0.35932,-2.742209 -1.03746,-3.936804 -0.67815,-1.194595 -1.63682,-2.218492 -2.73401,-3.045002 -2.19437,-1.65302 -4.88642,-2.502422 -7.56839,-3.09807 z"
       id="path3167"
       inkscape:connector-curvature="0"
       inkscape:path-effect="#path-effect3169"
       inkscape:original-d="m 346.98104,33.944288 c -3.78196,-3.357958 -3.56796,0.417996 -5.35494,0.629992 -1.78696,0.211998 1.262,3.777954 1.88998,5.66993 0.628,1.891976 3.36196,-0.002 5.03994,0 1.67798,0.002 2.52196,5.247934 3.77996,7.874902 1.25798,2.626968 3.99194,-2.731966 5.98492,-4.094948 1.99298,-1.362984 -7.5579,-6.721918 -11.33986,-10.079876 z"
       inkscape:transform-center-x="-346.67386"
       inkscape:transform-center-y="38.882958" />
  </g>
</svg>
