<?xml version="1.0" encoding="UTF-8" standalone="no"?>
<!-- Created with Inkscape (http://www.inkscape.org/) -->

<svg
   xmlns:dc="http://purl.org/dc/elements/1.1/"
   xmlns:cc="http://creativecommons.org/ns#"
   xmlns:rdf="http://www.w3.org/1999/02/22-rdf-syntax-ns#"
   xmlns:svg="http://www.w3.org/2000/svg"
   xmlns="http://www.w3.org/2000/svg"
   xmlns:sodipodi="http://sodipodi.sourceforge.net/DTD/sodipodi-0.dtd"
   xmlns:inkscape="http://www.inkscape.org/namespaces/inkscape"
   width="512px"
   height="128px"
   viewBox="0 0 512 128"
   version="1.1"
   id="SVGRoot"
   inkscape:version="0.92.3 (2405546, 2018-03-11)"
   sodipodi:docname="rock3.svg">
  <sodipodi:namedview
     id="base"
     pagecolor="#ffffff"
     bordercolor="#666666"
     borderopacity="1.0"
     inkscape:pageopacity="0.0"
     inkscape:pageshadow="2"
     inkscape:zoom="4.5259603"
     inkscape:cx="91.682817"
     inkscape:cy="96.056468"
     inkscape:document-units="px"
     inkscape:current-layer="layer1"
     showgrid="true"
     inkscape:window-width="1323"
     inkscape:window-height="713"
     inkscape:window-x="0"
     inkscape:window-y="27"
     inkscape:window-maximized="1"
     inkscape:pagecheckerboard="true"
     inkscape:snap-global="false"
     showguides="true"
     inkscape:guide-bbox="true">
    <inkscape:grid
       type="xygrid"
       id="grid170"
       empspacing="4" />
    <sodipodi:guide
       position="64.101704,116.54855"
       orientation="1,0"
       id="guide2594"
       inkscape:locked="false" />
    <sodipodi:guide
       position="32.073965,75.50746"
       orientation="1,0"
       id="guide2596"
       inkscape:locked="false" />
    <sodipodi:guide
       position="95.916309,77.252791"
       orientation="1,0"
       id="guide2598"
       inkscape:locked="false" />
    <sodipodi:guide
       position="86.866989,95.99916"
       orientation="0,1"
       id="guide2600"
       inkscape:locked="false" />
    <sodipodi:guide
       position="87.535197,63.925195"
       orientation="0,1"
       id="guide2602"
       inkscape:locked="false" />
  </sodipodi:namedview>
  <defs
     id="defs112">
    <inkscape:path-effect
       effect="spiro"
       id="path-effect3169"
       is_visible="true" />
    <inkscape:path-effect
       effect="spiro"
       id="path-effect3165"
       is_visible="true" />
    <inkscape:path-effect
       is_visible="true"
       id="path-effect3161"
       effect="spiro" />
    <inkscape:path-effect
       is_visible="true"
       id="path-effect3157"
       effect="spiro" />
    <inkscape:path-effect
       effect="spiro"
       id="path-effect3153"
       is_visible="true" />
    <inkscape:path-effect
       effect="spiro"
       id="path-effect2606"
       is_visible="true" />
  </defs>
  <metadata
     id="metadata115">
    <rdf:RDF>
      <cc:Work
         rdf:about="">
        <dc:format>image/svg+xml</dc:format>
        <dc:type
           rdf:resource="http://purl.org/dc/dcmitype/StillImage" />
        <dc:title />
      </cc:Work>
    </rdf:RDF>
  </metadata>
  <g
     id="layer1"
     inkscape:groupmode="layer"
     inkscape:label="Layer 1">
    <path
       style="fill:#104b23;fill-opacity:1;fill-rule:evenodd;stroke:none;stroke-width:1px;stroke-linecap:butt;stroke-linejoin:miter;stroke-opacity:1"
       d="m 24.727193,9.8764666 c 4.68665,-1.7057128 9.844545,-2.2198781 14.720016,-1.1691989 4.87547,1.0506793 9.439747,3.7097183 12.527145,7.6266193 3.560274,4.516826 5.004005,10.551002 4.245477,16.252046 -0.758528,5.701044 -3.631649,11.035341 -7.710434,15.090065 -5.273598,5.242489 -12.703875,8.393531 -20.130399,8.017673 C 24.665736,55.505742 20.990889,54.454805 17.774163,52.59032 14.557437,50.725836 11.808183,48.045306 9.9223768,44.841033 8.0913106,41.729771 7.0860332,38.146957 6.9625332,34.53898 6.8390332,30.931002 7.5911608,27.303813 9.0762997,24.013355 12.046578,17.432438 17.942401,12.345801 24.727193,9.8764666 Z"
       id="path2604"
       inkscape:connector-curvature="0"
       inkscape:path-effect="#path-effect2606"
       inkscape:original-d="M 24.727193,9.8764666 C 29.661131,-1.7773884 42.892967,14.180414 51.974354,16.333887 61.055741,18.48736 49.665383,37.227628 48.509397,47.675998 47.353412,58.124368 22.785717,45.785021 9.9223768,44.841033 -2.9409635,43.897045 19.793254,21.530322 24.727193,9.8764666 Z" />
    <path
       style="fill:#0c2313;fill-opacity:1;fill-rule:evenodd;stroke:none;stroke-width:1px;stroke-linecap:butt;stroke-linejoin:miter;stroke-opacity:1"
       d="m 45.831931,14.44391 c -0.456707,-0.101431 -0.921827,-0.19034 -1.389099,-0.167403 -0.467273,0.02294 -0.942362,0.167518 -1.288368,0.482399 -0.230078,0.209381 -0.395069,0.488798 -0.469729,0.790794 -0.07466,0.301996 -0.05904,0.625363 0.04201,0.919582 0.101052,0.294218 0.286896,0.558417 0.52807,0.754913 0.241175,0.196496 0.53678,0.324949 0.844636,0.369676 0.420682,0.06112 0.846146,-0.03144 1.266795,-0.09278 0.210324,-0.03067 0.42271,-0.05363 0.635106,-0.04557 0.212396,0.0081 0.425668,0.04802 0.618068,0.138352 0.340903,0.160051 0.594634,0.469253 0.754733,0.810133 0.160099,0.34088 0.235678,0.714591 0.298799,1.085868 0.06312,0.371277 0.115669,0.746546 0.234063,1.104056 0.118394,0.357511 0.308959,0.701313 0.602382,0.937394 0.29262,0.235434 0.676107,0.349208 1.051242,0.331056 0.375135,-0.01815 0.739966,-0.164518 1.036383,-0.395153 0.296417,-0.230636 0.525344,-0.54304 0.67494,-0.887535 0.149596,-0.344495 0.221341,-0.720366 0.229897,-1.095842 0.01565,-0.686652 -0.179658,-1.371104 -0.518731,-1.968402 -0.339074,-0.597297 -0.818407,-1.109246 -1.367001,-1.522501 -1.097189,-0.82651 -2.443211,-1.251212 -3.784197,-1.549035 z"
       id="path3151"
       inkscape:connector-curvature="0"
       inkscape:path-effect="#path-effect3153"
       inkscape:original-d="m 45.831931,14.44391 c -1.890977,-1.678979 -1.783978,0.208998 -2.677467,0.314996 -0.893489,0.105999 0.630992,1.888977 0.944988,2.834965 0.313996,0.945988 1.68098,-0.001 2.519969,0 0.83899,0.001 1.260984,2.623967 1.889977,3.937451 0.628992,1.313484 1.995975,-1.365983 2.992462,-2.047474 0.996488,-0.681492 -3.778953,-3.360959 -5.669929,-5.039938 z" />
    <path
       inkscape:original-d="m 88.727193,9.8764666 c 4.933938,-11.653855 18.165777,4.3039474 27.247157,6.4574204 9.08139,2.153473 -2.30897,20.893741 -3.46495,31.342111 -1.15599,10.44837 -25.723683,-1.890977 -38.587023,-2.834965 -12.86334,-0.943988 9.870877,-23.310711 14.804816,-34.9645664 z"
       inkscape:path-effect="#path-effect3157"
       inkscape:connector-curvature="0"
       id="path3155"
       d="m 88.727193,9.8764666 c 4.686649,-1.7057122 9.844543,-2.2198767 14.720017,-1.1691974 4.87547,1.0506793 9.43974,3.7097178 12.52714,7.6266178 3.56027,4.516825 5.00401,10.551001 4.24548,16.252045 -0.75853,5.701044 -3.63165,11.035342 -7.71043,15.090066 -5.2736,5.24249 -12.703875,8.393533 -20.1304,8.017675 -3.713262,-0.187929 -7.38811,-1.238866 -10.604836,-3.103351 -3.216727,-1.864485 -5.965981,-4.545015 -7.851787,-7.749289 -1.831066,-3.111262 -2.836343,-6.694076 -2.959844,-10.302054 -0.1235,-3.607977 0.628628,-7.235166 2.113767,-10.525624 2.970277,-6.580917 8.866101,-11.667554 15.650893,-14.1368884 z"
       style="fill:#104b23;fill-opacity:1;fill-rule:evenodd;stroke:none;stroke-width:1px;stroke-linecap:butt;stroke-linejoin:miter;stroke-opacity:1" />
    <path
       inkscape:original-d="m 109.83193,14.44391 c -1.89098,-1.678979 -1.78398,0.208998 -2.67747,0.314996 -0.89348,0.105999 0.631,1.888977 0.94499,2.834965 0.314,0.945988 1.68098,-0.001 2.51997,0 0.83899,0.001 1.26098,2.623967 1.88998,3.937451 0.62899,1.313484 1.99597,-1.365983 2.99246,-2.047474 0.99649,-0.681492 -3.77895,-3.360959 -5.66993,-5.039938 z"
       inkscape:path-effect="#path-effect3161"
       inkscape:connector-curvature="0"
       id="path3159"
       d="m 109.83193,14.44391 c -0.45671,-0.101432 -0.92183,-0.19034 -1.3891,-0.167404 -0.46727,0.02294 -0.94236,0.167519 -1.28837,0.4824 -0.23008,0.209381 -0.39507,0.488798 -0.46973,0.790794 -0.0747,0.301997 -0.059,0.625364 0.042,0.919582 0.10106,0.294219 0.2869,0.558418 0.52807,0.754913 0.24118,0.196496 0.53678,0.324949 0.84464,0.369676 0.42068,0.06112 0.84615,-0.03144 1.2668,-0.09278 0.21032,-0.03067 0.42271,-0.05363 0.6351,-0.04557 0.2124,0.0081 0.42567,0.04802 0.61807,0.138352 0.3409,0.160051 0.59463,0.469253 0.75473,0.810133 0.1601,0.34088 0.23568,0.714591 0.2988,1.085868 0.0631,0.371277 0.11567,0.746546 0.23407,1.104057 0.11839,0.35751 0.30896,0.701313 0.60238,0.937393 0.29262,0.235434 0.67611,0.349207 1.05124,0.331055 0.37514,-0.01815 0.73997,-0.164518 1.03638,-0.395154 0.29642,-0.230635 0.52535,-0.543039 0.67494,-0.887534 0.1496,-0.344494 0.22134,-0.720365 0.2299,-1.095841 0.0157,-0.686652 -0.17966,-1.371104 -0.51873,-1.968402 -0.33908,-0.597297 -0.81841,-1.109246 -1.367,-1.522501 -1.09719,-0.82651 -2.44321,-1.251211 -3.7842,-1.549035 z"
       style="fill:#0c2313;fill-opacity:1;fill-rule:evenodd;stroke:none;stroke-width:1px;stroke-linecap:butt;stroke-linejoin:miter;stroke-opacity:1" />
    <path
       style="fill:#104b23;fill-opacity:1;fill-rule:evenodd;stroke:none;stroke-width:1px;stroke-linecap:butt;stroke-linejoin:miter;stroke-opacity:1"
       d="m 152.72719,9.8764666 c 4.68665,-1.705713 9.84454,-2.2198779 14.72001,-1.1691985 4.87548,1.0506794 9.43975,3.7097179 12.52715,7.6266189 3.56027,4.516825 5.00401,10.551001 4.24548,16.252045 -0.75853,5.701044 -3.63165,11.035342 -7.71043,15.090066 -5.2736,5.24249 -12.70387,8.393532 -20.1304,8.017674 -3.71326,-0.18793 -7.38811,-1.238867 -10.60483,-3.103351 -3.21673,-1.864485 -5.96598,-4.545015 -7.85179,-7.749288 -1.83107,-3.111262 -2.83634,-6.694075 -2.95984,-10.302053 -0.12351,-3.607977 0.62862,-7.235166 2.11376,-10.525624 2.97028,-6.580917 8.8661,-11.667555 15.65089,-14.1368894 z"
       id="path3163"
       inkscape:connector-curvature="0"
       inkscape:path-effect="#path-effect3165"
       inkscape:original-d="m 152.72719,9.8764666 c 4.93394,-11.653855 18.16578,4.3039474 27.24716,6.4574204 9.08139,2.153473 -2.30897,20.893741 -3.46495,31.342111 -1.15599,10.44837 -25.72368,-1.890977 -38.58702,-2.834965 -12.86334,-0.943988 9.87087,-23.310711 14.80481,-34.9645664 z" />
    <path
       style="fill:#0c2313;fill-opacity:1;fill-rule:evenodd;stroke:none;stroke-width:1px;stroke-linecap:butt;stroke-linejoin:miter;stroke-opacity:1"
       d="m 173.83193,14.44391 c -0.45671,-0.101432 -0.92183,-0.19034 -1.3891,-0.167404 -0.46727,0.02294 -0.94236,0.167519 -1.28837,0.4824 -0.23008,0.209381 -0.39507,0.488798 -0.46973,0.790794 -0.0747,0.301997 -0.059,0.625364 0.042,0.919582 0.10106,0.294219 0.2869,0.558418 0.52807,0.754913 0.24118,0.196496 0.53678,0.324949 0.84464,0.369676 0.42068,0.06112 0.84615,-0.03144 1.2668,-0.09278 0.21032,-0.03067 0.42271,-0.05363 0.6351,-0.04557 0.2124,0.0081 0.42567,0.04802 0.61807,0.138352 0.3409,0.160051 0.59463,0.469253 0.75473,0.810133 0.1601,0.34088 0.23568,0.714591 0.2988,1.085868 0.0631,0.371277 0.11567,0.746546 0.23407,1.104057 0.11839,0.35751 0.30896,0.701313 0.60238,0.937393 0.29262,0.235434 0.67611,0.349207 1.05124,0.331055 0.37514,-0.01815 0.73997,-0.164518 1.03638,-0.395154 0.29642,-0.230635 0.52535,-0.543039 0.67494,-0.887534 0.1496,-0.344494 0.22134,-0.720365 0.2299,-1.095841 0.0156,-0.686652 -0.17966,-1.371104 -0.51873,-1.968402 -0.33908,-0.597297 -0.81841,-1.109246 -1.367,-1.522501 -1.09719,-0.82651 -2.44321,-1.251211 -3.7842,-1.549035 z"
       id="path3167"
       inkscape:connector-curvature="0"
       inkscape:path-effect="#path-effect3169"
       inkscape:original-d="m 173.83193,14.44391 c -1.89098,-1.678979 -1.78398,0.208998 -2.67747,0.314996 -0.89348,0.105999 0.631,1.888977 0.94499,2.834965 0.314,0.945988 1.68098,-0.001 2.51997,0 0.83899,0.001 1.26098,2.623967 1.88998,3.937451 0.62899,1.313484 1.99597,-1.365983 2.99246,-2.047474 0.99649,-0.681492 -3.77895,-3.360959 -5.66993,-5.039938 z" />
  </g>
</svg>
