<?xml version="1.0" encoding="UTF-8" standalone="no"?>
<!-- Created with Inkscape (http://www.inkscape.org/) -->

<svg
   xmlns:dc="http://purl.org/dc/elements/1.1/"
   xmlns:cc="http://creativecommons.org/ns#"
   xmlns:rdf="http://www.w3.org/1999/02/22-rdf-syntax-ns#"
   xmlns:svg="http://www.w3.org/2000/svg"
   xmlns="http://www.w3.org/2000/svg"
   xmlns:xlink="http://www.w3.org/1999/xlink"
   xmlns:sodipodi="http://sodipodi.sourceforge.net/DTD/sodipodi-0.dtd"
   xmlns:inkscape="http://www.inkscape.org/namespaces/inkscape"
   width="512px"
   height="128px"
   viewBox="0 0 512 128"
   version="1.1"
   id="SVGRoot"
   inkscape:version="0.92.3 (2405546, 2018-03-11)"
   sodipodi:docname="rock4.svg">
  <sodipodi:namedview
     id="base"
     pagecolor="#ffffff"
     bordercolor="#666666"
     borderopacity="1.0"
     inkscape:pageopacity="0.0"
     inkscape:pageshadow="2"
     inkscape:zoom="6.4006744"
     inkscape:cx="128.23234"
     inkscape:cy="87.218565"
     inkscape:document-units="px"
     inkscape:current-layer="layer1"
     showgrid="true"
     inkscape:window-width="1323"
     inkscape:window-height="713"
     inkscape:window-x="0"
     inkscape:window-y="27"
     inkscape:window-maximized="1"
     inkscape:pagecheckerboard="true"
     inkscape:snap-global="false"
     showguides="true"
     inkscape:guide-bbox="true">
    <inkscape:grid
       type="xygrid"
       id="grid170"
       empspacing="4" />
    <sodipodi:guide
       position="64.101704,116.54855"
       orientation="1,0"
       id="guide2594"
       inkscape:locked="false" />
    <sodipodi:guide
       position="32.073965,75.50746"
       orientation="1,0"
       id="guide2596"
       inkscape:locked="false" />
    <sodipodi:guide
       position="95.916309,77.252791"
       orientation="1,0"
       id="guide2598"
       inkscape:locked="false" />
    <sodipodi:guide
       position="86.866989,95.99916"
       orientation="0,1"
       id="guide2600"
       inkscape:locked="false" />
    <sodipodi:guide
       position="87.535197,63.925195"
       orientation="0,1"
       id="guide2602"
       inkscape:locked="false" />
    <sodipodi:guide
       position="159.96605,119.75359"
       orientation="1,0"
       id="guide920"
       inkscape:locked="false" />
  </sodipodi:namedview>
  <defs
     id="defs112">
    <inkscape:path-effect
       effect="spiro"
       id="path-effect3169"
       is_visible="true" />
    <inkscape:path-effect
       effect="spiro"
       id="path-effect3165"
       is_visible="true" />
    <inkscape:path-effect
       is_visible="true"
       id="path-effect3161"
       effect="spiro" />
    <inkscape:path-effect
       is_visible="true"
       id="path-effect3157"
       effect="spiro" />
    <inkscape:path-effect
       effect="spiro"
       id="path-effect3153"
       is_visible="true" />
    <inkscape:path-effect
       effect="spiro"
       id="path-effect2606"
       is_visible="true" />
  </defs>
  <metadata
     id="metadata115">
    <rdf:RDF>
      <cc:Work
         rdf:about="">
        <dc:format>image/svg+xml</dc:format>
        <dc:type
           rdf:resource="http://purl.org/dc/dcmitype/StillImage" />
        <dc:title></dc:title>
      </cc:Work>
    </rdf:RDF>
  </metadata>
  <g
     id="layer1"
     inkscape:groupmode="layer"
     inkscape:label="Layer 1">
    <path
       style="fill:#9b0000;fill-opacity:1;fill-rule:evenodd;stroke:none;stroke-width:1px;stroke-linecap:butt;stroke-linejoin:miter;stroke-opacity:1"
       d="m 36.362442,12.815308 c 4.242426,0.776092 8.310817,2.655187 11.493004,5.566234 3.182186,2.911046 5.440832,6.870704 6.092005,11.134092 0.767904,5.027655 -0.750634,10.302559 -3.832168,14.348686 -3.081534,4.046126 -7.64508,6.871781 -12.570561,8.13931 -6.207393,1.597418 -13.098889,0.696192 -18.473455,-2.796301 -2.687283,-1.746247 -4.97765,-4.110595 -6.590308,-6.880108 -1.612657,-2.769513 -2.5403387,-5.942049 -2.6191065,-9.1459 -0.078374,-3.187851 0.6839505,-6.385827 2.1418175,-9.221873 1.457866,-2.836047 3.60416,-5.307905 6.174307,-7.195463 5.140295,-3.775117 11.910946,-5.096328 18.184465,-3.948677 z"
       id="path2604"
       inkscape:connector-curvature="0"
       inkscape:path-effect="#path-effect2606"
       inkscape:original-d="M 36.362442,12.815308 C 45.194781,6.0269712 48.086971,23.948526 53.947451,29.515634 59.807931,35.082743 43.013488,44.5073 37.544722,52.00363 32.075956,59.499963 19.090666,39.455091 9.8618525,33.181321 0.63303972,26.907551 27.530103,19.603646 36.362442,12.815308 Z" />
    <path
       style="fill:#0c2313;fill-opacity:1;fill-rule:evenodd;stroke:none;stroke-width:1px;stroke-linecap:butt;stroke-linejoin:miter;stroke-opacity:1"
       d="M 32.684253,7.0129874 C 32.446349,6.6101579 32.193553,6.20974 31.857604,5.8841512 31.521655,5.5585624 31.091526,5.3103629 30.625204,5.2727671 c -0.310082,-0.024999 -0.626852,0.045377 -0.898406,0.1971482 -0.271553,0.1517714 -0.497044,0.3840734 -0.642887,0.6588565 -0.145843,0.2747831 -0.21184,0.5909845 -0.190596,0.9013466 0.02125,0.310362 0.129365,0.613994 0.306999,0.86938 0.242735,0.3489818 0.60097,0.5964782 0.933121,0.8617781 0.166076,0.13265 0.327927,0.2720751 0.467126,0.4327011 0.1392,0.1606259 0.255706,0.3436767 0.321167,0.5458945 0.115986,0.3582989 0.0635,0.7548219 -0.07609,1.1046029 -0.139585,0.349781 -0.360882,0.660263 -0.588914,0.959984 -0.228031,0.299721 -0.4662,0.594448 -0.646419,0.925131 -0.18022,0.330684 -0.301127,0.704712 -0.273101,1.080272 0.02795,0.374532 0.206823,0.732319 0.476338,0.993887 0.269515,0.261567 0.625628,0.428025 0.996549,0.486954 0.370922,0.05893 0.755459,0.01271 1.109239,-0.113364 0.353781,-0.126075 0.677295,-0.330439 0.957356,-0.580682 0.512162,-0.457631 0.878614,-1.067821 1.083205,-1.723472 0.204592,-0.65565 0.251039,-1.355432 0.178096,-2.038378 C 33.992102,9.4689162 33.382788,8.1957769 32.684253,7.0129874 Z"
       id="path3151"
       inkscape:connector-curvature="0"
       inkscape:path-effect="#path-effect3153"
       inkscape:original-d="M 32.684253,7.0129874 C 32.618694,4.4850502 31.312967,5.8528882 30.625204,5.2727671 29.93744,4.6926467 29.67669,7.0239687 29.200314,7.8994984 c -0.476377,0.8755296 1.149023,1.2269635 1.721414,1.8403737 0.572392,0.6134109 -1.054935,2.7133729 -1.584522,4.0699899 -0.529588,1.356617 2.361069,0.524577 3.539482,0.786795 1.178415,0.262217 -0.126876,-5.0557331 -0.192435,-7.5836696 z"
       inkscape:transform-center-x="-0.44189517" />
    <path
       sodipodi:type="star"
       style="opacity:1;vector-effect:none;fill:#0c2313;fill-opacity:1;stroke:none;stroke-width:1.31578994px;stroke-linecap:butt;stroke-linejoin:miter;stroke-miterlimit:4;stroke-dasharray:none;stroke-dashoffset:0;stroke-opacity:1;paint-order:normal"
       id="path101"
       sodipodi:sides="7"
       sodipodi:cx="23.641392"
       sodipodi:cy="21.724213"
       sodipodi:r1="15.567008"
       sodipodi:r2="3.6738138"
       sodipodi:arg1="0.60374933"
       sodipodi:arg2="1.0525483"
       inkscape:flatsided="false"
       inkscape:rounded="0"
       inkscape:randomized="0"
       d="M 36.456352,30.562116 25.461248,24.915612 24.721638,37.253695 22.280917,25.136839 12.173476,32.251256 20.125051,22.788289 8.2608891,19.32174 20.617061,19.638467 15.930134,8.201334 23.386454,18.059255 29.406114,7.2639319 26.34782,19.23983 38.54114,17.215416 27.27119,22.291196 Z"
       inkscape:transform-center-x="0.30527558"
       inkscape:transform-center-y="0.24314191"
       transform="matrix(1.2699799,0,0,0.45480994,2.1886772,4.1811713)" />
    <use
       x="0"
       y="0"
       xlink:href="#path2604"
       id="use908"
       width="100%"
       height="100%"
       transform="translate(64)" />
    <use
       x="0"
       y="0"
       xlink:href="#path3151"
       inkscape:transform-center-x="-0.44189517"
       id="use910"
       width="100%"
       height="100%"
       transform="translate(64)" />
    <use
       x="0"
       y="0"
       xlink:href="#path101"
       inkscape:transform-center-x="0.30527558"
       inkscape:transform-center-y="0.24314191"
       id="use912"
       width="100%"
       height="100%"
       transform="translate(64)" />
    <use
       x="0"
       y="0"
       xlink:href="#use908"
       id="use914"
       width="100%"
       height="100%"
       transform="translate(64)" />
    <use
       x="0"
       y="0"
       xlink:href="#use910"
       inkscape:transform-center-x="-0.44189517"
       id="use916"
       width="100%"
       height="100%"
       transform="translate(64)" />
    <use
       x="0"
       y="0"
       xlink:href="#use912"
       inkscape:transform-center-x="0.30527558"
       inkscape:transform-center-y="0.24314191"
       id="use918"
       width="100%"
       height="100%"
       transform="translate(64)" />
    <path
       style="opacity:0.43000004;vector-effect:none;fill:#501616;fill-opacity:1;stroke:none;stroke-width:0.99999994px;stroke-linecap:butt;stroke-linejoin:miter;stroke-miterlimit:4;stroke-dasharray:none;stroke-dashoffset:0;stroke-opacity:1;paint-order:normal"
       id="path922"
       d="m 14.782434,20.684225 c -0.01801,0.294047 -0.0099,0.588753 -0.0095,0.883127 -1.87e-4,0.299203 -8.67e-4,0.598405 -0.0012,0.897608 -0.0272,0.33148 -0.09624,0.656994 -0.127727,0.988305 -0.05642,0.350172 -0.106116,0.701916 -0.16711,1.051351 -0.08333,0.310672 -0.117322,0.629894 -0.167133,0.946525 -0.05751,0.26825 -0.112258,0.537368 -0.136687,0.810887 -0.0183,0.186491 -0.01905,0.37407 -0.01673,0.561256 3.38e-4,0.127566 1.64e-4,0.255226 0.004,0.382754 0.0055,0.06244 0.0021,0.12479 0.003,0.187324 0.297471,0.907713 -2.642132,1.82519 -2.009794,0.845386 0.270274,-0.318797 0.603466,-0.579646 0.924742,-0.84517 0.302736,-0.24862 0.633037,-0.460238 0.936959,-0.706919 0.897552,-0.695475 1.952822,-1.210159 2.9229,-1.76788 0.06375,-0.03374 0.128417,-0.06579 0.191242,-0.10122 0.425355,-0.2549 -0.04951,0.02482 0.375492,-0.210874 0.06022,-0.03339 0.23791,-0.138786 0.178169,-0.104545 -0.592372,0.339526 -2.368816,1.359268 -1.776068,1.020401 0.713437,-0.407863 1.425422,-0.81826 2.138133,-1.227389 0.360807,-0.142236 0.712884,-0.303584 1.072981,-0.447664 0.26262,-0.136339 0.54313,-0.235412 0.821257,-0.336412 0.229166,-0.06272 0.434694,-0.178852 0.67097,-0.220189 0.157814,-0.0365 0.286024,-0.128858 0.445194,-0.169352 0.08677,-0.03554 0.16986,-0.02081 0.259557,-0.01942 0.207756,0.01641 0.169061,0.410307 0.169162,0.551166 -0.0015,0.441475 -0.0022,0.882965 -0.0048,1.324439 -0.0037,0.510067 -0.0027,1.020152 -0.0037,1.530229 0.0024,0.477811 7.98e-4,0.955619 0.0048,1.433424 0.0056,0.322208 0.01048,0.644341 0.01056,0.966615 0.0022,0.209396 0.0077,0.418791 0.0073,0.628202 0.0018,0.143444 0.002,0.286881 0.0038,0.430317 0.0273,0.242025 -0.05562,0.09728 -0.0042,0.02331 0.24068,0.0043 0.48135,0.0022 0.722057,0.0016 0.2525,-0.0023 0.504988,-0.0024 0.757502,-0.0016 0.231761,-0.08388 0.491465,-0.07626 0.715625,-0.175754 0.161716,-0.08831 0.342486,-0.115464 0.521874,-0.142678 0.119737,-0.0065 0.239347,-0.0035 0.359142,-0.0039 0.06207,-0.0012 0.124094,0.001 0.186159,6.91e-4 0.05161,-0.002 0.103144,1.78e-4 0.154767,-1.65e-4 0.112099,0.02703 0.187358,0.290855 0.224425,0.39585 0.0786,0.195062 0.153531,0.395331 0.28376,0.562497 0.09003,0.144097 0.206945,0.268504 0.338784,0.374042 0.133632,0.09345 0.175623,0.0568 0.301774,0.184461 0.0532,0.078 0.06397,0.05882 0.146496,0.06215 0.02952,7.47e-4 0.05151,-0.01163 0.08112,-0.01338 0,0 -1.890572,1.367731 -1.890572,1.367731 v 0 c -0.0408,-0.0036 -0.07854,-0.01395 -0.115346,-0.03219 -0.08064,-0.03649 -0.146511,-0.0869 -0.200541,-0.157616 -0.09169,-0.06524 -0.221014,-0.08753 -0.293705,-0.187761 -0.133241,-0.128034 -0.261629,-0.258583 -0.355655,-0.419432 -0.136805,-0.191667 -0.22638,-0.405107 -0.321896,-0.619315 -0.02735,-0.07571 -0.06572,-0.133473 -0.100401,-0.205032 -0.01043,-0.02152 0.03803,0.03642 0.03884,0.06032 2.86e-4,0.0085 -0.01698,-3.01e-4 -0.02547,-4.52e-4 -0.05179,-3.97e-4 -0.103506,0.0018 -0.155261,-8.88e-4 -0.06032,-9.8e-4 -0.120618,-1.45e-4 -0.180929,-0.0016 -0.110736,7.11e-4 -0.222577,0.0069 -0.330535,0.03301 -0.169802,0.03609 -0.327756,0.105507 -0.493561,0.155158 -0.24925,0.04636 -0.497319,0.111629 -0.751673,0.118002 -0.252674,0.0015 -0.505339,0.0026 -0.758012,0.0024 -0.252521,9.81e-4 -0.50633,0.0057 -0.757939,-0.01675 -0.144161,-0.07765 -0.188781,-0.153839 -0.167917,-0.307457 0.0018,-0.144736 0.002,-0.289475 0.0038,-0.43422 -4.6e-4,-0.211881 0.0051,-0.423747 0.0073,-0.635613 7.4e-5,-0.325857 0.005,-0.651578 0.01054,-0.977372 0.004,-0.479519 0.0024,-0.959041 0.0051,-1.438566 -6.35e-4,-0.509284 0.001,-1.018572 -0.0014,-1.527851 -0.0017,-0.43595 0.0017,-0.872026 -0.01314,-1.307808 -0.0015,-0.02683 -0.06726,-0.457578 0.03709,-0.221986 0.0063,0.01422 -0.05996,-0.01636 -0.04657,0.0029 -0.07539,0.0082 -0.140976,0.04316 -0.213596,0.0649 -0.146466,0.06058 -0.285537,0.132678 -0.446766,0.15074 -0.216852,0.07481 -0.428274,0.163816 -0.647314,0.232527 -0.274114,0.103638 -0.543819,0.217391 -0.811319,0.336855 -0.352193,0.142898 -0.703053,0.291351 -1.045053,0.457158 4.058899,-2.363412 0.182113,-0.0693 -1.107032,0.623966 3.386118,-1.974212 1.695508,-1.038749 0.980563,-0.511999 -0.316662,0.238575 -0.628842,0.480873 -0.951439,0.712867 -0.322607,0.23781 -0.625446,0.508636 -0.916873,0.782511 -0.212984,0.211782 0.03394,-0.0013 -0.137448,0.07857 -0.703,0.327548 -2.61653,0.556005 -2.055038,1.091003 0.01145,0.01091 -0.01257,-0.06569 0.0015,-0.0474 8.44e-4,-0.0632 -0.0026,-0.126211 0.0023,-0.189356 0.003,-0.129068 0.0016,-0.258219 0.0019,-0.387308 0.0035,-0.195371 0.007,-0.390813 0.01813,-0.585945 0.02873,-0.281911 0.06917,-0.561367 0.139218,-0.836563 0.07305,-0.313091 0.06885,-0.64172 0.167776,-0.950872 0.08375,-0.337183 0.09802,-0.689662 0.184034,-1.027514 0.02178,-0.325761 0.05995,-0.648065 0.128112,-0.967811 -3.41e-4,-0.298793 -10e-4,-0.597585 -0.0012,-0.896377 4.44e-4,-0.291145 0.0088,-0.582659 -0.0095,-0.873457 0,0 2.067765,-1.053579 2.067765,-1.053579 z"
       inkscape:connector-curvature="0" />
    <path
       style="opacity:0.43000004;vector-effect:none;fill:#501616;fill-opacity:1;stroke:none;stroke-width:0.99999994px;stroke-linecap:butt;stroke-linejoin:miter;stroke-miterlimit:4;stroke-dasharray:none;stroke-dashoffset:0;stroke-opacity:1;paint-order:normal"
       id="path924"
       d="m 90.031145,52.164473 c -0.28716,-0.281916 -0.534159,-0.598004 -0.789354,-0.907941 -0.452517,-0.533705 -0.905033,-1.066871 -1.372782,-1.587404 -0.47873,-0.525478 -0.978777,-1.031261 -1.483437,-1.531747 -0.397331,-0.348718 -0.710721,-0.77724 -1.085894,-1.146769 -0.217597,-0.227647 -0.42814,-0.461969 -0.646551,-0.688838 -0.09678,-0.100261 -0.19348,-0.200288 -0.296694,-0.294011 -0.675585,-0.882176 1.245001,-1.484167 2.168905,-1.462425 1.299312,0.195975 2.527426,0.703727 3.764536,1.126867 1.336495,0.452258 2.662596,0.934937 4.000792,1.382072 0.548515,0.213488 1.096603,0.423068 1.657586,0.601822 0.396923,0.102052 0.791232,0.211782 1.183598,0.329742 0.360976,0.13731 0.713691,0.296049 1.077471,0.425362 0.327093,0.07304 0.63704,0.202742 0.962808,0.27995 0.199208,0.0092 0.365163,0.119051 0.554938,0.165859 0.118558,0.03282 0.241141,0.03518 0.363243,0.03373 0.0734,0.0031 0.14675,-0.0082 0.21999,-0.0056 0.0114,1.7e-5 0.0442,-0.0057 0.0343,5e-5 -2.531434,1.477527 -1.464455,1.629122 -2.393216,0.51367 -0.54951,-0.659965 -0.940685,-1.015849 -1.570199,-1.643604 -0.368988,-0.347951 -0.733045,-0.701207 -1.106965,-1.043853 -2.784562,-2.551661 0.337045,0.377805 -2.442315,-2.208045 -1.074418,-0.999613 -2.112038,-2.033395 -3.146093,-3.07427 -1.270083,-1.274351 -2.57063,-2.529093 -4.005107,-3.618751 -0.729523,-0.54654 -1.51699,-1.007748 -2.341543,-1.394082 -0.243704,-0.174311 -0.650872,-0.155356 -0.899165,-0.282305 -0.880716,-0.591894 1.814366,-1.408191 1.880719,-1.444869 0.06612,-0.03655 0.150731,0.01095 0.22623,0.01366 0.124781,0.0045 0.249668,0.0053 0.374502,0.0079 1.03611,0.01225 2.072302,0.0026 3.1084,-0.0059 0.69382,-0.0077 1.387637,-0.01232 2.0815,-0.013 0.605069,-8.61e-4 1.210143,0.0022 1.815206,-9.51e-4 0.464669,-0.01041 0.925492,0.06712 1.386913,0.112771 0.191291,0.01934 0.383451,0.02669 0.575631,0.02561 0.09298,-0.0013 0.185943,-0.0017 0.278866,-0.0057 -1.678689,1.215421 -1.598157,1.71517 -3.012532,1.088434 -0.358981,-0.154807 -0.717379,-0.349243 -1.011166,-0.610268 -0.1481,-0.102805 -0.271472,-0.205607 -0.359824,-0.36362 -0.04711,-0.07992 -0.05609,-0.170049 -0.05464,-0.260803 -2.7e-5,-0.0925 0.0038,-0.184761 0.0017,-0.277272 0.0054,-0.08522 -0.02503,-0.173951 0.02173,-0.24755 0.08155,-0.179072 0.270021,-0.274723 0.419034,-0.391045 0.122944,-0.08586 0.253019,-0.15832 0.373039,-0.248488 0.665273,-0.511849 -0.913855,0.701042 2.064861,-1.198415 0.633521,-0.403981 -1.302754,0.749021 -1.953968,1.123813 -0.03322,0.01912 0.0651,-0.04116 0.09353,-0.06686 0.03899,-0.0575 0.06469,0.01165 0.07419,-0.06218 0.0026,-0.0559 0.0031,-0.111834 0.0051,-0.16777 0.0042,-0.158147 0.0051,-0.316486 0.0031,-0.47469 -0.0029,-0.123542 -0.002,-0.247119 -0.0032,-0.370677 -1.37e-4,-0.143236 0.0026,-0.286577 0.0053,-0.429837 -0.0011,-0.172024 0.0013,-0.34405 -0.0037,-0.516028 -1.6e-5,-0.108664 -0.0022,-0.217211 -0.0028,-0.325841 -0.0037,-0.05947 -0.0025,-0.118614 -0.0019,-0.178049 0,0 2.078959,-1.059283 2.078959,-1.059283 v 0 c 7.11e-4,0.06005 0.0017,0.119841 -0.0019,0.179935 -6.33e-4,0.109595 -0.0028,0.219115 -0.0028,0.328743 -0.0049,0.173254 -0.0027,0.34655 -0.0037,0.519848 0.0028,0.141457 0.0055,0.282993 0.0053,0.424426 -0.0011,0.124575 -2.65e-4,0.249167 -0.0031,0.373728 -0.0018,0.156504 -8.86e-4,0.313176 0.0045,0.469585 0.0028,0.05848 0.0061,0.116927 0.0059,0.175493 0.0012,0.0727 0.04209,0.140715 -0.01138,0.201444 -0.48785,0.728482 -0.669273,0.475603 -2.113726,1.30107 -0.642843,0.367367 2.581961,-1.651429 1.922256,-1.113008 -0.121347,0.09868 -0.238856,0.202123 -0.381561,0.269197 -0.153441,0.08871 -0.283432,0.213529 -0.445383,0.287052 -0.05649,0.111499 -0.07239,-0.0687 -0.06855,0.138507 -0.0037,0.09256 -0.0022,0.185027 -0.0049,0.277589 4.92e-4,0.0555 -0.01316,0.111099 0.0023,0.163963 0.05638,0.132924 0.194233,0.201811 0.292456,0.301193 0.277882,0.242015 0.598366,0.430768 0.941017,0.565723 1.352431,0.516503 1.880329,-0.4595 -0.761732,1.545839 -0.09133,-0.003 -0.182776,-0.0025 -0.274006,-0.0076 -0.188576,-0.0114 -0.376443,-0.0324 -0.563366,-0.05985 -0.444378,-0.06069 -0.889747,-0.131619 -1.340051,-0.113672 -0.603981,-0.0033 -1.207975,-1.52e-4 -1.811962,-0.0015 -0.680922,-0.0013 -1.361785,-0.007 -2.042659,-0.01502 -1.040755,-0.0082 -2.082102,-0.01802 -3.122358,0.02246 -0.136303,0.0088 -0.273028,0.01252 -0.408909,0.02638 -0.08123,0.0083 -0.307518,0.08824 -0.241656,0.03998 0.601396,-0.440615 1.256737,-0.803256 1.867328,-1.231038 0.02492,-0.01746 -0.09529,-0.07054 0.02468,-0.01466 0.299611,0.06883 0.57732,0.203164 0.851926,0.338191 0.797526,0.43521 1.566682,0.922245 2.280597,1.485797 1.382433,1.140506 2.611079,2.450987 3.837203,3.754553 0.998382,1.060386 1.999386,2.114514 3.060243,3.113503 1.143858,1.077149 1.281416,1.161956 2.472377,2.18809 0.389697,0.335764 0.777613,0.673589 1.16642,1.010383 0.57316,0.49863 1.197322,1.032787 1.75972,1.551331 0.159545,0.147105 0.322199,0.291726 0.468999,0.451551 0.0763,0.08305 0.28408,0.201781 0.19783,0.274436 -1.478459,1.245475 -1.225149,1.235846 -2.038716,1.247551 -0.07359,0.0035 -0.14721,-0.0065 -0.220734,-0.0092 -0.133468,-0.01299 -0.264236,-0.04078 -0.390293,-0.08748 -0.177835,-0.06593 -0.353777,-0.127798 -0.540017,-0.166888 -0.31831,-0.10041 -0.632323,-0.21451 -0.952545,-0.309189 -0.36004,-0.134946 -0.715273,-0.282813 -1.078056,-0.410492 -0.389599,-0.12209 -0.785054,-0.224272 -1.175748,-0.342891 -0.543141,-0.194495 -1.075732,-0.410909 -1.603211,-0.64486 -1.285559,-0.509288 -2.567443,-1.031172 -3.885168,-1.453502 -1.258497,-0.412448 -2.545554,-0.9244 -3.885952,-0.93493 -0.975813,0.165961 0.11263,0.0075 1.67324,-1.092151 0.04504,-0.03174 -0.07162,-0.08378 -0.106199,-0.126679 -0.02944,-0.03652 0.123489,0.139911 0.08655,0.110985 0.0932,0.105504 0.19191,0.205903 0.283604,0.312634 0.202786,0.234661 0.400172,0.473895 0.61031,0.702188 0.358161,0.382936 0.683242,0.796344 1.064357,1.15816 0.494793,0.512549 0.9884,1.026079 1.467892,1.553089 0.472497,0.523171 0.935359,1.055016 1.415928,1.570867 0.250496,0.294167 0.491599,0.602746 0.800362,0.839178 0,0 -1.956507,1.237474 -1.956507,1.237474 z"
       inkscape:connector-curvature="0" />
    <path
       style="opacity:0.43000004;vector-effect:none;fill:#501616;fill-opacity:1;stroke:none;stroke-width:0.99999994px;stroke-linecap:butt;stroke-linejoin:miter;stroke-miterlimit:4;stroke-dasharray:none;stroke-dashoffset:0;stroke-opacity:1;paint-order:normal"
       id="path926"
       d="m 175.54674,17.872021 c 0.0177,0.262925 0.0803,0.521391 0.1147,0.783049 0.0502,0.224365 0.11975,0.442989 0.15802,0.670381 0.0646,0.192427 0.12486,0.384307 0.1567,0.585084 0.0621,0.204449 0.12364,0.407517 0.15604,0.619065 0.0663,0.213988 0.12152,0.430066 0.15618,0.651543 0.0541,0.214371 0.12003,0.424473 0.15667,0.643257 0.0535,0.171035 0.12027,0.336059 0.15699,0.51199 0.0603,0.154413 0.12142,0.306391 0.15626,0.46894 0.0314,0.197253 0.0342,0.397327 0.0356,0.596601 0.002,0.171557 0.004,0.343192 0.002,0.514766 5.3e-4,0.126239 0.005,0.252546 0.003,0.37877 -0.003,0.07313 0.007,0.146215 0.004,0.219212 0.0566,0.958325 -1.41405,1.333234 -2.30841,1.355754 -0.32378,0.03095 -0.62189,-0.06106 -0.91413,-0.190627 -0.41849,-0.185819 -0.85161,-0.331706 -1.28109,-0.488652 -0.49493,-0.192042 -1.01379,-0.282453 -1.52891,-0.396567 -0.44549,-0.09528 -0.89731,-0.139921 -1.34479,-0.223146 -0.41028,-0.07158 -0.81491,-0.174184 -1.21697,-0.282929 -0.36068,-0.07005 -0.71883,-0.151141 -1.08062,-0.216328 -0.32904,-0.05472 -0.66272,-0.06886 -0.99568,-0.07256 -0.22358,-0.0018 -0.44721,-0.0012 -0.67073,0.0047 -0.12315,0.002 -0.24632,0.0015 -0.36946,0.0037 -0.94756,0.07605 1.08284,-1.394467 1.90036,-1.366834 0.33517,0.0087 0.62083,0.22418 0.90324,0.38127 0.36177,0.21361 0.68918,0.480716 0.97985,0.783037 0.26315,0.271591 0.44051,0.606516 0.63759,0.925227 0.18259,0.254033 0.29589,0.54687 0.42814,0.828062 0.15128,0.256204 0.28169,0.521647 0.39976,0.794698 0.083,0.256348 0.19176,0.503768 0.27237,0.760765 0.0369,0.217941 0.1102,0.42612 0.16729,0.63882 0.0278,0.213841 0.0996,0.416491 0.15507,0.6236 0.0512,0.21221 0.0668,0.429743 0.0743,0.647184 0.005,0.193915 0.004,0.387883 0.006,0.581811 -10e-4,0.114677 0.006,0.229568 0.004,0.344203 0.008,1.0153 0.73495,-0.157244 -2.02474,1.410812 -0.26155,-0.02295 -0.52543,-0.0176 -0.78792,-0.01866 -0.30882,-0.0027 -0.61762,0.0013 -0.92643,0.0014 -0.30103,-0.0025 -0.59391,-0.09974 -0.8796,-0.187131 -0.26973,-0.06572 -0.53759,-0.09717 -0.79968,-0.187627 -0.13295,-0.05177 -0.27049,-0.08991 -0.41381,-0.09076 -0.11018,-3.85e-4 -0.22038,5.74e-4 -0.33056,0.0018 -0.90664,-0.01704 -1.41791,0.632767 1.57482,-1.035945 -0.20491,0.100244 -0.269,0.36663 -0.33652,0.569141 -0.0387,0.213642 -0.0983,0.419961 -0.16046,0.62759 -0.0254,0.124216 -0.0656,0.237974 -0.13122,0.346323 -0.43817,1.27455 -1.50932,1.223766 -2.42084,1.211341 -0.2884,-0.01983 -0.56469,-7.2e-4 -0.84701,0.05355 -0.37204,0.0328 -0.72652,0.144151 -1.08442,0.244375 -0.45903,0.165713 -0.87692,0.423293 -1.30491,0.654289 3.23658,-1.942878 1.4463,-0.841856 0.76523,-0.331723 -0.25176,0.188572 -0.32702,0.254247 -0.57154,0.453778 -0.53301,0.462499 -1.05868,0.933957 -1.57019,1.420223 -0.37783,0.380343 -0.73596,0.780314 -1.0922,1.180923 -0.16631,0.189272 -0.33661,0.375185 -0.5131,0.554746 -0.62642,0.581187 -1.37703,1.296741 -2.24358,1.254853 -0.0411,-0.0027 -0.0218,-10e-4 -0.058,-0.0049 0,0 1.88583,-1.38016 1.88583,-1.38016 v 0 c 0.0257,-0.0061 0.0119,-0.0026 0.0414,-0.01075 0.87243,-0.336001 -2.70521,1.602991 -1.77215,1.013574 0.20702,-0.156143 0.37894,-0.358375 0.55509,-0.54842 0.38819,-0.388833 0.73819,-0.815177 1.12521,-1.205415 0.50496,-0.50067 1.04733,-0.960742 1.57258,-1.439812 1.11291,-0.942648 2.31703,-1.712433 3.63156,-2.371326 0.43754,-0.238513 0.87143,-0.496681 1.3557,-0.629726 0.36596,-0.102722 0.73511,-0.185211 1.11252,-0.233926 0.29138,-0.03998 0.58397,-0.02685 0.87739,-0.03571 0.0871,-0.005 0.19291,-1.52e-4 0.275,-0.0373 0.0162,-0.0073 0.0586,-0.04032 0.0432,-0.03146 -1.98196,1.135156 -2.69198,0.962876 -1.90338,1.139989 0.0803,-0.0849 0.15893,-0.156445 0.17809,-0.276983 0.0641,-0.20933 0.15666,-0.40764 0.1717,-0.629167 0.0613,-0.249305 0.1603,-0.487457 0.25727,-0.723901 1.65765,-0.929338 1.41251,-1.177349 2.46729,-1.164618 0.11624,9.39e-4 0.23311,-0.0011 0.34782,0.02121 0.14652,0.03202 0.28627,0.08374 0.42632,0.136811 0.25728,0.0794 0.52892,0.102771 0.78469,0.190094 0.27572,0.0793 0.5587,0.141792 0.84749,0.129011 0.30585,9.71e-4 0.61167,0.0065 0.91754,0.0047 0.25779,-0.001 0.53348,0.02184 0.78184,-0.05239 -0.65334,0.380121 -1.32229,0.734597 -1.96001,1.140364 -0.0256,0.01626 0.0342,0.05138 0.0584,0.06957 0.001,9.74e-4 -0.002,-0.151478 0.003,-0.145701 -0.003,-0.116326 0.006,-0.232903 0.005,-0.349261 0.004,-0.192668 0.004,-0.385479 0.002,-0.578158 -0.004,-0.201493 -0.008,-0.404039 -0.0495,-0.602182 -0.0505,-0.209084 -0.13562,-0.408137 -0.15512,-0.623692 -0.051,-0.212417 -0.13604,-0.41467 -0.16065,-0.632811 -0.0688,-0.252239 -0.17652,-0.490844 -0.24859,-0.742074 -0.11645,-0.270511 -0.25211,-0.529632 -0.39303,-0.787709 -0.1341,-0.2731 -0.24313,-0.560243 -0.41885,-0.810853 -0.17507,-0.310754 -0.35095,-0.625909 -0.59915,-0.885565 -0.27805,-0.286108 -0.59715,-0.529961 -0.94573,-0.724803 -0.274,-0.151974 -0.54315,-0.301366 -0.86794,-0.263839 -0.90945,0.02808 1.07764,-1.438896 1.86186,-1.367117 0.12062,0.0018 0.24125,3.84e-4 0.36188,0.0014 0.21989,0.0047 0.4399,0.0042 0.65967,0.01365 0.33664,0.01873 0.67378,0.04085 1.00471,0.109863 0.36367,0.07322 0.73036,0.134437 1.08836,0.232653 0.39595,0.109168 0.79803,0.197216 1.20234,0.269192 0.44549,0.07979 0.89644,0.128871 1.3364,0.238016 0.52439,0.110781 1.04371,0.233432 1.54792,0.419436 0.43666,0.153147 0.8721,0.308436 1.30115,0.48222 0.28561,0.09427 0.57045,0.141033 0.87104,0.09066 0.80265,-0.133409 1.53955,-0.928296 -1.7356,1.059149 -0.0202,0.01225 0.0435,0.01834 0.0648,0.02868 0.0155,0.0075 0.0284,0.02845 0.0452,0.02488 0.0112,-0.0024 -2e-4,-0.02293 -3.1e-4,-0.0344 -0.004,-0.07424 0.007,-0.148651 0.004,-0.223029 -0.002,-0.127485 0.003,-0.255055 0.004,-0.382546 -0.001,-0.171695 0.002,-0.343393 0.003,-0.515083 -0.001,-0.18577 3.9e-4,-0.372166 -0.021,-0.557023 -0.0265,-0.165373 -0.0866,-0.318299 -0.15621,-0.470233 -0.0284,-0.18105 -0.0926,-0.350386 -0.15547,-0.521934 -0.0286,-0.221315 -0.0858,-0.434343 -0.1558,-0.646134 -0.0272,-0.223376 -0.0765,-0.4403 -0.15627,-0.65128 -0.0269,-0.212299 -0.0812,-0.41708 -0.15647,-0.617557 -0.0265,-0.201797 -0.0817,-0.394743 -0.15673,-0.584015 -0.0301,-0.23202 -0.0912,-0.455531 -0.15575,-0.680083 -0.0273,-0.269743 -0.0691,-0.537789 -0.14114,-0.799629 0,0 2.06776,-1.053579 2.06776,-1.053579 z"
       inkscape:connector-curvature="0" />
  </g>
</svg>
