<?xml version="1.0" encoding="UTF-8" standalone="no"?>
<!-- Created with Inkscape (http://www.inkscape.org/) -->

<svg
   xmlns:dc="http://purl.org/dc/elements/1.1/"
   xmlns:cc="http://creativecommons.org/ns#"
   xmlns:rdf="http://www.w3.org/1999/02/22-rdf-syntax-ns#"
   xmlns:svg="http://www.w3.org/2000/svg"
   xmlns="http://www.w3.org/2000/svg"
   xmlns:sodipodi="http://sodipodi.sourceforge.net/DTD/sodipodi-0.dtd"
   xmlns:inkscape="http://www.inkscape.org/namespaces/inkscape"
   width="64"
   height="64"
   viewBox="0 0 16.933333 16.933334"
   version="1.1"
   id="svg1758"
   inkscape:version="0.92.3 (2405546, 2018-03-11)"
   sodipodi:docname="blackhole.svg">
  <defs
     id="defs1752" />
  <sodipodi:namedview
     id="base"
     pagecolor="#ffffff"
     bordercolor="#666666"
     borderopacity="1.0"
     inkscape:pageopacity="0.0"
     inkscape:pageshadow="2"
     inkscape:zoom="4.3125"
     inkscape:cx="32"
     inkscape:cy="27.843723"
     inkscape:document-units="mm"
     inkscape:current-layer="layer1"
     showgrid="true"
     units="px"
     inkscape:pagecheckerboard="true"
     inkscape:window-width="1323"
     inkscape:window-height="713"
     inkscape:window-x="0"
     inkscape:window-y="27"
     inkscape:window-maximized="1">
    <inkscape:grid
       type="xygrid"
       id="grid1760"
       empspacing="4" />
  </sodipodi:namedview>
  <metadata
     id="metadata1755">
    <rdf:RDF>
      <cc:Work
         rdf:about="">
        <dc:format>image/svg+xml</dc:format>
        <dc:type
           rdf:resource="http://purl.org/dc/dcmitype/StillImage" />
        <dc:title></dc:title>
      </cc:Work>
    </rdf:RDF>
  </metadata>
  <g
     inkscape:label="Layer 1"
     inkscape:groupmode="layer"
     id="layer1"
     transform="translate(0,-280.06665)">
    <path
       id="path1747"
       style="fill:#ffffff;fill-rule:evenodd;stroke:none;stroke-width:0.26458332px;stroke-linecap:butt;stroke-linejoin:miter;stroke-opacity:1"
       d="m 8.2020833,290.91457 c -1.4527327,0.0361 -2.5934449,-1.23102 -2.6179731,-2.64298 -0.030241,-1.74178 1.4925011,-3.1053 3.1882079,-3.12354 2.0668479,-0.0222 3.6804909,1.78858 3.6902869,3.80374 0.01181,2.43003 -2.121411,4.32279 -4.4938028,4.32176 -2.8334056,-10e-4 -5.0358204,-2.49315 -5.0213667,-5.26269 0.017122,-3.27915 2.9059282,-5.82339 6.1146133,-5.79273 3.7693252,0.036 6.6890912,3.36192 6.6392052,7.05393 -0.05818,4.30608 -3.863249,7.63673 -8.084782,7.56441 -2.7584869,-0.0473 -5.357467,-1.49092 -6.93011193,-3.74508 1.68283433,2.07853 4.29531833,3.3429 6.98481433,3.19193 3.7089456,-0.20822 7.0251326,-3.28393 6.7827366,-7.13461 -0.180729,-2.87134 -2.574223,-5.43796 -5.5602466,-5.22779 -2.1964202,0.1546 -4.1593954,1.99607 -3.9796834,4.2844 0.1302329,1.65823 1.5294193,3.1401 3.2604627,2.9886 1.2338768,-0.10798 1.9971053,-1.0499 1.9346353,-1.1573 -0.06251,-0.1074 -0.7452465,0.84911 -1.9069957,0.87795 z"
       inkscape:connector-curvature="0"
       sodipodi:nodetypes="ssssssssscssssscs"
       inkscape:transform-center-x="0.24404866"
       inkscape:transform-center-y="1.0519481" />
  </g>
</svg>
