<?xml version="1.0" encoding="UTF-8" standalone="no"?>
<!-- Created with Inkscape (http://www.inkscape.org/) -->

<svg
   xmlns:dc="http://purl.org/dc/elements/1.1/"
   xmlns:cc="http://creativecommons.org/ns#"
   xmlns:rdf="http://www.w3.org/1999/02/22-rdf-syntax-ns#"
   xmlns:svg="http://www.w3.org/2000/svg"
   xmlns="http://www.w3.org/2000/svg"
   xmlns:sodipodi="http://sodipodi.sourceforge.net/DTD/sodipodi-0.dtd"
   xmlns:inkscape="http://www.inkscape.org/namespaces/inkscape"
   width="256"
   height="256"
   viewBox="0 0 256 256"
   version="1.1"
   id="svg1758"
   inkscape:version="0.92.3 (2405546, 2018-03-11)"
   sodipodi:docname="whitehole.svg">
  <defs
     id="defs1752" />
  <sodipodi:namedview
     id="base"
     pagecolor="#ffffff"
     bordercolor="#666666"
     borderopacity="1.0"
     inkscape:pageopacity="0.0"
     inkscape:pageshadow="2"
     inkscape:zoom="1.1371588"
     inkscape:cx="127.7722"
     inkscape:cy="126.97463"
     inkscape:document-units="px"
     inkscape:current-layer="layer1"
     showgrid="true"
     units="px"
     inkscape:pagecheckerboard="true"
     inkscape:window-width="1323"
     inkscape:window-height="713"
     inkscape:window-x="0"
     inkscape:window-y="27"
     inkscape:window-maximized="1"
     showguides="true"
     inkscape:guide-bbox="true"
     inkscape:snap-global="false">
    <inkscape:grid
       type="xygrid"
       id="grid1760"
       empspacing="4" />
    <sodipodi:guide
       position="128,204"
       orientation="1,0"
       id="guide28"
       inkscape:locked="false" />
    <sodipodi:guide
       position="100,128"
       orientation="0,1"
       id="guide30"
       inkscape:locked="false" />
  </sodipodi:namedview>
  <metadata
     id="metadata1755">
    <rdf:RDF>
      <cc:Work
         rdf:about="">
        <dc:format>image/svg+xml</dc:format>
        <dc:type
           rdf:resource="http://purl.org/dc/dcmitype/StillImage" />
        <dc:title></dc:title>
      </cc:Work>
    </rdf:RDF>
  </metadata>
  <g
     inkscape:label="Layer 1"
     inkscape:groupmode="layer"
     id="layer1"
     transform="translate(0,-229.26665)">
    <path
       id="path1747"
       style="fill:#ffffff;fill-rule:evenodd;stroke:none;stroke-width:0.26458332px;stroke-linecap:butt;stroke-linejoin:miter;stroke-opacity:1"
       d="m 127.89956,380.48126 c -23.24368,0.5776 -41.49504,-19.69632 -41.88752,-42.28768 -0.4832,-27.86848 23.88,-49.6848 51.0112,-49.97664 33.0696,-0.3552 58.888,28.61728 59.04464,60.85984 0.1888,38.88048 -33.94256,69.16464 -71.9008,69.14816 -45.33456,-0.016 -80.57312,-39.8904 -80.34192,-84.20304 0.2736,-52.4664 46.49488,-93.17424 97.83392,-92.68368 60.30912,0.576 107.02544,53.79072 106.2272,112.86288 -0.9312,68.89728 -61.812,122.18768 -129.35648,121.03056 -44.13584,-0.7568 -85.71952,-23.85472 -110.88176,-59.92128 26.92528,33.25648 68.72512,53.4864 111.75696,51.07088 59.3432,-3.33152 112.40208,-52.54288 108.52384,-114.15376 -2.89168,-45.94144 -41.18768,-87.00736 -88.964,-83.64464 -35.14272,2.4736 -66.55024,31.93712 -63.67488,68.5504 2.08368,26.53168 24.47072,50.2416 52.16736,47.8176 19.74208,-1.72768 31.95376,-16.7984 30.95424,-18.5168 -1,-1.7184 -11.924,13.58576 -30.512,14.0472 z"
       inkscape:connector-curvature="0"
       sodipodi:nodetypes="ssssssssscssssscs"
       inkscape:transform-center-x="0.24404866"
       inkscape:transform-center-y="1.0519481" />
  </g>
</svg>
